M48
; DRILL file {KiCad 7.0.2-0} date 2023 November 25, Saturday 15:14:48
; FORMAT={-:-/ absolute / inch / decimal}
; #@! TF.CreationDate,2023-11-25T15:14:48-08:00
; #@! TF.GenerationSoftware,Kicad,Pcbnew,7.0.2-0
; #@! TF.FileFunction,Plated,1,2,PTH
FMAT,2
INCH
; #@! TA.AperFunction,Plated,PTH,ComponentDrill
T1C0.0118
; #@! TA.AperFunction,Plated,PTH,ViaDrill
T2C0.0157
; #@! TA.AperFunction,Plated,PTH,ViaDrill
T3C0.0197
; #@! TA.AperFunction,Plated,PTH,ComponentDrill
T4C0.0295
; #@! TA.AperFunction,Plated,PTH,ComponentDrill
T5C0.0394
%
G90
G05
T1
X4.4547Y-3.9665
X4.4547Y-4.0295
X4.4547Y-4.0925
X4.4547Y-4.1555
X4.5433Y-3.9665
X4.5433Y-4.0295
X4.5433Y-4.0925
X4.5433Y-4.1555
T2
X2.8504Y-4.252
X2.9646Y-4.5315
X3.0945Y-3.8543
X3.0945Y-4.0669
X3.0945Y-4.2717
X3.0945Y-4.685
X4.1102Y-4.7249
X4.1802Y-3.7804
X4.3465Y-4.3732
X4.3465Y-4.4173
X4.3504Y-4.5098
X4.5709Y-3.6535
X4.7165Y-3.5748
X4.7559Y-3.7638
X4.8701Y-4.7323
X4.9154Y-5.0728
X5.0551Y-4.1418
X5.1654Y-4.2087
X5.2047Y-4.0709
X5.2283Y-4.752
X5.2913Y-4.3189
X5.3524Y-4.6969
X5.3799Y-4.5472
X5.435Y-4.1678
X5.5059Y-4.5394
T3
X3.0Y-3.9724
X3.0177Y-4.4902
X4.1339Y-5.0787
X4.185Y-5.0787
X4.2835Y-5.2205
X4.3307Y-5.2205
X4.3504Y-4.8386
X4.4173Y-5.2795
X4.4606Y-5.2795
X4.4724Y-3.4764
X4.5039Y-5.2795
X4.5079Y-4.6181
X4.5079Y-4.6575
X4.5157Y-3.4764
X4.5591Y-3.4764
X4.6762Y-3.9213
X4.6762Y-3.9606
X4.7362Y-3.9213
X4.7362Y-3.9606
X4.7598Y-4.1732
X4.7598Y-4.2126
X4.8189Y-4.1732
X4.8189Y-4.2126
X4.9183Y-3.6853
X4.9193Y-4.2953
X4.9616Y-3.6853
X4.9626Y-4.2953
X5.0049Y-3.6853
X5.0059Y-4.2953
X5.0394Y-4.6929
X5.063Y-4.5197
X5.063Y-4.563
X5.063Y-4.6063
X5.0669Y-3.9173
X5.0787Y-3.7795
X5.0984Y-3.9488
X5.1102Y-3.811
X5.3366Y-4.0551
T4
X2.9134Y-3.5
X2.9134Y-3.5787
X2.9134Y-3.6575
X2.9134Y-3.7362
X2.9134Y-4.3278
X2.9134Y-4.4065
X2.9134Y-4.4852
X2.9134Y-4.564
X2.9134Y-4.6427
X4.4606Y-5.0591
X4.5394Y-5.0591
X5.2205Y-3.9016
X5.2992Y-3.9016
X5.378Y-3.9016
T5
X3.2417Y-3.5732
X3.2417Y-3.6732
X3.2417Y-3.7732
X3.2417Y-3.8732
X3.2417Y-3.9732
X3.2417Y-4.0732
X3.2417Y-4.1732
X3.2417Y-4.2732
X3.2417Y-4.3732
X3.2417Y-4.4732
X3.2417Y-4.5732
X3.2417Y-4.6732
X4.0417Y-3.5732
X4.0417Y-3.6732
X4.0417Y-3.7732
X4.0417Y-3.8732
X4.0417Y-3.9732
X4.0417Y-4.0732
X4.0417Y-4.1732
X4.0417Y-4.2732
X4.0417Y-4.3732
X4.0417Y-4.4732
X4.0417Y-4.5732
X4.0417Y-4.6732
X4.0417Y-4.7732
X4.0417Y-4.8732
X4.0417Y-4.9732
X4.0417Y-5.0732
T0
M30
