%TF.GenerationSoftware,KiCad,Pcbnew,7.0.2-0*%
%TF.CreationDate,2023-11-25T15:14:41-08:00*%
%TF.ProjectId,Controller v1.1,436f6e74-726f-46c6-9c65-722076312e31,rev?*%
%TF.SameCoordinates,Original*%
%TF.FileFunction,Legend,Top*%
%TF.FilePolarity,Positive*%
%FSLAX46Y46*%
G04 Gerber Fmt 4.6, Leading zero omitted, Abs format (unit mm)*
G04 Created by KiCad (PCBNEW 7.0.2-0) date 2023-11-25 15:14:41*
%MOMM*%
%LPD*%
G01*
G04 APERTURE LIST*
%ADD10C,0.150000*%
%ADD11C,0.120000*%
%ADD12C,0.100000*%
G04 APERTURE END LIST*
D10*
X93061904Y-85115000D02*
X92966666Y-85162619D01*
X92966666Y-85162619D02*
X92776190Y-85162619D01*
X92776190Y-85162619D02*
X92680952Y-85115000D01*
X92680952Y-85115000D02*
X92633333Y-85019761D01*
X92633333Y-85019761D02*
X92633333Y-84638809D01*
X92633333Y-84638809D02*
X92680952Y-84543571D01*
X92680952Y-84543571D02*
X92776190Y-84495952D01*
X92776190Y-84495952D02*
X92966666Y-84495952D01*
X92966666Y-84495952D02*
X93061904Y-84543571D01*
X93061904Y-84543571D02*
X93109523Y-84638809D01*
X93109523Y-84638809D02*
X93109523Y-84734047D01*
X93109523Y-84734047D02*
X92633333Y-84829285D01*
X93538095Y-84495952D02*
X93538095Y-85162619D01*
X93538095Y-84591190D02*
X93585714Y-84543571D01*
X93585714Y-84543571D02*
X93680952Y-84495952D01*
X93680952Y-84495952D02*
X93823809Y-84495952D01*
X93823809Y-84495952D02*
X93919047Y-84543571D01*
X93919047Y-84543571D02*
X93966666Y-84638809D01*
X93966666Y-84638809D02*
X93966666Y-85162619D01*
X94395238Y-84257857D02*
X94442857Y-84210238D01*
X94442857Y-84210238D02*
X94538095Y-84162619D01*
X94538095Y-84162619D02*
X94776190Y-84162619D01*
X94776190Y-84162619D02*
X94871428Y-84210238D01*
X94871428Y-84210238D02*
X94919047Y-84257857D01*
X94919047Y-84257857D02*
X94966666Y-84353095D01*
X94966666Y-84353095D02*
X94966666Y-84448333D01*
X94966666Y-84448333D02*
X94919047Y-84591190D01*
X94919047Y-84591190D02*
X94347619Y-85162619D01*
X94347619Y-85162619D02*
X94966666Y-85162619D01*
X70162619Y-123742856D02*
X69162619Y-123742856D01*
X70162619Y-123314285D02*
X69638809Y-123314285D01*
X69638809Y-123314285D02*
X69543571Y-123361904D01*
X69543571Y-123361904D02*
X69495952Y-123457142D01*
X69495952Y-123457142D02*
X69495952Y-123599999D01*
X69495952Y-123599999D02*
X69543571Y-123695237D01*
X69543571Y-123695237D02*
X69591190Y-123742856D01*
X69495952Y-122838094D02*
X70495952Y-122838094D01*
X69543571Y-122838094D02*
X69495952Y-122742856D01*
X69495952Y-122742856D02*
X69495952Y-122552380D01*
X69495952Y-122552380D02*
X69543571Y-122457142D01*
X69543571Y-122457142D02*
X69591190Y-122409523D01*
X69591190Y-122409523D02*
X69686428Y-122361904D01*
X69686428Y-122361904D02*
X69972142Y-122361904D01*
X69972142Y-122361904D02*
X70067380Y-122409523D01*
X70067380Y-122409523D02*
X70115000Y-122457142D01*
X70115000Y-122457142D02*
X70162619Y-122552380D01*
X70162619Y-122552380D02*
X70162619Y-122742856D01*
X70162619Y-122742856D02*
X70115000Y-122838094D01*
X70162619Y-121409523D02*
X70162619Y-121980951D01*
X70162619Y-121695237D02*
X69162619Y-121695237D01*
X69162619Y-121695237D02*
X69305476Y-121790475D01*
X69305476Y-121790475D02*
X69400714Y-121885713D01*
X69400714Y-121885713D02*
X69448333Y-121980951D01*
X95471429Y-85162619D02*
X95471429Y-84495952D01*
X95471429Y-84162619D02*
X95423810Y-84210238D01*
X95423810Y-84210238D02*
X95471429Y-84257857D01*
X95471429Y-84257857D02*
X95519048Y-84210238D01*
X95519048Y-84210238D02*
X95471429Y-84162619D01*
X95471429Y-84162619D02*
X95471429Y-84257857D01*
X95947619Y-84495952D02*
X95947619Y-85162619D01*
X95947619Y-84591190D02*
X95995238Y-84543571D01*
X95995238Y-84543571D02*
X96090476Y-84495952D01*
X96090476Y-84495952D02*
X96233333Y-84495952D01*
X96233333Y-84495952D02*
X96328571Y-84543571D01*
X96328571Y-84543571D02*
X96376190Y-84638809D01*
X96376190Y-84638809D02*
X96376190Y-85162619D01*
X96757143Y-84162619D02*
X97376190Y-84162619D01*
X97376190Y-84162619D02*
X97042857Y-84543571D01*
X97042857Y-84543571D02*
X97185714Y-84543571D01*
X97185714Y-84543571D02*
X97280952Y-84591190D01*
X97280952Y-84591190D02*
X97328571Y-84638809D01*
X97328571Y-84638809D02*
X97376190Y-84734047D01*
X97376190Y-84734047D02*
X97376190Y-84972142D01*
X97376190Y-84972142D02*
X97328571Y-85067380D01*
X97328571Y-85067380D02*
X97280952Y-85115000D01*
X97280952Y-85115000D02*
X97185714Y-85162619D01*
X97185714Y-85162619D02*
X96900000Y-85162619D01*
X96900000Y-85162619D02*
X96804762Y-85115000D01*
X96804762Y-85115000D02*
X96757143Y-85067380D01*
X87861904Y-85115000D02*
X87766666Y-85162619D01*
X87766666Y-85162619D02*
X87576190Y-85162619D01*
X87576190Y-85162619D02*
X87480952Y-85115000D01*
X87480952Y-85115000D02*
X87433333Y-85019761D01*
X87433333Y-85019761D02*
X87433333Y-84638809D01*
X87433333Y-84638809D02*
X87480952Y-84543571D01*
X87480952Y-84543571D02*
X87576190Y-84495952D01*
X87576190Y-84495952D02*
X87766666Y-84495952D01*
X87766666Y-84495952D02*
X87861904Y-84543571D01*
X87861904Y-84543571D02*
X87909523Y-84638809D01*
X87909523Y-84638809D02*
X87909523Y-84734047D01*
X87909523Y-84734047D02*
X87433333Y-84829285D01*
X88338095Y-84495952D02*
X88338095Y-85162619D01*
X88338095Y-84591190D02*
X88385714Y-84543571D01*
X88385714Y-84543571D02*
X88480952Y-84495952D01*
X88480952Y-84495952D02*
X88623809Y-84495952D01*
X88623809Y-84495952D02*
X88719047Y-84543571D01*
X88719047Y-84543571D02*
X88766666Y-84638809D01*
X88766666Y-84638809D02*
X88766666Y-85162619D01*
X89766666Y-85162619D02*
X89195238Y-85162619D01*
X89480952Y-85162619D02*
X89480952Y-84162619D01*
X89480952Y-84162619D02*
X89385714Y-84305476D01*
X89385714Y-84305476D02*
X89290476Y-84400714D01*
X89290476Y-84400714D02*
X89195238Y-84448333D01*
X104542857Y-119162619D02*
X104542857Y-118495952D01*
X104542857Y-118162619D02*
X104495238Y-118210238D01*
X104495238Y-118210238D02*
X104542857Y-118257857D01*
X104542857Y-118257857D02*
X104590476Y-118210238D01*
X104590476Y-118210238D02*
X104542857Y-118162619D01*
X104542857Y-118162619D02*
X104542857Y-118257857D01*
X104971428Y-119115000D02*
X105066666Y-119162619D01*
X105066666Y-119162619D02*
X105257142Y-119162619D01*
X105257142Y-119162619D02*
X105352380Y-119115000D01*
X105352380Y-119115000D02*
X105399999Y-119019761D01*
X105399999Y-119019761D02*
X105399999Y-118972142D01*
X105399999Y-118972142D02*
X105352380Y-118876904D01*
X105352380Y-118876904D02*
X105257142Y-118829285D01*
X105257142Y-118829285D02*
X105114285Y-118829285D01*
X105114285Y-118829285D02*
X105019047Y-118781666D01*
X105019047Y-118781666D02*
X104971428Y-118686428D01*
X104971428Y-118686428D02*
X104971428Y-118638809D01*
X104971428Y-118638809D02*
X105019047Y-118543571D01*
X105019047Y-118543571D02*
X105114285Y-118495952D01*
X105114285Y-118495952D02*
X105257142Y-118495952D01*
X105257142Y-118495952D02*
X105352380Y-118543571D01*
X105828571Y-118495952D02*
X105828571Y-119162619D01*
X105828571Y-118591190D02*
X105876190Y-118543571D01*
X105876190Y-118543571D02*
X105971428Y-118495952D01*
X105971428Y-118495952D02*
X106114285Y-118495952D01*
X106114285Y-118495952D02*
X106209523Y-118543571D01*
X106209523Y-118543571D02*
X106257142Y-118638809D01*
X106257142Y-118638809D02*
X106257142Y-119162619D01*
X137419048Y-123262619D02*
X137419048Y-122595952D01*
X137419048Y-122262619D02*
X137371429Y-122310238D01*
X137371429Y-122310238D02*
X137419048Y-122357857D01*
X137419048Y-122357857D02*
X137466667Y-122310238D01*
X137466667Y-122310238D02*
X137419048Y-122262619D01*
X137419048Y-122262619D02*
X137419048Y-122357857D01*
X137847619Y-123215000D02*
X137942857Y-123262619D01*
X137942857Y-123262619D02*
X138133333Y-123262619D01*
X138133333Y-123262619D02*
X138228571Y-123215000D01*
X138228571Y-123215000D02*
X138276190Y-123119761D01*
X138276190Y-123119761D02*
X138276190Y-123072142D01*
X138276190Y-123072142D02*
X138228571Y-122976904D01*
X138228571Y-122976904D02*
X138133333Y-122929285D01*
X138133333Y-122929285D02*
X137990476Y-122929285D01*
X137990476Y-122929285D02*
X137895238Y-122881666D01*
X137895238Y-122881666D02*
X137847619Y-122786428D01*
X137847619Y-122786428D02*
X137847619Y-122738809D01*
X137847619Y-122738809D02*
X137895238Y-122643571D01*
X137895238Y-122643571D02*
X137990476Y-122595952D01*
X137990476Y-122595952D02*
X138133333Y-122595952D01*
X138133333Y-122595952D02*
X138228571Y-122643571D01*
X138657143Y-122357857D02*
X138704762Y-122310238D01*
X138704762Y-122310238D02*
X138800000Y-122262619D01*
X138800000Y-122262619D02*
X139038095Y-122262619D01*
X139038095Y-122262619D02*
X139133333Y-122310238D01*
X139133333Y-122310238D02*
X139180952Y-122357857D01*
X139180952Y-122357857D02*
X139228571Y-122453095D01*
X139228571Y-122453095D02*
X139228571Y-122548333D01*
X139228571Y-122548333D02*
X139180952Y-122691190D01*
X139180952Y-122691190D02*
X138609524Y-123262619D01*
X138609524Y-123262619D02*
X139228571Y-123262619D01*
X85071429Y-85162619D02*
X85071429Y-84495952D01*
X85071429Y-84162619D02*
X85023810Y-84210238D01*
X85023810Y-84210238D02*
X85071429Y-84257857D01*
X85071429Y-84257857D02*
X85119048Y-84210238D01*
X85119048Y-84210238D02*
X85071429Y-84162619D01*
X85071429Y-84162619D02*
X85071429Y-84257857D01*
X85547619Y-84495952D02*
X85547619Y-85162619D01*
X85547619Y-84591190D02*
X85595238Y-84543571D01*
X85595238Y-84543571D02*
X85690476Y-84495952D01*
X85690476Y-84495952D02*
X85833333Y-84495952D01*
X85833333Y-84495952D02*
X85928571Y-84543571D01*
X85928571Y-84543571D02*
X85976190Y-84638809D01*
X85976190Y-84638809D02*
X85976190Y-85162619D01*
X86976190Y-85162619D02*
X86404762Y-85162619D01*
X86690476Y-85162619D02*
X86690476Y-84162619D01*
X86690476Y-84162619D02*
X86595238Y-84305476D01*
X86595238Y-84305476D02*
X86500000Y-84400714D01*
X86500000Y-84400714D02*
X86404762Y-84448333D01*
X90271429Y-85162619D02*
X90271429Y-84495952D01*
X90271429Y-84162619D02*
X90223810Y-84210238D01*
X90223810Y-84210238D02*
X90271429Y-84257857D01*
X90271429Y-84257857D02*
X90319048Y-84210238D01*
X90319048Y-84210238D02*
X90271429Y-84162619D01*
X90271429Y-84162619D02*
X90271429Y-84257857D01*
X90747619Y-84495952D02*
X90747619Y-85162619D01*
X90747619Y-84591190D02*
X90795238Y-84543571D01*
X90795238Y-84543571D02*
X90890476Y-84495952D01*
X90890476Y-84495952D02*
X91033333Y-84495952D01*
X91033333Y-84495952D02*
X91128571Y-84543571D01*
X91128571Y-84543571D02*
X91176190Y-84638809D01*
X91176190Y-84638809D02*
X91176190Y-85162619D01*
X91604762Y-84257857D02*
X91652381Y-84210238D01*
X91652381Y-84210238D02*
X91747619Y-84162619D01*
X91747619Y-84162619D02*
X91985714Y-84162619D01*
X91985714Y-84162619D02*
X92080952Y-84210238D01*
X92080952Y-84210238D02*
X92128571Y-84257857D01*
X92128571Y-84257857D02*
X92176190Y-84353095D01*
X92176190Y-84353095D02*
X92176190Y-84448333D01*
X92176190Y-84448333D02*
X92128571Y-84591190D01*
X92128571Y-84591190D02*
X91557143Y-85162619D01*
X91557143Y-85162619D02*
X92176190Y-85162619D01*
X109719048Y-93262619D02*
X109719048Y-92595952D01*
X109719048Y-92262619D02*
X109671429Y-92310238D01*
X109671429Y-92310238D02*
X109719048Y-92357857D01*
X109719048Y-92357857D02*
X109766667Y-92310238D01*
X109766667Y-92310238D02*
X109719048Y-92262619D01*
X109719048Y-92262619D02*
X109719048Y-92357857D01*
X110147619Y-93215000D02*
X110242857Y-93262619D01*
X110242857Y-93262619D02*
X110433333Y-93262619D01*
X110433333Y-93262619D02*
X110528571Y-93215000D01*
X110528571Y-93215000D02*
X110576190Y-93119761D01*
X110576190Y-93119761D02*
X110576190Y-93072142D01*
X110576190Y-93072142D02*
X110528571Y-92976904D01*
X110528571Y-92976904D02*
X110433333Y-92929285D01*
X110433333Y-92929285D02*
X110290476Y-92929285D01*
X110290476Y-92929285D02*
X110195238Y-92881666D01*
X110195238Y-92881666D02*
X110147619Y-92786428D01*
X110147619Y-92786428D02*
X110147619Y-92738809D01*
X110147619Y-92738809D02*
X110195238Y-92643571D01*
X110195238Y-92643571D02*
X110290476Y-92595952D01*
X110290476Y-92595952D02*
X110433333Y-92595952D01*
X110433333Y-92595952D02*
X110528571Y-92643571D01*
X110909524Y-92262619D02*
X111528571Y-92262619D01*
X111528571Y-92262619D02*
X111195238Y-92643571D01*
X111195238Y-92643571D02*
X111338095Y-92643571D01*
X111338095Y-92643571D02*
X111433333Y-92691190D01*
X111433333Y-92691190D02*
X111480952Y-92738809D01*
X111480952Y-92738809D02*
X111528571Y-92834047D01*
X111528571Y-92834047D02*
X111528571Y-93072142D01*
X111528571Y-93072142D02*
X111480952Y-93167380D01*
X111480952Y-93167380D02*
X111433333Y-93215000D01*
X111433333Y-93215000D02*
X111338095Y-93262619D01*
X111338095Y-93262619D02*
X111052381Y-93262619D01*
X111052381Y-93262619D02*
X110957143Y-93215000D01*
X110957143Y-93215000D02*
X110909524Y-93167380D01*
X104514285Y-114562619D02*
X104514285Y-113895952D01*
X104514285Y-114086428D02*
X104561904Y-113991190D01*
X104561904Y-113991190D02*
X104609523Y-113943571D01*
X104609523Y-113943571D02*
X104704761Y-113895952D01*
X104704761Y-113895952D02*
X104799999Y-113895952D01*
X105514285Y-114515000D02*
X105419047Y-114562619D01*
X105419047Y-114562619D02*
X105228571Y-114562619D01*
X105228571Y-114562619D02*
X105133333Y-114515000D01*
X105133333Y-114515000D02*
X105085714Y-114419761D01*
X105085714Y-114419761D02*
X105085714Y-114038809D01*
X105085714Y-114038809D02*
X105133333Y-113943571D01*
X105133333Y-113943571D02*
X105228571Y-113895952D01*
X105228571Y-113895952D02*
X105419047Y-113895952D01*
X105419047Y-113895952D02*
X105514285Y-113943571D01*
X105514285Y-113943571D02*
X105561904Y-114038809D01*
X105561904Y-114038809D02*
X105561904Y-114134047D01*
X105561904Y-114134047D02*
X105085714Y-114229285D01*
X105847619Y-113895952D02*
X106228571Y-113895952D01*
X105990476Y-114562619D02*
X105990476Y-113705476D01*
X105990476Y-113705476D02*
X106038095Y-113610238D01*
X106038095Y-113610238D02*
X106133333Y-113562619D01*
X106133333Y-113562619D02*
X106228571Y-113562619D01*
X140319048Y-120062619D02*
X140319048Y-119395952D01*
X140319048Y-119062619D02*
X140271429Y-119110238D01*
X140271429Y-119110238D02*
X140319048Y-119157857D01*
X140319048Y-119157857D02*
X140366667Y-119110238D01*
X140366667Y-119110238D02*
X140319048Y-119062619D01*
X140319048Y-119062619D02*
X140319048Y-119157857D01*
X140747619Y-120015000D02*
X140842857Y-120062619D01*
X140842857Y-120062619D02*
X141033333Y-120062619D01*
X141033333Y-120062619D02*
X141128571Y-120015000D01*
X141128571Y-120015000D02*
X141176190Y-119919761D01*
X141176190Y-119919761D02*
X141176190Y-119872142D01*
X141176190Y-119872142D02*
X141128571Y-119776904D01*
X141128571Y-119776904D02*
X141033333Y-119729285D01*
X141033333Y-119729285D02*
X140890476Y-119729285D01*
X140890476Y-119729285D02*
X140795238Y-119681666D01*
X140795238Y-119681666D02*
X140747619Y-119586428D01*
X140747619Y-119586428D02*
X140747619Y-119538809D01*
X140747619Y-119538809D02*
X140795238Y-119443571D01*
X140795238Y-119443571D02*
X140890476Y-119395952D01*
X140890476Y-119395952D02*
X141033333Y-119395952D01*
X141033333Y-119395952D02*
X141128571Y-119443571D01*
X142128571Y-120062619D02*
X141557143Y-120062619D01*
X141842857Y-120062619D02*
X141842857Y-119062619D01*
X141842857Y-119062619D02*
X141747619Y-119205476D01*
X141747619Y-119205476D02*
X141652381Y-119300714D01*
X141652381Y-119300714D02*
X141557143Y-119348333D01*
X70362619Y-107642856D02*
X69362619Y-107642856D01*
X70362619Y-107214285D02*
X69838809Y-107214285D01*
X69838809Y-107214285D02*
X69743571Y-107261904D01*
X69743571Y-107261904D02*
X69695952Y-107357142D01*
X69695952Y-107357142D02*
X69695952Y-107499999D01*
X69695952Y-107499999D02*
X69743571Y-107595237D01*
X69743571Y-107595237D02*
X69791190Y-107642856D01*
X70362619Y-106309523D02*
X69838809Y-106309523D01*
X69838809Y-106309523D02*
X69743571Y-106357142D01*
X69743571Y-106357142D02*
X69695952Y-106452380D01*
X69695952Y-106452380D02*
X69695952Y-106642856D01*
X69695952Y-106642856D02*
X69743571Y-106738094D01*
X70315000Y-106309523D02*
X70362619Y-106404761D01*
X70362619Y-106404761D02*
X70362619Y-106642856D01*
X70362619Y-106642856D02*
X70315000Y-106738094D01*
X70315000Y-106738094D02*
X70219761Y-106785713D01*
X70219761Y-106785713D02*
X70124523Y-106785713D01*
X70124523Y-106785713D02*
X70029285Y-106738094D01*
X70029285Y-106738094D02*
X69981666Y-106642856D01*
X69981666Y-106642856D02*
X69981666Y-106404761D01*
X69981666Y-106404761D02*
X69934047Y-106309523D01*
X69362619Y-105928570D02*
X69362619Y-105309523D01*
X69362619Y-105309523D02*
X69743571Y-105642856D01*
X69743571Y-105642856D02*
X69743571Y-105499999D01*
X69743571Y-105499999D02*
X69791190Y-105404761D01*
X69791190Y-105404761D02*
X69838809Y-105357142D01*
X69838809Y-105357142D02*
X69934047Y-105309523D01*
X69934047Y-105309523D02*
X70172142Y-105309523D01*
X70172142Y-105309523D02*
X70267380Y-105357142D01*
X70267380Y-105357142D02*
X70315000Y-105404761D01*
X70315000Y-105404761D02*
X70362619Y-105499999D01*
X70362619Y-105499999D02*
X70362619Y-105785713D01*
X70362619Y-105785713D02*
X70315000Y-105880951D01*
X70315000Y-105880951D02*
X70267380Y-105928570D01*
X71557143Y-125362619D02*
X71557143Y-124362619D01*
X71985714Y-125362619D02*
X71985714Y-124838809D01*
X71985714Y-124838809D02*
X71938095Y-124743571D01*
X71938095Y-124743571D02*
X71842857Y-124695952D01*
X71842857Y-124695952D02*
X71700000Y-124695952D01*
X71700000Y-124695952D02*
X71604762Y-124743571D01*
X71604762Y-124743571D02*
X71557143Y-124791190D01*
X72461905Y-124695952D02*
X72461905Y-125695952D01*
X72461905Y-124743571D02*
X72557143Y-124695952D01*
X72557143Y-124695952D02*
X72747619Y-124695952D01*
X72747619Y-124695952D02*
X72842857Y-124743571D01*
X72842857Y-124743571D02*
X72890476Y-124791190D01*
X72890476Y-124791190D02*
X72938095Y-124886428D01*
X72938095Y-124886428D02*
X72938095Y-125172142D01*
X72938095Y-125172142D02*
X72890476Y-125267380D01*
X72890476Y-125267380D02*
X72842857Y-125315000D01*
X72842857Y-125315000D02*
X72747619Y-125362619D01*
X72747619Y-125362619D02*
X72557143Y-125362619D01*
X72557143Y-125362619D02*
X72461905Y-125315000D01*
X73319048Y-124457857D02*
X73366667Y-124410238D01*
X73366667Y-124410238D02*
X73461905Y-124362619D01*
X73461905Y-124362619D02*
X73700000Y-124362619D01*
X73700000Y-124362619D02*
X73795238Y-124410238D01*
X73795238Y-124410238D02*
X73842857Y-124457857D01*
X73842857Y-124457857D02*
X73890476Y-124553095D01*
X73890476Y-124553095D02*
X73890476Y-124648333D01*
X73890476Y-124648333D02*
X73842857Y-124791190D01*
X73842857Y-124791190D02*
X73271429Y-125362619D01*
X73271429Y-125362619D02*
X73890476Y-125362619D01*
X76480952Y-85115000D02*
X76576190Y-85162619D01*
X76576190Y-85162619D02*
X76766666Y-85162619D01*
X76766666Y-85162619D02*
X76861904Y-85115000D01*
X76861904Y-85115000D02*
X76909523Y-85019761D01*
X76909523Y-85019761D02*
X76909523Y-84972142D01*
X76909523Y-84972142D02*
X76861904Y-84876904D01*
X76861904Y-84876904D02*
X76766666Y-84829285D01*
X76766666Y-84829285D02*
X76623809Y-84829285D01*
X76623809Y-84829285D02*
X76528571Y-84781666D01*
X76528571Y-84781666D02*
X76480952Y-84686428D01*
X76480952Y-84686428D02*
X76480952Y-84638809D01*
X76480952Y-84638809D02*
X76528571Y-84543571D01*
X76528571Y-84543571D02*
X76623809Y-84495952D01*
X76623809Y-84495952D02*
X76766666Y-84495952D01*
X76766666Y-84495952D02*
X76861904Y-84543571D01*
X77766666Y-85162619D02*
X77766666Y-84162619D01*
X77766666Y-85115000D02*
X77671428Y-85162619D01*
X77671428Y-85162619D02*
X77480952Y-85162619D01*
X77480952Y-85162619D02*
X77385714Y-85115000D01*
X77385714Y-85115000D02*
X77338095Y-85067380D01*
X77338095Y-85067380D02*
X77290476Y-84972142D01*
X77290476Y-84972142D02*
X77290476Y-84686428D01*
X77290476Y-84686428D02*
X77338095Y-84591190D01*
X77338095Y-84591190D02*
X77385714Y-84543571D01*
X77385714Y-84543571D02*
X77480952Y-84495952D01*
X77480952Y-84495952D02*
X77671428Y-84495952D01*
X77671428Y-84495952D02*
X77766666Y-84543571D01*
X78671428Y-85162619D02*
X78671428Y-84638809D01*
X78671428Y-84638809D02*
X78623809Y-84543571D01*
X78623809Y-84543571D02*
X78528571Y-84495952D01*
X78528571Y-84495952D02*
X78338095Y-84495952D01*
X78338095Y-84495952D02*
X78242857Y-84543571D01*
X78671428Y-85115000D02*
X78576190Y-85162619D01*
X78576190Y-85162619D02*
X78338095Y-85162619D01*
X78338095Y-85162619D02*
X78242857Y-85115000D01*
X78242857Y-85115000D02*
X78195238Y-85019761D01*
X78195238Y-85019761D02*
X78195238Y-84924523D01*
X78195238Y-84924523D02*
X78242857Y-84829285D01*
X78242857Y-84829285D02*
X78338095Y-84781666D01*
X78338095Y-84781666D02*
X78576190Y-84781666D01*
X78576190Y-84781666D02*
X78671428Y-84734047D01*
X98261904Y-85115000D02*
X98166666Y-85162619D01*
X98166666Y-85162619D02*
X97976190Y-85162619D01*
X97976190Y-85162619D02*
X97880952Y-85115000D01*
X97880952Y-85115000D02*
X97833333Y-85019761D01*
X97833333Y-85019761D02*
X97833333Y-84638809D01*
X97833333Y-84638809D02*
X97880952Y-84543571D01*
X97880952Y-84543571D02*
X97976190Y-84495952D01*
X97976190Y-84495952D02*
X98166666Y-84495952D01*
X98166666Y-84495952D02*
X98261904Y-84543571D01*
X98261904Y-84543571D02*
X98309523Y-84638809D01*
X98309523Y-84638809D02*
X98309523Y-84734047D01*
X98309523Y-84734047D02*
X97833333Y-84829285D01*
X98738095Y-84495952D02*
X98738095Y-85162619D01*
X98738095Y-84591190D02*
X98785714Y-84543571D01*
X98785714Y-84543571D02*
X98880952Y-84495952D01*
X98880952Y-84495952D02*
X99023809Y-84495952D01*
X99023809Y-84495952D02*
X99119047Y-84543571D01*
X99119047Y-84543571D02*
X99166666Y-84638809D01*
X99166666Y-84638809D02*
X99166666Y-85162619D01*
X99547619Y-84162619D02*
X100166666Y-84162619D01*
X100166666Y-84162619D02*
X99833333Y-84543571D01*
X99833333Y-84543571D02*
X99976190Y-84543571D01*
X99976190Y-84543571D02*
X100071428Y-84591190D01*
X100071428Y-84591190D02*
X100119047Y-84638809D01*
X100119047Y-84638809D02*
X100166666Y-84734047D01*
X100166666Y-84734047D02*
X100166666Y-84972142D01*
X100166666Y-84972142D02*
X100119047Y-85067380D01*
X100119047Y-85067380D02*
X100071428Y-85115000D01*
X100071428Y-85115000D02*
X99976190Y-85162619D01*
X99976190Y-85162619D02*
X99690476Y-85162619D01*
X99690476Y-85162619D02*
X99595238Y-85115000D01*
X99595238Y-85115000D02*
X99547619Y-85067380D01*
X70362619Y-101842856D02*
X69362619Y-101842856D01*
X70362619Y-101414285D02*
X69838809Y-101414285D01*
X69838809Y-101414285D02*
X69743571Y-101461904D01*
X69743571Y-101461904D02*
X69695952Y-101557142D01*
X69695952Y-101557142D02*
X69695952Y-101699999D01*
X69695952Y-101699999D02*
X69743571Y-101795237D01*
X69743571Y-101795237D02*
X69791190Y-101842856D01*
X70362619Y-100509523D02*
X69838809Y-100509523D01*
X69838809Y-100509523D02*
X69743571Y-100557142D01*
X69743571Y-100557142D02*
X69695952Y-100652380D01*
X69695952Y-100652380D02*
X69695952Y-100842856D01*
X69695952Y-100842856D02*
X69743571Y-100938094D01*
X70315000Y-100509523D02*
X70362619Y-100604761D01*
X70362619Y-100604761D02*
X70362619Y-100842856D01*
X70362619Y-100842856D02*
X70315000Y-100938094D01*
X70315000Y-100938094D02*
X70219761Y-100985713D01*
X70219761Y-100985713D02*
X70124523Y-100985713D01*
X70124523Y-100985713D02*
X70029285Y-100938094D01*
X70029285Y-100938094D02*
X69981666Y-100842856D01*
X69981666Y-100842856D02*
X69981666Y-100604761D01*
X69981666Y-100604761D02*
X69934047Y-100509523D01*
X70362619Y-99509523D02*
X70362619Y-100080951D01*
X70362619Y-99795237D02*
X69362619Y-99795237D01*
X69362619Y-99795237D02*
X69505476Y-99890475D01*
X69505476Y-99890475D02*
X69600714Y-99985713D01*
X69600714Y-99985713D02*
X69648333Y-100080951D01*
X103414285Y-87895952D02*
X103414285Y-88562619D01*
X103414285Y-87991190D02*
X103461904Y-87943571D01*
X103461904Y-87943571D02*
X103557142Y-87895952D01*
X103557142Y-87895952D02*
X103699999Y-87895952D01*
X103699999Y-87895952D02*
X103795237Y-87943571D01*
X103795237Y-87943571D02*
X103842856Y-88038809D01*
X103842856Y-88038809D02*
X103842856Y-88562619D01*
X104176190Y-87895952D02*
X104557142Y-87895952D01*
X104319047Y-88562619D02*
X104319047Y-87705476D01*
X104319047Y-87705476D02*
X104366666Y-87610238D01*
X104366666Y-87610238D02*
X104461904Y-87562619D01*
X104461904Y-87562619D02*
X104557142Y-87562619D01*
X104747619Y-87895952D02*
X105128571Y-87895952D01*
X104890476Y-87562619D02*
X104890476Y-88419761D01*
X104890476Y-88419761D02*
X104938095Y-88515000D01*
X104938095Y-88515000D02*
X105033333Y-88562619D01*
X105033333Y-88562619D02*
X105128571Y-88562619D01*
X79495238Y-85115000D02*
X79590476Y-85162619D01*
X79590476Y-85162619D02*
X79780952Y-85162619D01*
X79780952Y-85162619D02*
X79876190Y-85115000D01*
X79876190Y-85115000D02*
X79923809Y-85019761D01*
X79923809Y-85019761D02*
X79923809Y-84972142D01*
X79923809Y-84972142D02*
X79876190Y-84876904D01*
X79876190Y-84876904D02*
X79780952Y-84829285D01*
X79780952Y-84829285D02*
X79638095Y-84829285D01*
X79638095Y-84829285D02*
X79542857Y-84781666D01*
X79542857Y-84781666D02*
X79495238Y-84686428D01*
X79495238Y-84686428D02*
X79495238Y-84638809D01*
X79495238Y-84638809D02*
X79542857Y-84543571D01*
X79542857Y-84543571D02*
X79638095Y-84495952D01*
X79638095Y-84495952D02*
X79780952Y-84495952D01*
X79780952Y-84495952D02*
X79876190Y-84543571D01*
X80780952Y-85115000D02*
X80685714Y-85162619D01*
X80685714Y-85162619D02*
X80495238Y-85162619D01*
X80495238Y-85162619D02*
X80400000Y-85115000D01*
X80400000Y-85115000D02*
X80352381Y-85067380D01*
X80352381Y-85067380D02*
X80304762Y-84972142D01*
X80304762Y-84972142D02*
X80304762Y-84686428D01*
X80304762Y-84686428D02*
X80352381Y-84591190D01*
X80352381Y-84591190D02*
X80400000Y-84543571D01*
X80400000Y-84543571D02*
X80495238Y-84495952D01*
X80495238Y-84495952D02*
X80685714Y-84495952D01*
X80685714Y-84495952D02*
X80780952Y-84543571D01*
X81352381Y-85162619D02*
X81257143Y-85115000D01*
X81257143Y-85115000D02*
X81209524Y-85019761D01*
X81209524Y-85019761D02*
X81209524Y-84162619D01*
X70362619Y-104742856D02*
X69362619Y-104742856D01*
X70362619Y-104314285D02*
X69838809Y-104314285D01*
X69838809Y-104314285D02*
X69743571Y-104361904D01*
X69743571Y-104361904D02*
X69695952Y-104457142D01*
X69695952Y-104457142D02*
X69695952Y-104599999D01*
X69695952Y-104599999D02*
X69743571Y-104695237D01*
X69743571Y-104695237D02*
X69791190Y-104742856D01*
X70362619Y-103409523D02*
X69838809Y-103409523D01*
X69838809Y-103409523D02*
X69743571Y-103457142D01*
X69743571Y-103457142D02*
X69695952Y-103552380D01*
X69695952Y-103552380D02*
X69695952Y-103742856D01*
X69695952Y-103742856D02*
X69743571Y-103838094D01*
X70315000Y-103409523D02*
X70362619Y-103504761D01*
X70362619Y-103504761D02*
X70362619Y-103742856D01*
X70362619Y-103742856D02*
X70315000Y-103838094D01*
X70315000Y-103838094D02*
X70219761Y-103885713D01*
X70219761Y-103885713D02*
X70124523Y-103885713D01*
X70124523Y-103885713D02*
X70029285Y-103838094D01*
X70029285Y-103838094D02*
X69981666Y-103742856D01*
X69981666Y-103742856D02*
X69981666Y-103504761D01*
X69981666Y-103504761D02*
X69934047Y-103409523D01*
X69457857Y-102980951D02*
X69410238Y-102933332D01*
X69410238Y-102933332D02*
X69362619Y-102838094D01*
X69362619Y-102838094D02*
X69362619Y-102599999D01*
X69362619Y-102599999D02*
X69410238Y-102504761D01*
X69410238Y-102504761D02*
X69457857Y-102457142D01*
X69457857Y-102457142D02*
X69553095Y-102409523D01*
X69553095Y-102409523D02*
X69648333Y-102409523D01*
X69648333Y-102409523D02*
X69791190Y-102457142D01*
X69791190Y-102457142D02*
X70362619Y-103028570D01*
X70362619Y-103028570D02*
X70362619Y-102409523D01*
X78657143Y-124762619D02*
X78657143Y-123762619D01*
X79085714Y-124762619D02*
X79085714Y-124238809D01*
X79085714Y-124238809D02*
X79038095Y-124143571D01*
X79038095Y-124143571D02*
X78942857Y-124095952D01*
X78942857Y-124095952D02*
X78800000Y-124095952D01*
X78800000Y-124095952D02*
X78704762Y-124143571D01*
X78704762Y-124143571D02*
X78657143Y-124191190D01*
X79561905Y-124095952D02*
X79561905Y-125095952D01*
X79561905Y-124143571D02*
X79657143Y-124095952D01*
X79657143Y-124095952D02*
X79847619Y-124095952D01*
X79847619Y-124095952D02*
X79942857Y-124143571D01*
X79942857Y-124143571D02*
X79990476Y-124191190D01*
X79990476Y-124191190D02*
X80038095Y-124286428D01*
X80038095Y-124286428D02*
X80038095Y-124572142D01*
X80038095Y-124572142D02*
X79990476Y-124667380D01*
X79990476Y-124667380D02*
X79942857Y-124715000D01*
X79942857Y-124715000D02*
X79847619Y-124762619D01*
X79847619Y-124762619D02*
X79657143Y-124762619D01*
X79657143Y-124762619D02*
X79561905Y-124715000D01*
X80371429Y-123762619D02*
X80990476Y-123762619D01*
X80990476Y-123762619D02*
X80657143Y-124143571D01*
X80657143Y-124143571D02*
X80800000Y-124143571D01*
X80800000Y-124143571D02*
X80895238Y-124191190D01*
X80895238Y-124191190D02*
X80942857Y-124238809D01*
X80942857Y-124238809D02*
X80990476Y-124334047D01*
X80990476Y-124334047D02*
X80990476Y-124572142D01*
X80990476Y-124572142D02*
X80942857Y-124667380D01*
X80942857Y-124667380D02*
X80895238Y-124715000D01*
X80895238Y-124715000D02*
X80800000Y-124762619D01*
X80800000Y-124762619D02*
X80514286Y-124762619D01*
X80514286Y-124762619D02*
X80419048Y-124715000D01*
X80419048Y-124715000D02*
X80371429Y-124667380D01*
X104204762Y-116095952D02*
X104442857Y-116762619D01*
X104442857Y-116762619D02*
X104680952Y-116095952D01*
X105014286Y-116715000D02*
X105109524Y-116762619D01*
X105109524Y-116762619D02*
X105300000Y-116762619D01*
X105300000Y-116762619D02*
X105395238Y-116715000D01*
X105395238Y-116715000D02*
X105442857Y-116619761D01*
X105442857Y-116619761D02*
X105442857Y-116572142D01*
X105442857Y-116572142D02*
X105395238Y-116476904D01*
X105395238Y-116476904D02*
X105300000Y-116429285D01*
X105300000Y-116429285D02*
X105157143Y-116429285D01*
X105157143Y-116429285D02*
X105061905Y-116381666D01*
X105061905Y-116381666D02*
X105014286Y-116286428D01*
X105014286Y-116286428D02*
X105014286Y-116238809D01*
X105014286Y-116238809D02*
X105061905Y-116143571D01*
X105061905Y-116143571D02*
X105157143Y-116095952D01*
X105157143Y-116095952D02*
X105300000Y-116095952D01*
X105300000Y-116095952D02*
X105395238Y-116143571D01*
X105871429Y-116095952D02*
X105871429Y-116762619D01*
X105871429Y-116191190D02*
X105919048Y-116143571D01*
X105919048Y-116143571D02*
X106014286Y-116095952D01*
X106014286Y-116095952D02*
X106157143Y-116095952D01*
X106157143Y-116095952D02*
X106252381Y-116143571D01*
X106252381Y-116143571D02*
X106300000Y-116238809D01*
X106300000Y-116238809D02*
X106300000Y-116762619D01*
%TO.C,R17*%
X122462619Y-111242857D02*
X121986428Y-111576190D01*
X122462619Y-111814285D02*
X121462619Y-111814285D01*
X121462619Y-111814285D02*
X121462619Y-111433333D01*
X121462619Y-111433333D02*
X121510238Y-111338095D01*
X121510238Y-111338095D02*
X121557857Y-111290476D01*
X121557857Y-111290476D02*
X121653095Y-111242857D01*
X121653095Y-111242857D02*
X121795952Y-111242857D01*
X121795952Y-111242857D02*
X121891190Y-111290476D01*
X121891190Y-111290476D02*
X121938809Y-111338095D01*
X121938809Y-111338095D02*
X121986428Y-111433333D01*
X121986428Y-111433333D02*
X121986428Y-111814285D01*
X122462619Y-110290476D02*
X122462619Y-110861904D01*
X122462619Y-110576190D02*
X121462619Y-110576190D01*
X121462619Y-110576190D02*
X121605476Y-110671428D01*
X121605476Y-110671428D02*
X121700714Y-110766666D01*
X121700714Y-110766666D02*
X121748333Y-110861904D01*
X121462619Y-109957142D02*
X121462619Y-109290476D01*
X121462619Y-109290476D02*
X122462619Y-109719047D01*
%TO.C,C2*%
X79333333Y-99867380D02*
X79285714Y-99915000D01*
X79285714Y-99915000D02*
X79142857Y-99962619D01*
X79142857Y-99962619D02*
X79047619Y-99962619D01*
X79047619Y-99962619D02*
X78904762Y-99915000D01*
X78904762Y-99915000D02*
X78809524Y-99819761D01*
X78809524Y-99819761D02*
X78761905Y-99724523D01*
X78761905Y-99724523D02*
X78714286Y-99534047D01*
X78714286Y-99534047D02*
X78714286Y-99391190D01*
X78714286Y-99391190D02*
X78761905Y-99200714D01*
X78761905Y-99200714D02*
X78809524Y-99105476D01*
X78809524Y-99105476D02*
X78904762Y-99010238D01*
X78904762Y-99010238D02*
X79047619Y-98962619D01*
X79047619Y-98962619D02*
X79142857Y-98962619D01*
X79142857Y-98962619D02*
X79285714Y-99010238D01*
X79285714Y-99010238D02*
X79333333Y-99057857D01*
X79714286Y-99057857D02*
X79761905Y-99010238D01*
X79761905Y-99010238D02*
X79857143Y-98962619D01*
X79857143Y-98962619D02*
X80095238Y-98962619D01*
X80095238Y-98962619D02*
X80190476Y-99010238D01*
X80190476Y-99010238D02*
X80238095Y-99057857D01*
X80238095Y-99057857D02*
X80285714Y-99153095D01*
X80285714Y-99153095D02*
X80285714Y-99248333D01*
X80285714Y-99248333D02*
X80238095Y-99391190D01*
X80238095Y-99391190D02*
X79666667Y-99962619D01*
X79666667Y-99962619D02*
X80285714Y-99962619D01*
%TO.C,C16*%
X141167380Y-117742857D02*
X141215000Y-117790476D01*
X141215000Y-117790476D02*
X141262619Y-117933333D01*
X141262619Y-117933333D02*
X141262619Y-118028571D01*
X141262619Y-118028571D02*
X141215000Y-118171428D01*
X141215000Y-118171428D02*
X141119761Y-118266666D01*
X141119761Y-118266666D02*
X141024523Y-118314285D01*
X141024523Y-118314285D02*
X140834047Y-118361904D01*
X140834047Y-118361904D02*
X140691190Y-118361904D01*
X140691190Y-118361904D02*
X140500714Y-118314285D01*
X140500714Y-118314285D02*
X140405476Y-118266666D01*
X140405476Y-118266666D02*
X140310238Y-118171428D01*
X140310238Y-118171428D02*
X140262619Y-118028571D01*
X140262619Y-118028571D02*
X140262619Y-117933333D01*
X140262619Y-117933333D02*
X140310238Y-117790476D01*
X140310238Y-117790476D02*
X140357857Y-117742857D01*
X141262619Y-116790476D02*
X141262619Y-117361904D01*
X141262619Y-117076190D02*
X140262619Y-117076190D01*
X140262619Y-117076190D02*
X140405476Y-117171428D01*
X140405476Y-117171428D02*
X140500714Y-117266666D01*
X140500714Y-117266666D02*
X140548333Y-117361904D01*
X140262619Y-115933333D02*
X140262619Y-116123809D01*
X140262619Y-116123809D02*
X140310238Y-116219047D01*
X140310238Y-116219047D02*
X140357857Y-116266666D01*
X140357857Y-116266666D02*
X140500714Y-116361904D01*
X140500714Y-116361904D02*
X140691190Y-116409523D01*
X140691190Y-116409523D02*
X141072142Y-116409523D01*
X141072142Y-116409523D02*
X141167380Y-116361904D01*
X141167380Y-116361904D02*
X141215000Y-116314285D01*
X141215000Y-116314285D02*
X141262619Y-116219047D01*
X141262619Y-116219047D02*
X141262619Y-116028571D01*
X141262619Y-116028571D02*
X141215000Y-115933333D01*
X141215000Y-115933333D02*
X141167380Y-115885714D01*
X141167380Y-115885714D02*
X141072142Y-115838095D01*
X141072142Y-115838095D02*
X140834047Y-115838095D01*
X140834047Y-115838095D02*
X140738809Y-115885714D01*
X140738809Y-115885714D02*
X140691190Y-115933333D01*
X140691190Y-115933333D02*
X140643571Y-116028571D01*
X140643571Y-116028571D02*
X140643571Y-116219047D01*
X140643571Y-116219047D02*
X140691190Y-116314285D01*
X140691190Y-116314285D02*
X140738809Y-116361904D01*
X140738809Y-116361904D02*
X140834047Y-116409523D01*
%TO.C,R11*%
X79762619Y-122442857D02*
X79286428Y-122776190D01*
X79762619Y-123014285D02*
X78762619Y-123014285D01*
X78762619Y-123014285D02*
X78762619Y-122633333D01*
X78762619Y-122633333D02*
X78810238Y-122538095D01*
X78810238Y-122538095D02*
X78857857Y-122490476D01*
X78857857Y-122490476D02*
X78953095Y-122442857D01*
X78953095Y-122442857D02*
X79095952Y-122442857D01*
X79095952Y-122442857D02*
X79191190Y-122490476D01*
X79191190Y-122490476D02*
X79238809Y-122538095D01*
X79238809Y-122538095D02*
X79286428Y-122633333D01*
X79286428Y-122633333D02*
X79286428Y-123014285D01*
X79762619Y-121490476D02*
X79762619Y-122061904D01*
X79762619Y-121776190D02*
X78762619Y-121776190D01*
X78762619Y-121776190D02*
X78905476Y-121871428D01*
X78905476Y-121871428D02*
X79000714Y-121966666D01*
X79000714Y-121966666D02*
X79048333Y-122061904D01*
X79762619Y-120538095D02*
X79762619Y-121109523D01*
X79762619Y-120823809D02*
X78762619Y-120823809D01*
X78762619Y-120823809D02*
X78905476Y-120919047D01*
X78905476Y-120919047D02*
X79000714Y-121014285D01*
X79000714Y-121014285D02*
X79048333Y-121109523D01*
%TO.C,C6*%
X76767380Y-116866666D02*
X76815000Y-116914285D01*
X76815000Y-116914285D02*
X76862619Y-117057142D01*
X76862619Y-117057142D02*
X76862619Y-117152380D01*
X76862619Y-117152380D02*
X76815000Y-117295237D01*
X76815000Y-117295237D02*
X76719761Y-117390475D01*
X76719761Y-117390475D02*
X76624523Y-117438094D01*
X76624523Y-117438094D02*
X76434047Y-117485713D01*
X76434047Y-117485713D02*
X76291190Y-117485713D01*
X76291190Y-117485713D02*
X76100714Y-117438094D01*
X76100714Y-117438094D02*
X76005476Y-117390475D01*
X76005476Y-117390475D02*
X75910238Y-117295237D01*
X75910238Y-117295237D02*
X75862619Y-117152380D01*
X75862619Y-117152380D02*
X75862619Y-117057142D01*
X75862619Y-117057142D02*
X75910238Y-116914285D01*
X75910238Y-116914285D02*
X75957857Y-116866666D01*
X75862619Y-116009523D02*
X75862619Y-116199999D01*
X75862619Y-116199999D02*
X75910238Y-116295237D01*
X75910238Y-116295237D02*
X75957857Y-116342856D01*
X75957857Y-116342856D02*
X76100714Y-116438094D01*
X76100714Y-116438094D02*
X76291190Y-116485713D01*
X76291190Y-116485713D02*
X76672142Y-116485713D01*
X76672142Y-116485713D02*
X76767380Y-116438094D01*
X76767380Y-116438094D02*
X76815000Y-116390475D01*
X76815000Y-116390475D02*
X76862619Y-116295237D01*
X76862619Y-116295237D02*
X76862619Y-116104761D01*
X76862619Y-116104761D02*
X76815000Y-116009523D01*
X76815000Y-116009523D02*
X76767380Y-115961904D01*
X76767380Y-115961904D02*
X76672142Y-115914285D01*
X76672142Y-115914285D02*
X76434047Y-115914285D01*
X76434047Y-115914285D02*
X76338809Y-115961904D01*
X76338809Y-115961904D02*
X76291190Y-116009523D01*
X76291190Y-116009523D02*
X76243571Y-116104761D01*
X76243571Y-116104761D02*
X76243571Y-116295237D01*
X76243571Y-116295237D02*
X76291190Y-116390475D01*
X76291190Y-116390475D02*
X76338809Y-116438094D01*
X76338809Y-116438094D02*
X76434047Y-116485713D01*
%TO.C,Q4*%
X115457857Y-124995238D02*
X115410238Y-125090476D01*
X115410238Y-125090476D02*
X115315000Y-125185714D01*
X115315000Y-125185714D02*
X115172142Y-125328571D01*
X115172142Y-125328571D02*
X115124523Y-125423809D01*
X115124523Y-125423809D02*
X115124523Y-125519047D01*
X115362619Y-125471428D02*
X115315000Y-125566666D01*
X115315000Y-125566666D02*
X115219761Y-125661904D01*
X115219761Y-125661904D02*
X115029285Y-125709523D01*
X115029285Y-125709523D02*
X114695952Y-125709523D01*
X114695952Y-125709523D02*
X114505476Y-125661904D01*
X114505476Y-125661904D02*
X114410238Y-125566666D01*
X114410238Y-125566666D02*
X114362619Y-125471428D01*
X114362619Y-125471428D02*
X114362619Y-125280952D01*
X114362619Y-125280952D02*
X114410238Y-125185714D01*
X114410238Y-125185714D02*
X114505476Y-125090476D01*
X114505476Y-125090476D02*
X114695952Y-125042857D01*
X114695952Y-125042857D02*
X115029285Y-125042857D01*
X115029285Y-125042857D02*
X115219761Y-125090476D01*
X115219761Y-125090476D02*
X115315000Y-125185714D01*
X115315000Y-125185714D02*
X115362619Y-125280952D01*
X115362619Y-125280952D02*
X115362619Y-125471428D01*
X114695952Y-124185714D02*
X115362619Y-124185714D01*
X114315000Y-124423809D02*
X115029285Y-124661904D01*
X115029285Y-124661904D02*
X115029285Y-124042857D01*
%TO.C,R9*%
X81262619Y-109866666D02*
X80786428Y-110199999D01*
X81262619Y-110438094D02*
X80262619Y-110438094D01*
X80262619Y-110438094D02*
X80262619Y-110057142D01*
X80262619Y-110057142D02*
X80310238Y-109961904D01*
X80310238Y-109961904D02*
X80357857Y-109914285D01*
X80357857Y-109914285D02*
X80453095Y-109866666D01*
X80453095Y-109866666D02*
X80595952Y-109866666D01*
X80595952Y-109866666D02*
X80691190Y-109914285D01*
X80691190Y-109914285D02*
X80738809Y-109961904D01*
X80738809Y-109961904D02*
X80786428Y-110057142D01*
X80786428Y-110057142D02*
X80786428Y-110438094D01*
X81262619Y-109390475D02*
X81262619Y-109199999D01*
X81262619Y-109199999D02*
X81215000Y-109104761D01*
X81215000Y-109104761D02*
X81167380Y-109057142D01*
X81167380Y-109057142D02*
X81024523Y-108961904D01*
X81024523Y-108961904D02*
X80834047Y-108914285D01*
X80834047Y-108914285D02*
X80453095Y-108914285D01*
X80453095Y-108914285D02*
X80357857Y-108961904D01*
X80357857Y-108961904D02*
X80310238Y-109009523D01*
X80310238Y-109009523D02*
X80262619Y-109104761D01*
X80262619Y-109104761D02*
X80262619Y-109295237D01*
X80262619Y-109295237D02*
X80310238Y-109390475D01*
X80310238Y-109390475D02*
X80357857Y-109438094D01*
X80357857Y-109438094D02*
X80453095Y-109485713D01*
X80453095Y-109485713D02*
X80691190Y-109485713D01*
X80691190Y-109485713D02*
X80786428Y-109438094D01*
X80786428Y-109438094D02*
X80834047Y-109390475D01*
X80834047Y-109390475D02*
X80881666Y-109295237D01*
X80881666Y-109295237D02*
X80881666Y-109104761D01*
X80881666Y-109104761D02*
X80834047Y-109009523D01*
X80834047Y-109009523D02*
X80786428Y-108961904D01*
X80786428Y-108961904D02*
X80691190Y-108914285D01*
%TO.C,R6*%
X81262619Y-104766666D02*
X80786428Y-105099999D01*
X81262619Y-105338094D02*
X80262619Y-105338094D01*
X80262619Y-105338094D02*
X80262619Y-104957142D01*
X80262619Y-104957142D02*
X80310238Y-104861904D01*
X80310238Y-104861904D02*
X80357857Y-104814285D01*
X80357857Y-104814285D02*
X80453095Y-104766666D01*
X80453095Y-104766666D02*
X80595952Y-104766666D01*
X80595952Y-104766666D02*
X80691190Y-104814285D01*
X80691190Y-104814285D02*
X80738809Y-104861904D01*
X80738809Y-104861904D02*
X80786428Y-104957142D01*
X80786428Y-104957142D02*
X80786428Y-105338094D01*
X80262619Y-103909523D02*
X80262619Y-104099999D01*
X80262619Y-104099999D02*
X80310238Y-104195237D01*
X80310238Y-104195237D02*
X80357857Y-104242856D01*
X80357857Y-104242856D02*
X80500714Y-104338094D01*
X80500714Y-104338094D02*
X80691190Y-104385713D01*
X80691190Y-104385713D02*
X81072142Y-104385713D01*
X81072142Y-104385713D02*
X81167380Y-104338094D01*
X81167380Y-104338094D02*
X81215000Y-104290475D01*
X81215000Y-104290475D02*
X81262619Y-104195237D01*
X81262619Y-104195237D02*
X81262619Y-104004761D01*
X81262619Y-104004761D02*
X81215000Y-103909523D01*
X81215000Y-103909523D02*
X81167380Y-103861904D01*
X81167380Y-103861904D02*
X81072142Y-103814285D01*
X81072142Y-103814285D02*
X80834047Y-103814285D01*
X80834047Y-103814285D02*
X80738809Y-103861904D01*
X80738809Y-103861904D02*
X80691190Y-103909523D01*
X80691190Y-103909523D02*
X80643571Y-104004761D01*
X80643571Y-104004761D02*
X80643571Y-104195237D01*
X80643571Y-104195237D02*
X80691190Y-104290475D01*
X80691190Y-104290475D02*
X80738809Y-104338094D01*
X80738809Y-104338094D02*
X80834047Y-104385713D01*
%TO.C,J3*%
X69766666Y-118862619D02*
X69766666Y-119576904D01*
X69766666Y-119576904D02*
X69719047Y-119719761D01*
X69719047Y-119719761D02*
X69623809Y-119815000D01*
X69623809Y-119815000D02*
X69480952Y-119862619D01*
X69480952Y-119862619D02*
X69385714Y-119862619D01*
X70147619Y-118862619D02*
X70766666Y-118862619D01*
X70766666Y-118862619D02*
X70433333Y-119243571D01*
X70433333Y-119243571D02*
X70576190Y-119243571D01*
X70576190Y-119243571D02*
X70671428Y-119291190D01*
X70671428Y-119291190D02*
X70719047Y-119338809D01*
X70719047Y-119338809D02*
X70766666Y-119434047D01*
X70766666Y-119434047D02*
X70766666Y-119672142D01*
X70766666Y-119672142D02*
X70719047Y-119767380D01*
X70719047Y-119767380D02*
X70671428Y-119815000D01*
X70671428Y-119815000D02*
X70576190Y-119862619D01*
X70576190Y-119862619D02*
X70290476Y-119862619D01*
X70290476Y-119862619D02*
X70195238Y-119815000D01*
X70195238Y-119815000D02*
X70147619Y-119767380D01*
%TO.C,C13*%
X119057142Y-104867380D02*
X119009523Y-104915000D01*
X119009523Y-104915000D02*
X118866666Y-104962619D01*
X118866666Y-104962619D02*
X118771428Y-104962619D01*
X118771428Y-104962619D02*
X118628571Y-104915000D01*
X118628571Y-104915000D02*
X118533333Y-104819761D01*
X118533333Y-104819761D02*
X118485714Y-104724523D01*
X118485714Y-104724523D02*
X118438095Y-104534047D01*
X118438095Y-104534047D02*
X118438095Y-104391190D01*
X118438095Y-104391190D02*
X118485714Y-104200714D01*
X118485714Y-104200714D02*
X118533333Y-104105476D01*
X118533333Y-104105476D02*
X118628571Y-104010238D01*
X118628571Y-104010238D02*
X118771428Y-103962619D01*
X118771428Y-103962619D02*
X118866666Y-103962619D01*
X118866666Y-103962619D02*
X119009523Y-104010238D01*
X119009523Y-104010238D02*
X119057142Y-104057857D01*
X120009523Y-104962619D02*
X119438095Y-104962619D01*
X119723809Y-104962619D02*
X119723809Y-103962619D01*
X119723809Y-103962619D02*
X119628571Y-104105476D01*
X119628571Y-104105476D02*
X119533333Y-104200714D01*
X119533333Y-104200714D02*
X119438095Y-104248333D01*
X120342857Y-103962619D02*
X120961904Y-103962619D01*
X120961904Y-103962619D02*
X120628571Y-104343571D01*
X120628571Y-104343571D02*
X120771428Y-104343571D01*
X120771428Y-104343571D02*
X120866666Y-104391190D01*
X120866666Y-104391190D02*
X120914285Y-104438809D01*
X120914285Y-104438809D02*
X120961904Y-104534047D01*
X120961904Y-104534047D02*
X120961904Y-104772142D01*
X120961904Y-104772142D02*
X120914285Y-104867380D01*
X120914285Y-104867380D02*
X120866666Y-104915000D01*
X120866666Y-104915000D02*
X120771428Y-104962619D01*
X120771428Y-104962619D02*
X120485714Y-104962619D01*
X120485714Y-104962619D02*
X120390476Y-104915000D01*
X120390476Y-104915000D02*
X120342857Y-104867380D01*
%TO.C,R19*%
X123862619Y-111242857D02*
X123386428Y-111576190D01*
X123862619Y-111814285D02*
X122862619Y-111814285D01*
X122862619Y-111814285D02*
X122862619Y-111433333D01*
X122862619Y-111433333D02*
X122910238Y-111338095D01*
X122910238Y-111338095D02*
X122957857Y-111290476D01*
X122957857Y-111290476D02*
X123053095Y-111242857D01*
X123053095Y-111242857D02*
X123195952Y-111242857D01*
X123195952Y-111242857D02*
X123291190Y-111290476D01*
X123291190Y-111290476D02*
X123338809Y-111338095D01*
X123338809Y-111338095D02*
X123386428Y-111433333D01*
X123386428Y-111433333D02*
X123386428Y-111814285D01*
X123862619Y-110290476D02*
X123862619Y-110861904D01*
X123862619Y-110576190D02*
X122862619Y-110576190D01*
X122862619Y-110576190D02*
X123005476Y-110671428D01*
X123005476Y-110671428D02*
X123100714Y-110766666D01*
X123100714Y-110766666D02*
X123148333Y-110861904D01*
X123862619Y-109814285D02*
X123862619Y-109623809D01*
X123862619Y-109623809D02*
X123815000Y-109528571D01*
X123815000Y-109528571D02*
X123767380Y-109480952D01*
X123767380Y-109480952D02*
X123624523Y-109385714D01*
X123624523Y-109385714D02*
X123434047Y-109338095D01*
X123434047Y-109338095D02*
X123053095Y-109338095D01*
X123053095Y-109338095D02*
X122957857Y-109385714D01*
X122957857Y-109385714D02*
X122910238Y-109433333D01*
X122910238Y-109433333D02*
X122862619Y-109528571D01*
X122862619Y-109528571D02*
X122862619Y-109719047D01*
X122862619Y-109719047D02*
X122910238Y-109814285D01*
X122910238Y-109814285D02*
X122957857Y-109861904D01*
X122957857Y-109861904D02*
X123053095Y-109909523D01*
X123053095Y-109909523D02*
X123291190Y-109909523D01*
X123291190Y-109909523D02*
X123386428Y-109861904D01*
X123386428Y-109861904D02*
X123434047Y-109814285D01*
X123434047Y-109814285D02*
X123481666Y-109719047D01*
X123481666Y-109719047D02*
X123481666Y-109528571D01*
X123481666Y-109528571D02*
X123434047Y-109433333D01*
X123434047Y-109433333D02*
X123386428Y-109385714D01*
X123386428Y-109385714D02*
X123291190Y-109338095D01*
%TO.C,C8*%
X134233333Y-121147380D02*
X134185714Y-121195000D01*
X134185714Y-121195000D02*
X134042857Y-121242619D01*
X134042857Y-121242619D02*
X133947619Y-121242619D01*
X133947619Y-121242619D02*
X133804762Y-121195000D01*
X133804762Y-121195000D02*
X133709524Y-121099761D01*
X133709524Y-121099761D02*
X133661905Y-121004523D01*
X133661905Y-121004523D02*
X133614286Y-120814047D01*
X133614286Y-120814047D02*
X133614286Y-120671190D01*
X133614286Y-120671190D02*
X133661905Y-120480714D01*
X133661905Y-120480714D02*
X133709524Y-120385476D01*
X133709524Y-120385476D02*
X133804762Y-120290238D01*
X133804762Y-120290238D02*
X133947619Y-120242619D01*
X133947619Y-120242619D02*
X134042857Y-120242619D01*
X134042857Y-120242619D02*
X134185714Y-120290238D01*
X134185714Y-120290238D02*
X134233333Y-120337857D01*
X134804762Y-120671190D02*
X134709524Y-120623571D01*
X134709524Y-120623571D02*
X134661905Y-120575952D01*
X134661905Y-120575952D02*
X134614286Y-120480714D01*
X134614286Y-120480714D02*
X134614286Y-120433095D01*
X134614286Y-120433095D02*
X134661905Y-120337857D01*
X134661905Y-120337857D02*
X134709524Y-120290238D01*
X134709524Y-120290238D02*
X134804762Y-120242619D01*
X134804762Y-120242619D02*
X134995238Y-120242619D01*
X134995238Y-120242619D02*
X135090476Y-120290238D01*
X135090476Y-120290238D02*
X135138095Y-120337857D01*
X135138095Y-120337857D02*
X135185714Y-120433095D01*
X135185714Y-120433095D02*
X135185714Y-120480714D01*
X135185714Y-120480714D02*
X135138095Y-120575952D01*
X135138095Y-120575952D02*
X135090476Y-120623571D01*
X135090476Y-120623571D02*
X134995238Y-120671190D01*
X134995238Y-120671190D02*
X134804762Y-120671190D01*
X134804762Y-120671190D02*
X134709524Y-120718809D01*
X134709524Y-120718809D02*
X134661905Y-120766428D01*
X134661905Y-120766428D02*
X134614286Y-120861666D01*
X134614286Y-120861666D02*
X134614286Y-121052142D01*
X134614286Y-121052142D02*
X134661905Y-121147380D01*
X134661905Y-121147380D02*
X134709524Y-121195000D01*
X134709524Y-121195000D02*
X134804762Y-121242619D01*
X134804762Y-121242619D02*
X134995238Y-121242619D01*
X134995238Y-121242619D02*
X135090476Y-121195000D01*
X135090476Y-121195000D02*
X135138095Y-121147380D01*
X135138095Y-121147380D02*
X135185714Y-121052142D01*
X135185714Y-121052142D02*
X135185714Y-120861666D01*
X135185714Y-120861666D02*
X135138095Y-120766428D01*
X135138095Y-120766428D02*
X135090476Y-120718809D01*
X135090476Y-120718809D02*
X134995238Y-120671190D01*
%TO.C,R28*%
X124562619Y-92142857D02*
X124086428Y-92476190D01*
X124562619Y-92714285D02*
X123562619Y-92714285D01*
X123562619Y-92714285D02*
X123562619Y-92333333D01*
X123562619Y-92333333D02*
X123610238Y-92238095D01*
X123610238Y-92238095D02*
X123657857Y-92190476D01*
X123657857Y-92190476D02*
X123753095Y-92142857D01*
X123753095Y-92142857D02*
X123895952Y-92142857D01*
X123895952Y-92142857D02*
X123991190Y-92190476D01*
X123991190Y-92190476D02*
X124038809Y-92238095D01*
X124038809Y-92238095D02*
X124086428Y-92333333D01*
X124086428Y-92333333D02*
X124086428Y-92714285D01*
X123657857Y-91761904D02*
X123610238Y-91714285D01*
X123610238Y-91714285D02*
X123562619Y-91619047D01*
X123562619Y-91619047D02*
X123562619Y-91380952D01*
X123562619Y-91380952D02*
X123610238Y-91285714D01*
X123610238Y-91285714D02*
X123657857Y-91238095D01*
X123657857Y-91238095D02*
X123753095Y-91190476D01*
X123753095Y-91190476D02*
X123848333Y-91190476D01*
X123848333Y-91190476D02*
X123991190Y-91238095D01*
X123991190Y-91238095D02*
X124562619Y-91809523D01*
X124562619Y-91809523D02*
X124562619Y-91190476D01*
X123991190Y-90619047D02*
X123943571Y-90714285D01*
X123943571Y-90714285D02*
X123895952Y-90761904D01*
X123895952Y-90761904D02*
X123800714Y-90809523D01*
X123800714Y-90809523D02*
X123753095Y-90809523D01*
X123753095Y-90809523D02*
X123657857Y-90761904D01*
X123657857Y-90761904D02*
X123610238Y-90714285D01*
X123610238Y-90714285D02*
X123562619Y-90619047D01*
X123562619Y-90619047D02*
X123562619Y-90428571D01*
X123562619Y-90428571D02*
X123610238Y-90333333D01*
X123610238Y-90333333D02*
X123657857Y-90285714D01*
X123657857Y-90285714D02*
X123753095Y-90238095D01*
X123753095Y-90238095D02*
X123800714Y-90238095D01*
X123800714Y-90238095D02*
X123895952Y-90285714D01*
X123895952Y-90285714D02*
X123943571Y-90333333D01*
X123943571Y-90333333D02*
X123991190Y-90428571D01*
X123991190Y-90428571D02*
X123991190Y-90619047D01*
X123991190Y-90619047D02*
X124038809Y-90714285D01*
X124038809Y-90714285D02*
X124086428Y-90761904D01*
X124086428Y-90761904D02*
X124181666Y-90809523D01*
X124181666Y-90809523D02*
X124372142Y-90809523D01*
X124372142Y-90809523D02*
X124467380Y-90761904D01*
X124467380Y-90761904D02*
X124515000Y-90714285D01*
X124515000Y-90714285D02*
X124562619Y-90619047D01*
X124562619Y-90619047D02*
X124562619Y-90428571D01*
X124562619Y-90428571D02*
X124515000Y-90333333D01*
X124515000Y-90333333D02*
X124467380Y-90285714D01*
X124467380Y-90285714D02*
X124372142Y-90238095D01*
X124372142Y-90238095D02*
X124181666Y-90238095D01*
X124181666Y-90238095D02*
X124086428Y-90285714D01*
X124086428Y-90285714D02*
X124038809Y-90333333D01*
X124038809Y-90333333D02*
X123991190Y-90428571D01*
%TO.C,R5*%
X110962619Y-118266666D02*
X110486428Y-118599999D01*
X110962619Y-118838094D02*
X109962619Y-118838094D01*
X109962619Y-118838094D02*
X109962619Y-118457142D01*
X109962619Y-118457142D02*
X110010238Y-118361904D01*
X110010238Y-118361904D02*
X110057857Y-118314285D01*
X110057857Y-118314285D02*
X110153095Y-118266666D01*
X110153095Y-118266666D02*
X110295952Y-118266666D01*
X110295952Y-118266666D02*
X110391190Y-118314285D01*
X110391190Y-118314285D02*
X110438809Y-118361904D01*
X110438809Y-118361904D02*
X110486428Y-118457142D01*
X110486428Y-118457142D02*
X110486428Y-118838094D01*
X109962619Y-117361904D02*
X109962619Y-117838094D01*
X109962619Y-117838094D02*
X110438809Y-117885713D01*
X110438809Y-117885713D02*
X110391190Y-117838094D01*
X110391190Y-117838094D02*
X110343571Y-117742856D01*
X110343571Y-117742856D02*
X110343571Y-117504761D01*
X110343571Y-117504761D02*
X110391190Y-117409523D01*
X110391190Y-117409523D02*
X110438809Y-117361904D01*
X110438809Y-117361904D02*
X110534047Y-117314285D01*
X110534047Y-117314285D02*
X110772142Y-117314285D01*
X110772142Y-117314285D02*
X110867380Y-117361904D01*
X110867380Y-117361904D02*
X110915000Y-117409523D01*
X110915000Y-117409523D02*
X110962619Y-117504761D01*
X110962619Y-117504761D02*
X110962619Y-117742856D01*
X110962619Y-117742856D02*
X110915000Y-117838094D01*
X110915000Y-117838094D02*
X110867380Y-117885713D01*
%TO.C,C7*%
X81267380Y-114966666D02*
X81315000Y-115014285D01*
X81315000Y-115014285D02*
X81362619Y-115157142D01*
X81362619Y-115157142D02*
X81362619Y-115252380D01*
X81362619Y-115252380D02*
X81315000Y-115395237D01*
X81315000Y-115395237D02*
X81219761Y-115490475D01*
X81219761Y-115490475D02*
X81124523Y-115538094D01*
X81124523Y-115538094D02*
X80934047Y-115585713D01*
X80934047Y-115585713D02*
X80791190Y-115585713D01*
X80791190Y-115585713D02*
X80600714Y-115538094D01*
X80600714Y-115538094D02*
X80505476Y-115490475D01*
X80505476Y-115490475D02*
X80410238Y-115395237D01*
X80410238Y-115395237D02*
X80362619Y-115252380D01*
X80362619Y-115252380D02*
X80362619Y-115157142D01*
X80362619Y-115157142D02*
X80410238Y-115014285D01*
X80410238Y-115014285D02*
X80457857Y-114966666D01*
X80362619Y-114633332D02*
X80362619Y-113966666D01*
X80362619Y-113966666D02*
X81362619Y-114395237D01*
%TO.C,R12*%
X118857142Y-131762619D02*
X118523809Y-131286428D01*
X118285714Y-131762619D02*
X118285714Y-130762619D01*
X118285714Y-130762619D02*
X118666666Y-130762619D01*
X118666666Y-130762619D02*
X118761904Y-130810238D01*
X118761904Y-130810238D02*
X118809523Y-130857857D01*
X118809523Y-130857857D02*
X118857142Y-130953095D01*
X118857142Y-130953095D02*
X118857142Y-131095952D01*
X118857142Y-131095952D02*
X118809523Y-131191190D01*
X118809523Y-131191190D02*
X118761904Y-131238809D01*
X118761904Y-131238809D02*
X118666666Y-131286428D01*
X118666666Y-131286428D02*
X118285714Y-131286428D01*
X119809523Y-131762619D02*
X119238095Y-131762619D01*
X119523809Y-131762619D02*
X119523809Y-130762619D01*
X119523809Y-130762619D02*
X119428571Y-130905476D01*
X119428571Y-130905476D02*
X119333333Y-131000714D01*
X119333333Y-131000714D02*
X119238095Y-131048333D01*
X120190476Y-130857857D02*
X120238095Y-130810238D01*
X120238095Y-130810238D02*
X120333333Y-130762619D01*
X120333333Y-130762619D02*
X120571428Y-130762619D01*
X120571428Y-130762619D02*
X120666666Y-130810238D01*
X120666666Y-130810238D02*
X120714285Y-130857857D01*
X120714285Y-130857857D02*
X120761904Y-130953095D01*
X120761904Y-130953095D02*
X120761904Y-131048333D01*
X120761904Y-131048333D02*
X120714285Y-131191190D01*
X120714285Y-131191190D02*
X120142857Y-131762619D01*
X120142857Y-131762619D02*
X120761904Y-131762619D01*
%TO.C,R24*%
X129557142Y-103562619D02*
X129223809Y-103086428D01*
X128985714Y-103562619D02*
X128985714Y-102562619D01*
X128985714Y-102562619D02*
X129366666Y-102562619D01*
X129366666Y-102562619D02*
X129461904Y-102610238D01*
X129461904Y-102610238D02*
X129509523Y-102657857D01*
X129509523Y-102657857D02*
X129557142Y-102753095D01*
X129557142Y-102753095D02*
X129557142Y-102895952D01*
X129557142Y-102895952D02*
X129509523Y-102991190D01*
X129509523Y-102991190D02*
X129461904Y-103038809D01*
X129461904Y-103038809D02*
X129366666Y-103086428D01*
X129366666Y-103086428D02*
X128985714Y-103086428D01*
X129938095Y-102657857D02*
X129985714Y-102610238D01*
X129985714Y-102610238D02*
X130080952Y-102562619D01*
X130080952Y-102562619D02*
X130319047Y-102562619D01*
X130319047Y-102562619D02*
X130414285Y-102610238D01*
X130414285Y-102610238D02*
X130461904Y-102657857D01*
X130461904Y-102657857D02*
X130509523Y-102753095D01*
X130509523Y-102753095D02*
X130509523Y-102848333D01*
X130509523Y-102848333D02*
X130461904Y-102991190D01*
X130461904Y-102991190D02*
X129890476Y-103562619D01*
X129890476Y-103562619D02*
X130509523Y-103562619D01*
X131366666Y-102895952D02*
X131366666Y-103562619D01*
X131128571Y-102515000D02*
X130890476Y-103229285D01*
X130890476Y-103229285D02*
X131509523Y-103229285D01*
%TO.C,C9*%
X111533333Y-111867380D02*
X111485714Y-111915000D01*
X111485714Y-111915000D02*
X111342857Y-111962619D01*
X111342857Y-111962619D02*
X111247619Y-111962619D01*
X111247619Y-111962619D02*
X111104762Y-111915000D01*
X111104762Y-111915000D02*
X111009524Y-111819761D01*
X111009524Y-111819761D02*
X110961905Y-111724523D01*
X110961905Y-111724523D02*
X110914286Y-111534047D01*
X110914286Y-111534047D02*
X110914286Y-111391190D01*
X110914286Y-111391190D02*
X110961905Y-111200714D01*
X110961905Y-111200714D02*
X111009524Y-111105476D01*
X111009524Y-111105476D02*
X111104762Y-111010238D01*
X111104762Y-111010238D02*
X111247619Y-110962619D01*
X111247619Y-110962619D02*
X111342857Y-110962619D01*
X111342857Y-110962619D02*
X111485714Y-111010238D01*
X111485714Y-111010238D02*
X111533333Y-111057857D01*
X112009524Y-111962619D02*
X112200000Y-111962619D01*
X112200000Y-111962619D02*
X112295238Y-111915000D01*
X112295238Y-111915000D02*
X112342857Y-111867380D01*
X112342857Y-111867380D02*
X112438095Y-111724523D01*
X112438095Y-111724523D02*
X112485714Y-111534047D01*
X112485714Y-111534047D02*
X112485714Y-111153095D01*
X112485714Y-111153095D02*
X112438095Y-111057857D01*
X112438095Y-111057857D02*
X112390476Y-111010238D01*
X112390476Y-111010238D02*
X112295238Y-110962619D01*
X112295238Y-110962619D02*
X112104762Y-110962619D01*
X112104762Y-110962619D02*
X112009524Y-111010238D01*
X112009524Y-111010238D02*
X111961905Y-111057857D01*
X111961905Y-111057857D02*
X111914286Y-111153095D01*
X111914286Y-111153095D02*
X111914286Y-111391190D01*
X111914286Y-111391190D02*
X111961905Y-111486428D01*
X111961905Y-111486428D02*
X112009524Y-111534047D01*
X112009524Y-111534047D02*
X112104762Y-111581666D01*
X112104762Y-111581666D02*
X112295238Y-111581666D01*
X112295238Y-111581666D02*
X112390476Y-111534047D01*
X112390476Y-111534047D02*
X112438095Y-111486428D01*
X112438095Y-111486428D02*
X112485714Y-111391190D01*
%TO.C,C4*%
X76767380Y-110566666D02*
X76815000Y-110614285D01*
X76815000Y-110614285D02*
X76862619Y-110757142D01*
X76862619Y-110757142D02*
X76862619Y-110852380D01*
X76862619Y-110852380D02*
X76815000Y-110995237D01*
X76815000Y-110995237D02*
X76719761Y-111090475D01*
X76719761Y-111090475D02*
X76624523Y-111138094D01*
X76624523Y-111138094D02*
X76434047Y-111185713D01*
X76434047Y-111185713D02*
X76291190Y-111185713D01*
X76291190Y-111185713D02*
X76100714Y-111138094D01*
X76100714Y-111138094D02*
X76005476Y-111090475D01*
X76005476Y-111090475D02*
X75910238Y-110995237D01*
X75910238Y-110995237D02*
X75862619Y-110852380D01*
X75862619Y-110852380D02*
X75862619Y-110757142D01*
X75862619Y-110757142D02*
X75910238Y-110614285D01*
X75910238Y-110614285D02*
X75957857Y-110566666D01*
X76195952Y-109709523D02*
X76862619Y-109709523D01*
X75815000Y-109947618D02*
X76529285Y-110185713D01*
X76529285Y-110185713D02*
X76529285Y-109566666D01*
%TO.C,C17*%
X116774880Y-96442857D02*
X116822500Y-96490476D01*
X116822500Y-96490476D02*
X116870119Y-96633333D01*
X116870119Y-96633333D02*
X116870119Y-96728571D01*
X116870119Y-96728571D02*
X116822500Y-96871428D01*
X116822500Y-96871428D02*
X116727261Y-96966666D01*
X116727261Y-96966666D02*
X116632023Y-97014285D01*
X116632023Y-97014285D02*
X116441547Y-97061904D01*
X116441547Y-97061904D02*
X116298690Y-97061904D01*
X116298690Y-97061904D02*
X116108214Y-97014285D01*
X116108214Y-97014285D02*
X116012976Y-96966666D01*
X116012976Y-96966666D02*
X115917738Y-96871428D01*
X115917738Y-96871428D02*
X115870119Y-96728571D01*
X115870119Y-96728571D02*
X115870119Y-96633333D01*
X115870119Y-96633333D02*
X115917738Y-96490476D01*
X115917738Y-96490476D02*
X115965357Y-96442857D01*
X116870119Y-95490476D02*
X116870119Y-96061904D01*
X116870119Y-95776190D02*
X115870119Y-95776190D01*
X115870119Y-95776190D02*
X116012976Y-95871428D01*
X116012976Y-95871428D02*
X116108214Y-95966666D01*
X116108214Y-95966666D02*
X116155833Y-96061904D01*
X115870119Y-95157142D02*
X115870119Y-94490476D01*
X115870119Y-94490476D02*
X116870119Y-94919047D01*
%TO.C,D4*%
X140362619Y-92138094D02*
X139362619Y-92138094D01*
X139362619Y-92138094D02*
X139362619Y-91899999D01*
X139362619Y-91899999D02*
X139410238Y-91757142D01*
X139410238Y-91757142D02*
X139505476Y-91661904D01*
X139505476Y-91661904D02*
X139600714Y-91614285D01*
X139600714Y-91614285D02*
X139791190Y-91566666D01*
X139791190Y-91566666D02*
X139934047Y-91566666D01*
X139934047Y-91566666D02*
X140124523Y-91614285D01*
X140124523Y-91614285D02*
X140219761Y-91661904D01*
X140219761Y-91661904D02*
X140315000Y-91757142D01*
X140315000Y-91757142D02*
X140362619Y-91899999D01*
X140362619Y-91899999D02*
X140362619Y-92138094D01*
X139695952Y-90709523D02*
X140362619Y-90709523D01*
X139315000Y-90947618D02*
X140029285Y-91185713D01*
X140029285Y-91185713D02*
X140029285Y-90566666D01*
%TO.C,U3*%
X131438095Y-111562619D02*
X131438095Y-112372142D01*
X131438095Y-112372142D02*
X131485714Y-112467380D01*
X131485714Y-112467380D02*
X131533333Y-112515000D01*
X131533333Y-112515000D02*
X131628571Y-112562619D01*
X131628571Y-112562619D02*
X131819047Y-112562619D01*
X131819047Y-112562619D02*
X131914285Y-112515000D01*
X131914285Y-112515000D02*
X131961904Y-112467380D01*
X131961904Y-112467380D02*
X132009523Y-112372142D01*
X132009523Y-112372142D02*
X132009523Y-111562619D01*
X132390476Y-111562619D02*
X133009523Y-111562619D01*
X133009523Y-111562619D02*
X132676190Y-111943571D01*
X132676190Y-111943571D02*
X132819047Y-111943571D01*
X132819047Y-111943571D02*
X132914285Y-111991190D01*
X132914285Y-111991190D02*
X132961904Y-112038809D01*
X132961904Y-112038809D02*
X133009523Y-112134047D01*
X133009523Y-112134047D02*
X133009523Y-112372142D01*
X133009523Y-112372142D02*
X132961904Y-112467380D01*
X132961904Y-112467380D02*
X132914285Y-112515000D01*
X132914285Y-112515000D02*
X132819047Y-112562619D01*
X132819047Y-112562619D02*
X132533333Y-112562619D01*
X132533333Y-112562619D02*
X132438095Y-112515000D01*
X132438095Y-112515000D02*
X132390476Y-112467380D01*
%TO.C,C1*%
X107133333Y-132967380D02*
X107085714Y-133015000D01*
X107085714Y-133015000D02*
X106942857Y-133062619D01*
X106942857Y-133062619D02*
X106847619Y-133062619D01*
X106847619Y-133062619D02*
X106704762Y-133015000D01*
X106704762Y-133015000D02*
X106609524Y-132919761D01*
X106609524Y-132919761D02*
X106561905Y-132824523D01*
X106561905Y-132824523D02*
X106514286Y-132634047D01*
X106514286Y-132634047D02*
X106514286Y-132491190D01*
X106514286Y-132491190D02*
X106561905Y-132300714D01*
X106561905Y-132300714D02*
X106609524Y-132205476D01*
X106609524Y-132205476D02*
X106704762Y-132110238D01*
X106704762Y-132110238D02*
X106847619Y-132062619D01*
X106847619Y-132062619D02*
X106942857Y-132062619D01*
X106942857Y-132062619D02*
X107085714Y-132110238D01*
X107085714Y-132110238D02*
X107133333Y-132157857D01*
X108085714Y-133062619D02*
X107514286Y-133062619D01*
X107800000Y-133062619D02*
X107800000Y-132062619D01*
X107800000Y-132062619D02*
X107704762Y-132205476D01*
X107704762Y-132205476D02*
X107609524Y-132300714D01*
X107609524Y-132300714D02*
X107514286Y-132348333D01*
%TO.C,U6*%
X140162619Y-113824404D02*
X140972142Y-113824404D01*
X140972142Y-113824404D02*
X141067380Y-113776785D01*
X141067380Y-113776785D02*
X141115000Y-113729166D01*
X141115000Y-113729166D02*
X141162619Y-113633928D01*
X141162619Y-113633928D02*
X141162619Y-113443452D01*
X141162619Y-113443452D02*
X141115000Y-113348214D01*
X141115000Y-113348214D02*
X141067380Y-113300595D01*
X141067380Y-113300595D02*
X140972142Y-113252976D01*
X140972142Y-113252976D02*
X140162619Y-113252976D01*
X140162619Y-112348214D02*
X140162619Y-112538690D01*
X140162619Y-112538690D02*
X140210238Y-112633928D01*
X140210238Y-112633928D02*
X140257857Y-112681547D01*
X140257857Y-112681547D02*
X140400714Y-112776785D01*
X140400714Y-112776785D02*
X140591190Y-112824404D01*
X140591190Y-112824404D02*
X140972142Y-112824404D01*
X140972142Y-112824404D02*
X141067380Y-112776785D01*
X141067380Y-112776785D02*
X141115000Y-112729166D01*
X141115000Y-112729166D02*
X141162619Y-112633928D01*
X141162619Y-112633928D02*
X141162619Y-112443452D01*
X141162619Y-112443452D02*
X141115000Y-112348214D01*
X141115000Y-112348214D02*
X141067380Y-112300595D01*
X141067380Y-112300595D02*
X140972142Y-112252976D01*
X140972142Y-112252976D02*
X140734047Y-112252976D01*
X140734047Y-112252976D02*
X140638809Y-112300595D01*
X140638809Y-112300595D02*
X140591190Y-112348214D01*
X140591190Y-112348214D02*
X140543571Y-112443452D01*
X140543571Y-112443452D02*
X140543571Y-112633928D01*
X140543571Y-112633928D02*
X140591190Y-112729166D01*
X140591190Y-112729166D02*
X140638809Y-112776785D01*
X140638809Y-112776785D02*
X140734047Y-112824404D01*
%TO.C,R4*%
X110962619Y-116166666D02*
X110486428Y-116499999D01*
X110962619Y-116738094D02*
X109962619Y-116738094D01*
X109962619Y-116738094D02*
X109962619Y-116357142D01*
X109962619Y-116357142D02*
X110010238Y-116261904D01*
X110010238Y-116261904D02*
X110057857Y-116214285D01*
X110057857Y-116214285D02*
X110153095Y-116166666D01*
X110153095Y-116166666D02*
X110295952Y-116166666D01*
X110295952Y-116166666D02*
X110391190Y-116214285D01*
X110391190Y-116214285D02*
X110438809Y-116261904D01*
X110438809Y-116261904D02*
X110486428Y-116357142D01*
X110486428Y-116357142D02*
X110486428Y-116738094D01*
X110295952Y-115309523D02*
X110962619Y-115309523D01*
X109915000Y-115547618D02*
X110629285Y-115785713D01*
X110629285Y-115785713D02*
X110629285Y-115166666D01*
%TO.C,J4*%
X133966666Y-101462619D02*
X133966666Y-102176904D01*
X133966666Y-102176904D02*
X133919047Y-102319761D01*
X133919047Y-102319761D02*
X133823809Y-102415000D01*
X133823809Y-102415000D02*
X133680952Y-102462619D01*
X133680952Y-102462619D02*
X133585714Y-102462619D01*
X134871428Y-101795952D02*
X134871428Y-102462619D01*
X134633333Y-101415000D02*
X134395238Y-102129285D01*
X134395238Y-102129285D02*
X135014285Y-102129285D01*
%TO.C,C5*%
X81167380Y-112566666D02*
X81215000Y-112614285D01*
X81215000Y-112614285D02*
X81262619Y-112757142D01*
X81262619Y-112757142D02*
X81262619Y-112852380D01*
X81262619Y-112852380D02*
X81215000Y-112995237D01*
X81215000Y-112995237D02*
X81119761Y-113090475D01*
X81119761Y-113090475D02*
X81024523Y-113138094D01*
X81024523Y-113138094D02*
X80834047Y-113185713D01*
X80834047Y-113185713D02*
X80691190Y-113185713D01*
X80691190Y-113185713D02*
X80500714Y-113138094D01*
X80500714Y-113138094D02*
X80405476Y-113090475D01*
X80405476Y-113090475D02*
X80310238Y-112995237D01*
X80310238Y-112995237D02*
X80262619Y-112852380D01*
X80262619Y-112852380D02*
X80262619Y-112757142D01*
X80262619Y-112757142D02*
X80310238Y-112614285D01*
X80310238Y-112614285D02*
X80357857Y-112566666D01*
X80262619Y-111661904D02*
X80262619Y-112138094D01*
X80262619Y-112138094D02*
X80738809Y-112185713D01*
X80738809Y-112185713D02*
X80691190Y-112138094D01*
X80691190Y-112138094D02*
X80643571Y-112042856D01*
X80643571Y-112042856D02*
X80643571Y-111804761D01*
X80643571Y-111804761D02*
X80691190Y-111709523D01*
X80691190Y-111709523D02*
X80738809Y-111661904D01*
X80738809Y-111661904D02*
X80834047Y-111614285D01*
X80834047Y-111614285D02*
X81072142Y-111614285D01*
X81072142Y-111614285D02*
X81167380Y-111661904D01*
X81167380Y-111661904D02*
X81215000Y-111709523D01*
X81215000Y-111709523D02*
X81262619Y-111804761D01*
X81262619Y-111804761D02*
X81262619Y-112042856D01*
X81262619Y-112042856D02*
X81215000Y-112138094D01*
X81215000Y-112138094D02*
X81167380Y-112185713D01*
%TO.C,U4*%
X109162619Y-107961904D02*
X109972142Y-107961904D01*
X109972142Y-107961904D02*
X110067380Y-107914285D01*
X110067380Y-107914285D02*
X110115000Y-107866666D01*
X110115000Y-107866666D02*
X110162619Y-107771428D01*
X110162619Y-107771428D02*
X110162619Y-107580952D01*
X110162619Y-107580952D02*
X110115000Y-107485714D01*
X110115000Y-107485714D02*
X110067380Y-107438095D01*
X110067380Y-107438095D02*
X109972142Y-107390476D01*
X109972142Y-107390476D02*
X109162619Y-107390476D01*
X109495952Y-106485714D02*
X110162619Y-106485714D01*
X109115000Y-106723809D02*
X109829285Y-106961904D01*
X109829285Y-106961904D02*
X109829285Y-106342857D01*
%TO.C,R25*%
X134632619Y-116405357D02*
X134156428Y-116738690D01*
X134632619Y-116976785D02*
X133632619Y-116976785D01*
X133632619Y-116976785D02*
X133632619Y-116595833D01*
X133632619Y-116595833D02*
X133680238Y-116500595D01*
X133680238Y-116500595D02*
X133727857Y-116452976D01*
X133727857Y-116452976D02*
X133823095Y-116405357D01*
X133823095Y-116405357D02*
X133965952Y-116405357D01*
X133965952Y-116405357D02*
X134061190Y-116452976D01*
X134061190Y-116452976D02*
X134108809Y-116500595D01*
X134108809Y-116500595D02*
X134156428Y-116595833D01*
X134156428Y-116595833D02*
X134156428Y-116976785D01*
X133727857Y-116024404D02*
X133680238Y-115976785D01*
X133680238Y-115976785D02*
X133632619Y-115881547D01*
X133632619Y-115881547D02*
X133632619Y-115643452D01*
X133632619Y-115643452D02*
X133680238Y-115548214D01*
X133680238Y-115548214D02*
X133727857Y-115500595D01*
X133727857Y-115500595D02*
X133823095Y-115452976D01*
X133823095Y-115452976D02*
X133918333Y-115452976D01*
X133918333Y-115452976D02*
X134061190Y-115500595D01*
X134061190Y-115500595D02*
X134632619Y-116072023D01*
X134632619Y-116072023D02*
X134632619Y-115452976D01*
X133632619Y-114548214D02*
X133632619Y-115024404D01*
X133632619Y-115024404D02*
X134108809Y-115072023D01*
X134108809Y-115072023D02*
X134061190Y-115024404D01*
X134061190Y-115024404D02*
X134013571Y-114929166D01*
X134013571Y-114929166D02*
X134013571Y-114691071D01*
X134013571Y-114691071D02*
X134061190Y-114595833D01*
X134061190Y-114595833D02*
X134108809Y-114548214D01*
X134108809Y-114548214D02*
X134204047Y-114500595D01*
X134204047Y-114500595D02*
X134442142Y-114500595D01*
X134442142Y-114500595D02*
X134537380Y-114548214D01*
X134537380Y-114548214D02*
X134585000Y-114595833D01*
X134585000Y-114595833D02*
X134632619Y-114691071D01*
X134632619Y-114691071D02*
X134632619Y-114929166D01*
X134632619Y-114929166D02*
X134585000Y-115024404D01*
X134585000Y-115024404D02*
X134537380Y-115072023D01*
%TO.C,R21*%
X124757142Y-103462619D02*
X124423809Y-102986428D01*
X124185714Y-103462619D02*
X124185714Y-102462619D01*
X124185714Y-102462619D02*
X124566666Y-102462619D01*
X124566666Y-102462619D02*
X124661904Y-102510238D01*
X124661904Y-102510238D02*
X124709523Y-102557857D01*
X124709523Y-102557857D02*
X124757142Y-102653095D01*
X124757142Y-102653095D02*
X124757142Y-102795952D01*
X124757142Y-102795952D02*
X124709523Y-102891190D01*
X124709523Y-102891190D02*
X124661904Y-102938809D01*
X124661904Y-102938809D02*
X124566666Y-102986428D01*
X124566666Y-102986428D02*
X124185714Y-102986428D01*
X125138095Y-102557857D02*
X125185714Y-102510238D01*
X125185714Y-102510238D02*
X125280952Y-102462619D01*
X125280952Y-102462619D02*
X125519047Y-102462619D01*
X125519047Y-102462619D02*
X125614285Y-102510238D01*
X125614285Y-102510238D02*
X125661904Y-102557857D01*
X125661904Y-102557857D02*
X125709523Y-102653095D01*
X125709523Y-102653095D02*
X125709523Y-102748333D01*
X125709523Y-102748333D02*
X125661904Y-102891190D01*
X125661904Y-102891190D02*
X125090476Y-103462619D01*
X125090476Y-103462619D02*
X125709523Y-103462619D01*
X126661904Y-103462619D02*
X126090476Y-103462619D01*
X126376190Y-103462619D02*
X126376190Y-102462619D01*
X126376190Y-102462619D02*
X126280952Y-102605476D01*
X126280952Y-102605476D02*
X126185714Y-102700714D01*
X126185714Y-102700714D02*
X126090476Y-102748333D01*
%TO.C,Q2*%
X106457857Y-127495238D02*
X106410238Y-127590476D01*
X106410238Y-127590476D02*
X106315000Y-127685714D01*
X106315000Y-127685714D02*
X106172142Y-127828571D01*
X106172142Y-127828571D02*
X106124523Y-127923809D01*
X106124523Y-127923809D02*
X106124523Y-128019047D01*
X106362619Y-127971428D02*
X106315000Y-128066666D01*
X106315000Y-128066666D02*
X106219761Y-128161904D01*
X106219761Y-128161904D02*
X106029285Y-128209523D01*
X106029285Y-128209523D02*
X105695952Y-128209523D01*
X105695952Y-128209523D02*
X105505476Y-128161904D01*
X105505476Y-128161904D02*
X105410238Y-128066666D01*
X105410238Y-128066666D02*
X105362619Y-127971428D01*
X105362619Y-127971428D02*
X105362619Y-127780952D01*
X105362619Y-127780952D02*
X105410238Y-127685714D01*
X105410238Y-127685714D02*
X105505476Y-127590476D01*
X105505476Y-127590476D02*
X105695952Y-127542857D01*
X105695952Y-127542857D02*
X106029285Y-127542857D01*
X106029285Y-127542857D02*
X106219761Y-127590476D01*
X106219761Y-127590476D02*
X106315000Y-127685714D01*
X106315000Y-127685714D02*
X106362619Y-127780952D01*
X106362619Y-127780952D02*
X106362619Y-127971428D01*
X105457857Y-127161904D02*
X105410238Y-127114285D01*
X105410238Y-127114285D02*
X105362619Y-127019047D01*
X105362619Y-127019047D02*
X105362619Y-126780952D01*
X105362619Y-126780952D02*
X105410238Y-126685714D01*
X105410238Y-126685714D02*
X105457857Y-126638095D01*
X105457857Y-126638095D02*
X105553095Y-126590476D01*
X105553095Y-126590476D02*
X105648333Y-126590476D01*
X105648333Y-126590476D02*
X105791190Y-126638095D01*
X105791190Y-126638095D02*
X106362619Y-127209523D01*
X106362619Y-127209523D02*
X106362619Y-126590476D01*
%TO.C,D1*%
X122061905Y-131762619D02*
X122061905Y-130762619D01*
X122061905Y-130762619D02*
X122300000Y-130762619D01*
X122300000Y-130762619D02*
X122442857Y-130810238D01*
X122442857Y-130810238D02*
X122538095Y-130905476D01*
X122538095Y-130905476D02*
X122585714Y-131000714D01*
X122585714Y-131000714D02*
X122633333Y-131191190D01*
X122633333Y-131191190D02*
X122633333Y-131334047D01*
X122633333Y-131334047D02*
X122585714Y-131524523D01*
X122585714Y-131524523D02*
X122538095Y-131619761D01*
X122538095Y-131619761D02*
X122442857Y-131715000D01*
X122442857Y-131715000D02*
X122300000Y-131762619D01*
X122300000Y-131762619D02*
X122061905Y-131762619D01*
X123585714Y-131762619D02*
X123014286Y-131762619D01*
X123300000Y-131762619D02*
X123300000Y-130762619D01*
X123300000Y-130762619D02*
X123204762Y-130905476D01*
X123204762Y-130905476D02*
X123109524Y-131000714D01*
X123109524Y-131000714D02*
X123014286Y-131048333D01*
%TO.C,R15*%
X111932619Y-121042857D02*
X111456428Y-121376190D01*
X111932619Y-121614285D02*
X110932619Y-121614285D01*
X110932619Y-121614285D02*
X110932619Y-121233333D01*
X110932619Y-121233333D02*
X110980238Y-121138095D01*
X110980238Y-121138095D02*
X111027857Y-121090476D01*
X111027857Y-121090476D02*
X111123095Y-121042857D01*
X111123095Y-121042857D02*
X111265952Y-121042857D01*
X111265952Y-121042857D02*
X111361190Y-121090476D01*
X111361190Y-121090476D02*
X111408809Y-121138095D01*
X111408809Y-121138095D02*
X111456428Y-121233333D01*
X111456428Y-121233333D02*
X111456428Y-121614285D01*
X111932619Y-120090476D02*
X111932619Y-120661904D01*
X111932619Y-120376190D02*
X110932619Y-120376190D01*
X110932619Y-120376190D02*
X111075476Y-120471428D01*
X111075476Y-120471428D02*
X111170714Y-120566666D01*
X111170714Y-120566666D02*
X111218333Y-120661904D01*
X110932619Y-119185714D02*
X110932619Y-119661904D01*
X110932619Y-119661904D02*
X111408809Y-119709523D01*
X111408809Y-119709523D02*
X111361190Y-119661904D01*
X111361190Y-119661904D02*
X111313571Y-119566666D01*
X111313571Y-119566666D02*
X111313571Y-119328571D01*
X111313571Y-119328571D02*
X111361190Y-119233333D01*
X111361190Y-119233333D02*
X111408809Y-119185714D01*
X111408809Y-119185714D02*
X111504047Y-119138095D01*
X111504047Y-119138095D02*
X111742142Y-119138095D01*
X111742142Y-119138095D02*
X111837380Y-119185714D01*
X111837380Y-119185714D02*
X111885000Y-119233333D01*
X111885000Y-119233333D02*
X111932619Y-119328571D01*
X111932619Y-119328571D02*
X111932619Y-119566666D01*
X111932619Y-119566666D02*
X111885000Y-119661904D01*
X111885000Y-119661904D02*
X111837380Y-119709523D01*
%TO.C,R13*%
X124657142Y-123462619D02*
X124323809Y-122986428D01*
X124085714Y-123462619D02*
X124085714Y-122462619D01*
X124085714Y-122462619D02*
X124466666Y-122462619D01*
X124466666Y-122462619D02*
X124561904Y-122510238D01*
X124561904Y-122510238D02*
X124609523Y-122557857D01*
X124609523Y-122557857D02*
X124657142Y-122653095D01*
X124657142Y-122653095D02*
X124657142Y-122795952D01*
X124657142Y-122795952D02*
X124609523Y-122891190D01*
X124609523Y-122891190D02*
X124561904Y-122938809D01*
X124561904Y-122938809D02*
X124466666Y-122986428D01*
X124466666Y-122986428D02*
X124085714Y-122986428D01*
X125609523Y-123462619D02*
X125038095Y-123462619D01*
X125323809Y-123462619D02*
X125323809Y-122462619D01*
X125323809Y-122462619D02*
X125228571Y-122605476D01*
X125228571Y-122605476D02*
X125133333Y-122700714D01*
X125133333Y-122700714D02*
X125038095Y-122748333D01*
X125942857Y-122462619D02*
X126561904Y-122462619D01*
X126561904Y-122462619D02*
X126228571Y-122843571D01*
X126228571Y-122843571D02*
X126371428Y-122843571D01*
X126371428Y-122843571D02*
X126466666Y-122891190D01*
X126466666Y-122891190D02*
X126514285Y-122938809D01*
X126514285Y-122938809D02*
X126561904Y-123034047D01*
X126561904Y-123034047D02*
X126561904Y-123272142D01*
X126561904Y-123272142D02*
X126514285Y-123367380D01*
X126514285Y-123367380D02*
X126466666Y-123415000D01*
X126466666Y-123415000D02*
X126371428Y-123462619D01*
X126371428Y-123462619D02*
X126085714Y-123462619D01*
X126085714Y-123462619D02*
X125990476Y-123415000D01*
X125990476Y-123415000D02*
X125942857Y-123367380D01*
%TO.C,R14*%
X113457142Y-123162619D02*
X113123809Y-122686428D01*
X112885714Y-123162619D02*
X112885714Y-122162619D01*
X112885714Y-122162619D02*
X113266666Y-122162619D01*
X113266666Y-122162619D02*
X113361904Y-122210238D01*
X113361904Y-122210238D02*
X113409523Y-122257857D01*
X113409523Y-122257857D02*
X113457142Y-122353095D01*
X113457142Y-122353095D02*
X113457142Y-122495952D01*
X113457142Y-122495952D02*
X113409523Y-122591190D01*
X113409523Y-122591190D02*
X113361904Y-122638809D01*
X113361904Y-122638809D02*
X113266666Y-122686428D01*
X113266666Y-122686428D02*
X112885714Y-122686428D01*
X114409523Y-123162619D02*
X113838095Y-123162619D01*
X114123809Y-123162619D02*
X114123809Y-122162619D01*
X114123809Y-122162619D02*
X114028571Y-122305476D01*
X114028571Y-122305476D02*
X113933333Y-122400714D01*
X113933333Y-122400714D02*
X113838095Y-122448333D01*
X115266666Y-122495952D02*
X115266666Y-123162619D01*
X115028571Y-122115000D02*
X114790476Y-122829285D01*
X114790476Y-122829285D02*
X115409523Y-122829285D01*
%TO.C,U2*%
X110938095Y-112662619D02*
X110938095Y-113472142D01*
X110938095Y-113472142D02*
X110985714Y-113567380D01*
X110985714Y-113567380D02*
X111033333Y-113615000D01*
X111033333Y-113615000D02*
X111128571Y-113662619D01*
X111128571Y-113662619D02*
X111319047Y-113662619D01*
X111319047Y-113662619D02*
X111414285Y-113615000D01*
X111414285Y-113615000D02*
X111461904Y-113567380D01*
X111461904Y-113567380D02*
X111509523Y-113472142D01*
X111509523Y-113472142D02*
X111509523Y-112662619D01*
X111938095Y-112757857D02*
X111985714Y-112710238D01*
X111985714Y-112710238D02*
X112080952Y-112662619D01*
X112080952Y-112662619D02*
X112319047Y-112662619D01*
X112319047Y-112662619D02*
X112414285Y-112710238D01*
X112414285Y-112710238D02*
X112461904Y-112757857D01*
X112461904Y-112757857D02*
X112509523Y-112853095D01*
X112509523Y-112853095D02*
X112509523Y-112948333D01*
X112509523Y-112948333D02*
X112461904Y-113091190D01*
X112461904Y-113091190D02*
X111890476Y-113662619D01*
X111890476Y-113662619D02*
X112509523Y-113662619D01*
%TO.C,R30*%
X121207142Y-87262619D02*
X120873809Y-86786428D01*
X120635714Y-87262619D02*
X120635714Y-86262619D01*
X120635714Y-86262619D02*
X121016666Y-86262619D01*
X121016666Y-86262619D02*
X121111904Y-86310238D01*
X121111904Y-86310238D02*
X121159523Y-86357857D01*
X121159523Y-86357857D02*
X121207142Y-86453095D01*
X121207142Y-86453095D02*
X121207142Y-86595952D01*
X121207142Y-86595952D02*
X121159523Y-86691190D01*
X121159523Y-86691190D02*
X121111904Y-86738809D01*
X121111904Y-86738809D02*
X121016666Y-86786428D01*
X121016666Y-86786428D02*
X120635714Y-86786428D01*
X121540476Y-86262619D02*
X122159523Y-86262619D01*
X122159523Y-86262619D02*
X121826190Y-86643571D01*
X121826190Y-86643571D02*
X121969047Y-86643571D01*
X121969047Y-86643571D02*
X122064285Y-86691190D01*
X122064285Y-86691190D02*
X122111904Y-86738809D01*
X122111904Y-86738809D02*
X122159523Y-86834047D01*
X122159523Y-86834047D02*
X122159523Y-87072142D01*
X122159523Y-87072142D02*
X122111904Y-87167380D01*
X122111904Y-87167380D02*
X122064285Y-87215000D01*
X122064285Y-87215000D02*
X121969047Y-87262619D01*
X121969047Y-87262619D02*
X121683333Y-87262619D01*
X121683333Y-87262619D02*
X121588095Y-87215000D01*
X121588095Y-87215000D02*
X121540476Y-87167380D01*
X122778571Y-86262619D02*
X122873809Y-86262619D01*
X122873809Y-86262619D02*
X122969047Y-86310238D01*
X122969047Y-86310238D02*
X123016666Y-86357857D01*
X123016666Y-86357857D02*
X123064285Y-86453095D01*
X123064285Y-86453095D02*
X123111904Y-86643571D01*
X123111904Y-86643571D02*
X123111904Y-86881666D01*
X123111904Y-86881666D02*
X123064285Y-87072142D01*
X123064285Y-87072142D02*
X123016666Y-87167380D01*
X123016666Y-87167380D02*
X122969047Y-87215000D01*
X122969047Y-87215000D02*
X122873809Y-87262619D01*
X122873809Y-87262619D02*
X122778571Y-87262619D01*
X122778571Y-87262619D02*
X122683333Y-87215000D01*
X122683333Y-87215000D02*
X122635714Y-87167380D01*
X122635714Y-87167380D02*
X122588095Y-87072142D01*
X122588095Y-87072142D02*
X122540476Y-86881666D01*
X122540476Y-86881666D02*
X122540476Y-86643571D01*
X122540476Y-86643571D02*
X122588095Y-86453095D01*
X122588095Y-86453095D02*
X122635714Y-86357857D01*
X122635714Y-86357857D02*
X122683333Y-86310238D01*
X122683333Y-86310238D02*
X122778571Y-86262619D01*
%TO.C,R22*%
X141162619Y-106205357D02*
X140686428Y-106538690D01*
X141162619Y-106776785D02*
X140162619Y-106776785D01*
X140162619Y-106776785D02*
X140162619Y-106395833D01*
X140162619Y-106395833D02*
X140210238Y-106300595D01*
X140210238Y-106300595D02*
X140257857Y-106252976D01*
X140257857Y-106252976D02*
X140353095Y-106205357D01*
X140353095Y-106205357D02*
X140495952Y-106205357D01*
X140495952Y-106205357D02*
X140591190Y-106252976D01*
X140591190Y-106252976D02*
X140638809Y-106300595D01*
X140638809Y-106300595D02*
X140686428Y-106395833D01*
X140686428Y-106395833D02*
X140686428Y-106776785D01*
X140257857Y-105824404D02*
X140210238Y-105776785D01*
X140210238Y-105776785D02*
X140162619Y-105681547D01*
X140162619Y-105681547D02*
X140162619Y-105443452D01*
X140162619Y-105443452D02*
X140210238Y-105348214D01*
X140210238Y-105348214D02*
X140257857Y-105300595D01*
X140257857Y-105300595D02*
X140353095Y-105252976D01*
X140353095Y-105252976D02*
X140448333Y-105252976D01*
X140448333Y-105252976D02*
X140591190Y-105300595D01*
X140591190Y-105300595D02*
X141162619Y-105872023D01*
X141162619Y-105872023D02*
X141162619Y-105252976D01*
X140257857Y-104872023D02*
X140210238Y-104824404D01*
X140210238Y-104824404D02*
X140162619Y-104729166D01*
X140162619Y-104729166D02*
X140162619Y-104491071D01*
X140162619Y-104491071D02*
X140210238Y-104395833D01*
X140210238Y-104395833D02*
X140257857Y-104348214D01*
X140257857Y-104348214D02*
X140353095Y-104300595D01*
X140353095Y-104300595D02*
X140448333Y-104300595D01*
X140448333Y-104300595D02*
X140591190Y-104348214D01*
X140591190Y-104348214D02*
X141162619Y-104919642D01*
X141162619Y-104919642D02*
X141162619Y-104300595D01*
%TO.C,C14*%
X119057142Y-103467380D02*
X119009523Y-103515000D01*
X119009523Y-103515000D02*
X118866666Y-103562619D01*
X118866666Y-103562619D02*
X118771428Y-103562619D01*
X118771428Y-103562619D02*
X118628571Y-103515000D01*
X118628571Y-103515000D02*
X118533333Y-103419761D01*
X118533333Y-103419761D02*
X118485714Y-103324523D01*
X118485714Y-103324523D02*
X118438095Y-103134047D01*
X118438095Y-103134047D02*
X118438095Y-102991190D01*
X118438095Y-102991190D02*
X118485714Y-102800714D01*
X118485714Y-102800714D02*
X118533333Y-102705476D01*
X118533333Y-102705476D02*
X118628571Y-102610238D01*
X118628571Y-102610238D02*
X118771428Y-102562619D01*
X118771428Y-102562619D02*
X118866666Y-102562619D01*
X118866666Y-102562619D02*
X119009523Y-102610238D01*
X119009523Y-102610238D02*
X119057142Y-102657857D01*
X120009523Y-103562619D02*
X119438095Y-103562619D01*
X119723809Y-103562619D02*
X119723809Y-102562619D01*
X119723809Y-102562619D02*
X119628571Y-102705476D01*
X119628571Y-102705476D02*
X119533333Y-102800714D01*
X119533333Y-102800714D02*
X119438095Y-102848333D01*
X120866666Y-102895952D02*
X120866666Y-103562619D01*
X120628571Y-102515000D02*
X120390476Y-103229285D01*
X120390476Y-103229285D02*
X121009523Y-103229285D01*
%TO.C,R20*%
X122057142Y-119362619D02*
X121723809Y-118886428D01*
X121485714Y-119362619D02*
X121485714Y-118362619D01*
X121485714Y-118362619D02*
X121866666Y-118362619D01*
X121866666Y-118362619D02*
X121961904Y-118410238D01*
X121961904Y-118410238D02*
X122009523Y-118457857D01*
X122009523Y-118457857D02*
X122057142Y-118553095D01*
X122057142Y-118553095D02*
X122057142Y-118695952D01*
X122057142Y-118695952D02*
X122009523Y-118791190D01*
X122009523Y-118791190D02*
X121961904Y-118838809D01*
X121961904Y-118838809D02*
X121866666Y-118886428D01*
X121866666Y-118886428D02*
X121485714Y-118886428D01*
X122438095Y-118457857D02*
X122485714Y-118410238D01*
X122485714Y-118410238D02*
X122580952Y-118362619D01*
X122580952Y-118362619D02*
X122819047Y-118362619D01*
X122819047Y-118362619D02*
X122914285Y-118410238D01*
X122914285Y-118410238D02*
X122961904Y-118457857D01*
X122961904Y-118457857D02*
X123009523Y-118553095D01*
X123009523Y-118553095D02*
X123009523Y-118648333D01*
X123009523Y-118648333D02*
X122961904Y-118791190D01*
X122961904Y-118791190D02*
X122390476Y-119362619D01*
X122390476Y-119362619D02*
X123009523Y-119362619D01*
X123628571Y-118362619D02*
X123723809Y-118362619D01*
X123723809Y-118362619D02*
X123819047Y-118410238D01*
X123819047Y-118410238D02*
X123866666Y-118457857D01*
X123866666Y-118457857D02*
X123914285Y-118553095D01*
X123914285Y-118553095D02*
X123961904Y-118743571D01*
X123961904Y-118743571D02*
X123961904Y-118981666D01*
X123961904Y-118981666D02*
X123914285Y-119172142D01*
X123914285Y-119172142D02*
X123866666Y-119267380D01*
X123866666Y-119267380D02*
X123819047Y-119315000D01*
X123819047Y-119315000D02*
X123723809Y-119362619D01*
X123723809Y-119362619D02*
X123628571Y-119362619D01*
X123628571Y-119362619D02*
X123533333Y-119315000D01*
X123533333Y-119315000D02*
X123485714Y-119267380D01*
X123485714Y-119267380D02*
X123438095Y-119172142D01*
X123438095Y-119172142D02*
X123390476Y-118981666D01*
X123390476Y-118981666D02*
X123390476Y-118743571D01*
X123390476Y-118743571D02*
X123438095Y-118553095D01*
X123438095Y-118553095D02*
X123485714Y-118457857D01*
X123485714Y-118457857D02*
X123533333Y-118410238D01*
X123533333Y-118410238D02*
X123628571Y-118362619D01*
%TO.C,D8*%
X130211905Y-87162619D02*
X130211905Y-86162619D01*
X130211905Y-86162619D02*
X130450000Y-86162619D01*
X130450000Y-86162619D02*
X130592857Y-86210238D01*
X130592857Y-86210238D02*
X130688095Y-86305476D01*
X130688095Y-86305476D02*
X130735714Y-86400714D01*
X130735714Y-86400714D02*
X130783333Y-86591190D01*
X130783333Y-86591190D02*
X130783333Y-86734047D01*
X130783333Y-86734047D02*
X130735714Y-86924523D01*
X130735714Y-86924523D02*
X130688095Y-87019761D01*
X130688095Y-87019761D02*
X130592857Y-87115000D01*
X130592857Y-87115000D02*
X130450000Y-87162619D01*
X130450000Y-87162619D02*
X130211905Y-87162619D01*
X131354762Y-86591190D02*
X131259524Y-86543571D01*
X131259524Y-86543571D02*
X131211905Y-86495952D01*
X131211905Y-86495952D02*
X131164286Y-86400714D01*
X131164286Y-86400714D02*
X131164286Y-86353095D01*
X131164286Y-86353095D02*
X131211905Y-86257857D01*
X131211905Y-86257857D02*
X131259524Y-86210238D01*
X131259524Y-86210238D02*
X131354762Y-86162619D01*
X131354762Y-86162619D02*
X131545238Y-86162619D01*
X131545238Y-86162619D02*
X131640476Y-86210238D01*
X131640476Y-86210238D02*
X131688095Y-86257857D01*
X131688095Y-86257857D02*
X131735714Y-86353095D01*
X131735714Y-86353095D02*
X131735714Y-86400714D01*
X131735714Y-86400714D02*
X131688095Y-86495952D01*
X131688095Y-86495952D02*
X131640476Y-86543571D01*
X131640476Y-86543571D02*
X131545238Y-86591190D01*
X131545238Y-86591190D02*
X131354762Y-86591190D01*
X131354762Y-86591190D02*
X131259524Y-86638809D01*
X131259524Y-86638809D02*
X131211905Y-86686428D01*
X131211905Y-86686428D02*
X131164286Y-86781666D01*
X131164286Y-86781666D02*
X131164286Y-86972142D01*
X131164286Y-86972142D02*
X131211905Y-87067380D01*
X131211905Y-87067380D02*
X131259524Y-87115000D01*
X131259524Y-87115000D02*
X131354762Y-87162619D01*
X131354762Y-87162619D02*
X131545238Y-87162619D01*
X131545238Y-87162619D02*
X131640476Y-87115000D01*
X131640476Y-87115000D02*
X131688095Y-87067380D01*
X131688095Y-87067380D02*
X131735714Y-86972142D01*
X131735714Y-86972142D02*
X131735714Y-86781666D01*
X131735714Y-86781666D02*
X131688095Y-86686428D01*
X131688095Y-86686428D02*
X131640476Y-86638809D01*
X131640476Y-86638809D02*
X131545238Y-86591190D01*
%TO.C,R7*%
X75462619Y-104966666D02*
X74986428Y-105299999D01*
X75462619Y-105538094D02*
X74462619Y-105538094D01*
X74462619Y-105538094D02*
X74462619Y-105157142D01*
X74462619Y-105157142D02*
X74510238Y-105061904D01*
X74510238Y-105061904D02*
X74557857Y-105014285D01*
X74557857Y-105014285D02*
X74653095Y-104966666D01*
X74653095Y-104966666D02*
X74795952Y-104966666D01*
X74795952Y-104966666D02*
X74891190Y-105014285D01*
X74891190Y-105014285D02*
X74938809Y-105061904D01*
X74938809Y-105061904D02*
X74986428Y-105157142D01*
X74986428Y-105157142D02*
X74986428Y-105538094D01*
X74462619Y-104633332D02*
X74462619Y-103966666D01*
X74462619Y-103966666D02*
X75462619Y-104395237D01*
%TO.C,R10*%
X81562619Y-121742857D02*
X81086428Y-122076190D01*
X81562619Y-122314285D02*
X80562619Y-122314285D01*
X80562619Y-122314285D02*
X80562619Y-121933333D01*
X80562619Y-121933333D02*
X80610238Y-121838095D01*
X80610238Y-121838095D02*
X80657857Y-121790476D01*
X80657857Y-121790476D02*
X80753095Y-121742857D01*
X80753095Y-121742857D02*
X80895952Y-121742857D01*
X80895952Y-121742857D02*
X80991190Y-121790476D01*
X80991190Y-121790476D02*
X81038809Y-121838095D01*
X81038809Y-121838095D02*
X81086428Y-121933333D01*
X81086428Y-121933333D02*
X81086428Y-122314285D01*
X81562619Y-120790476D02*
X81562619Y-121361904D01*
X81562619Y-121076190D02*
X80562619Y-121076190D01*
X80562619Y-121076190D02*
X80705476Y-121171428D01*
X80705476Y-121171428D02*
X80800714Y-121266666D01*
X80800714Y-121266666D02*
X80848333Y-121361904D01*
X80562619Y-120171428D02*
X80562619Y-120076190D01*
X80562619Y-120076190D02*
X80610238Y-119980952D01*
X80610238Y-119980952D02*
X80657857Y-119933333D01*
X80657857Y-119933333D02*
X80753095Y-119885714D01*
X80753095Y-119885714D02*
X80943571Y-119838095D01*
X80943571Y-119838095D02*
X81181666Y-119838095D01*
X81181666Y-119838095D02*
X81372142Y-119885714D01*
X81372142Y-119885714D02*
X81467380Y-119933333D01*
X81467380Y-119933333D02*
X81515000Y-119980952D01*
X81515000Y-119980952D02*
X81562619Y-120076190D01*
X81562619Y-120076190D02*
X81562619Y-120171428D01*
X81562619Y-120171428D02*
X81515000Y-120266666D01*
X81515000Y-120266666D02*
X81467380Y-120314285D01*
X81467380Y-120314285D02*
X81372142Y-120361904D01*
X81372142Y-120361904D02*
X81181666Y-120409523D01*
X81181666Y-120409523D02*
X80943571Y-120409523D01*
X80943571Y-120409523D02*
X80753095Y-120361904D01*
X80753095Y-120361904D02*
X80657857Y-120314285D01*
X80657857Y-120314285D02*
X80610238Y-120266666D01*
X80610238Y-120266666D02*
X80562619Y-120171428D01*
%TO.C,D2*%
X127211905Y-121662619D02*
X127211905Y-120662619D01*
X127211905Y-120662619D02*
X127450000Y-120662619D01*
X127450000Y-120662619D02*
X127592857Y-120710238D01*
X127592857Y-120710238D02*
X127688095Y-120805476D01*
X127688095Y-120805476D02*
X127735714Y-120900714D01*
X127735714Y-120900714D02*
X127783333Y-121091190D01*
X127783333Y-121091190D02*
X127783333Y-121234047D01*
X127783333Y-121234047D02*
X127735714Y-121424523D01*
X127735714Y-121424523D02*
X127688095Y-121519761D01*
X127688095Y-121519761D02*
X127592857Y-121615000D01*
X127592857Y-121615000D02*
X127450000Y-121662619D01*
X127450000Y-121662619D02*
X127211905Y-121662619D01*
X128164286Y-120757857D02*
X128211905Y-120710238D01*
X128211905Y-120710238D02*
X128307143Y-120662619D01*
X128307143Y-120662619D02*
X128545238Y-120662619D01*
X128545238Y-120662619D02*
X128640476Y-120710238D01*
X128640476Y-120710238D02*
X128688095Y-120757857D01*
X128688095Y-120757857D02*
X128735714Y-120853095D01*
X128735714Y-120853095D02*
X128735714Y-120948333D01*
X128735714Y-120948333D02*
X128688095Y-121091190D01*
X128688095Y-121091190D02*
X128116667Y-121662619D01*
X128116667Y-121662619D02*
X128735714Y-121662619D01*
%TO.C,C11*%
X121757142Y-102367380D02*
X121709523Y-102415000D01*
X121709523Y-102415000D02*
X121566666Y-102462619D01*
X121566666Y-102462619D02*
X121471428Y-102462619D01*
X121471428Y-102462619D02*
X121328571Y-102415000D01*
X121328571Y-102415000D02*
X121233333Y-102319761D01*
X121233333Y-102319761D02*
X121185714Y-102224523D01*
X121185714Y-102224523D02*
X121138095Y-102034047D01*
X121138095Y-102034047D02*
X121138095Y-101891190D01*
X121138095Y-101891190D02*
X121185714Y-101700714D01*
X121185714Y-101700714D02*
X121233333Y-101605476D01*
X121233333Y-101605476D02*
X121328571Y-101510238D01*
X121328571Y-101510238D02*
X121471428Y-101462619D01*
X121471428Y-101462619D02*
X121566666Y-101462619D01*
X121566666Y-101462619D02*
X121709523Y-101510238D01*
X121709523Y-101510238D02*
X121757142Y-101557857D01*
X122709523Y-102462619D02*
X122138095Y-102462619D01*
X122423809Y-102462619D02*
X122423809Y-101462619D01*
X122423809Y-101462619D02*
X122328571Y-101605476D01*
X122328571Y-101605476D02*
X122233333Y-101700714D01*
X122233333Y-101700714D02*
X122138095Y-101748333D01*
X123661904Y-102462619D02*
X123090476Y-102462619D01*
X123376190Y-102462619D02*
X123376190Y-101462619D01*
X123376190Y-101462619D02*
X123280952Y-101605476D01*
X123280952Y-101605476D02*
X123185714Y-101700714D01*
X123185714Y-101700714D02*
X123090476Y-101748333D01*
%TO.C,D5*%
X135661905Y-87162619D02*
X135661905Y-86162619D01*
X135661905Y-86162619D02*
X135900000Y-86162619D01*
X135900000Y-86162619D02*
X136042857Y-86210238D01*
X136042857Y-86210238D02*
X136138095Y-86305476D01*
X136138095Y-86305476D02*
X136185714Y-86400714D01*
X136185714Y-86400714D02*
X136233333Y-86591190D01*
X136233333Y-86591190D02*
X136233333Y-86734047D01*
X136233333Y-86734047D02*
X136185714Y-86924523D01*
X136185714Y-86924523D02*
X136138095Y-87019761D01*
X136138095Y-87019761D02*
X136042857Y-87115000D01*
X136042857Y-87115000D02*
X135900000Y-87162619D01*
X135900000Y-87162619D02*
X135661905Y-87162619D01*
X137138095Y-86162619D02*
X136661905Y-86162619D01*
X136661905Y-86162619D02*
X136614286Y-86638809D01*
X136614286Y-86638809D02*
X136661905Y-86591190D01*
X136661905Y-86591190D02*
X136757143Y-86543571D01*
X136757143Y-86543571D02*
X136995238Y-86543571D01*
X136995238Y-86543571D02*
X137090476Y-86591190D01*
X137090476Y-86591190D02*
X137138095Y-86638809D01*
X137138095Y-86638809D02*
X137185714Y-86734047D01*
X137185714Y-86734047D02*
X137185714Y-86972142D01*
X137185714Y-86972142D02*
X137138095Y-87067380D01*
X137138095Y-87067380D02*
X137090476Y-87115000D01*
X137090476Y-87115000D02*
X136995238Y-87162619D01*
X136995238Y-87162619D02*
X136757143Y-87162619D01*
X136757143Y-87162619D02*
X136661905Y-87115000D01*
X136661905Y-87115000D02*
X136614286Y-87067380D01*
%TO.C,H2*%
X139588096Y-88287620D02*
X139588096Y-87287620D01*
X139588096Y-87763810D02*
X140159524Y-87763810D01*
X140159524Y-88287620D02*
X140159524Y-87287620D01*
X140588096Y-87382858D02*
X140635715Y-87335239D01*
X140635715Y-87335239D02*
X140730953Y-87287620D01*
X140730953Y-87287620D02*
X140969048Y-87287620D01*
X140969048Y-87287620D02*
X141064286Y-87335239D01*
X141064286Y-87335239D02*
X141111905Y-87382858D01*
X141111905Y-87382858D02*
X141159524Y-87478096D01*
X141159524Y-87478096D02*
X141159524Y-87573334D01*
X141159524Y-87573334D02*
X141111905Y-87716191D01*
X141111905Y-87716191D02*
X140540477Y-88287620D01*
X140540477Y-88287620D02*
X141159524Y-88287620D01*
%TO.C,Q1*%
X106357857Y-122057738D02*
X106310238Y-122152976D01*
X106310238Y-122152976D02*
X106215000Y-122248214D01*
X106215000Y-122248214D02*
X106072142Y-122391071D01*
X106072142Y-122391071D02*
X106024523Y-122486309D01*
X106024523Y-122486309D02*
X106024523Y-122581547D01*
X106262619Y-122533928D02*
X106215000Y-122629166D01*
X106215000Y-122629166D02*
X106119761Y-122724404D01*
X106119761Y-122724404D02*
X105929285Y-122772023D01*
X105929285Y-122772023D02*
X105595952Y-122772023D01*
X105595952Y-122772023D02*
X105405476Y-122724404D01*
X105405476Y-122724404D02*
X105310238Y-122629166D01*
X105310238Y-122629166D02*
X105262619Y-122533928D01*
X105262619Y-122533928D02*
X105262619Y-122343452D01*
X105262619Y-122343452D02*
X105310238Y-122248214D01*
X105310238Y-122248214D02*
X105405476Y-122152976D01*
X105405476Y-122152976D02*
X105595952Y-122105357D01*
X105595952Y-122105357D02*
X105929285Y-122105357D01*
X105929285Y-122105357D02*
X106119761Y-122152976D01*
X106119761Y-122152976D02*
X106215000Y-122248214D01*
X106215000Y-122248214D02*
X106262619Y-122343452D01*
X106262619Y-122343452D02*
X106262619Y-122533928D01*
X106262619Y-121152976D02*
X106262619Y-121724404D01*
X106262619Y-121438690D02*
X105262619Y-121438690D01*
X105262619Y-121438690D02*
X105405476Y-121533928D01*
X105405476Y-121533928D02*
X105500714Y-121629166D01*
X105500714Y-121629166D02*
X105548333Y-121724404D01*
%TO.C,J1*%
X112566666Y-124962619D02*
X112566666Y-125676904D01*
X112566666Y-125676904D02*
X112519047Y-125819761D01*
X112519047Y-125819761D02*
X112423809Y-125915000D01*
X112423809Y-125915000D02*
X112280952Y-125962619D01*
X112280952Y-125962619D02*
X112185714Y-125962619D01*
X113566666Y-125962619D02*
X112995238Y-125962619D01*
X113280952Y-125962619D02*
X113280952Y-124962619D01*
X113280952Y-124962619D02*
X113185714Y-125105476D01*
X113185714Y-125105476D02*
X113090476Y-125200714D01*
X113090476Y-125200714D02*
X112995238Y-125248333D01*
%TO.C,D3*%
X141762619Y-94838094D02*
X140762619Y-94838094D01*
X140762619Y-94838094D02*
X140762619Y-94599999D01*
X140762619Y-94599999D02*
X140810238Y-94457142D01*
X140810238Y-94457142D02*
X140905476Y-94361904D01*
X140905476Y-94361904D02*
X141000714Y-94314285D01*
X141000714Y-94314285D02*
X141191190Y-94266666D01*
X141191190Y-94266666D02*
X141334047Y-94266666D01*
X141334047Y-94266666D02*
X141524523Y-94314285D01*
X141524523Y-94314285D02*
X141619761Y-94361904D01*
X141619761Y-94361904D02*
X141715000Y-94457142D01*
X141715000Y-94457142D02*
X141762619Y-94599999D01*
X141762619Y-94599999D02*
X141762619Y-94838094D01*
X140762619Y-93933332D02*
X140762619Y-93314285D01*
X140762619Y-93314285D02*
X141143571Y-93647618D01*
X141143571Y-93647618D02*
X141143571Y-93504761D01*
X141143571Y-93504761D02*
X141191190Y-93409523D01*
X141191190Y-93409523D02*
X141238809Y-93361904D01*
X141238809Y-93361904D02*
X141334047Y-93314285D01*
X141334047Y-93314285D02*
X141572142Y-93314285D01*
X141572142Y-93314285D02*
X141667380Y-93361904D01*
X141667380Y-93361904D02*
X141715000Y-93409523D01*
X141715000Y-93409523D02*
X141762619Y-93504761D01*
X141762619Y-93504761D02*
X141762619Y-93790475D01*
X141762619Y-93790475D02*
X141715000Y-93885713D01*
X141715000Y-93885713D02*
X141667380Y-93933332D01*
%TO.C,H1*%
X71438095Y-135262619D02*
X71438095Y-134262619D01*
X71438095Y-134738809D02*
X72009523Y-134738809D01*
X72009523Y-135262619D02*
X72009523Y-134262619D01*
X73009523Y-135262619D02*
X72438095Y-135262619D01*
X72723809Y-135262619D02*
X72723809Y-134262619D01*
X72723809Y-134262619D02*
X72628571Y-134405476D01*
X72628571Y-134405476D02*
X72533333Y-134500714D01*
X72533333Y-134500714D02*
X72438095Y-134548333D01*
%TO.C,SW1*%
X73666667Y-132415000D02*
X73809524Y-132462619D01*
X73809524Y-132462619D02*
X74047619Y-132462619D01*
X74047619Y-132462619D02*
X74142857Y-132415000D01*
X74142857Y-132415000D02*
X74190476Y-132367380D01*
X74190476Y-132367380D02*
X74238095Y-132272142D01*
X74238095Y-132272142D02*
X74238095Y-132176904D01*
X74238095Y-132176904D02*
X74190476Y-132081666D01*
X74190476Y-132081666D02*
X74142857Y-132034047D01*
X74142857Y-132034047D02*
X74047619Y-131986428D01*
X74047619Y-131986428D02*
X73857143Y-131938809D01*
X73857143Y-131938809D02*
X73761905Y-131891190D01*
X73761905Y-131891190D02*
X73714286Y-131843571D01*
X73714286Y-131843571D02*
X73666667Y-131748333D01*
X73666667Y-131748333D02*
X73666667Y-131653095D01*
X73666667Y-131653095D02*
X73714286Y-131557857D01*
X73714286Y-131557857D02*
X73761905Y-131510238D01*
X73761905Y-131510238D02*
X73857143Y-131462619D01*
X73857143Y-131462619D02*
X74095238Y-131462619D01*
X74095238Y-131462619D02*
X74238095Y-131510238D01*
X74571429Y-131462619D02*
X74809524Y-132462619D01*
X74809524Y-132462619D02*
X75000000Y-131748333D01*
X75000000Y-131748333D02*
X75190476Y-132462619D01*
X75190476Y-132462619D02*
X75428572Y-131462619D01*
X76333333Y-132462619D02*
X75761905Y-132462619D01*
X76047619Y-132462619D02*
X76047619Y-131462619D01*
X76047619Y-131462619D02*
X75952381Y-131605476D01*
X75952381Y-131605476D02*
X75857143Y-131700714D01*
X75857143Y-131700714D02*
X75761905Y-131748333D01*
%TO.C,U5*%
X133612619Y-108961904D02*
X134422142Y-108961904D01*
X134422142Y-108961904D02*
X134517380Y-108914285D01*
X134517380Y-108914285D02*
X134565000Y-108866666D01*
X134565000Y-108866666D02*
X134612619Y-108771428D01*
X134612619Y-108771428D02*
X134612619Y-108580952D01*
X134612619Y-108580952D02*
X134565000Y-108485714D01*
X134565000Y-108485714D02*
X134517380Y-108438095D01*
X134517380Y-108438095D02*
X134422142Y-108390476D01*
X134422142Y-108390476D02*
X133612619Y-108390476D01*
X133612619Y-107438095D02*
X133612619Y-107914285D01*
X133612619Y-107914285D02*
X134088809Y-107961904D01*
X134088809Y-107961904D02*
X134041190Y-107914285D01*
X134041190Y-107914285D02*
X133993571Y-107819047D01*
X133993571Y-107819047D02*
X133993571Y-107580952D01*
X133993571Y-107580952D02*
X134041190Y-107485714D01*
X134041190Y-107485714D02*
X134088809Y-107438095D01*
X134088809Y-107438095D02*
X134184047Y-107390476D01*
X134184047Y-107390476D02*
X134422142Y-107390476D01*
X134422142Y-107390476D02*
X134517380Y-107438095D01*
X134517380Y-107438095D02*
X134565000Y-107485714D01*
X134565000Y-107485714D02*
X134612619Y-107580952D01*
X134612619Y-107580952D02*
X134612619Y-107819047D01*
X134612619Y-107819047D02*
X134565000Y-107914285D01*
X134565000Y-107914285D02*
X134517380Y-107961904D01*
%TO.C,R29*%
X125862619Y-92142857D02*
X125386428Y-92476190D01*
X125862619Y-92714285D02*
X124862619Y-92714285D01*
X124862619Y-92714285D02*
X124862619Y-92333333D01*
X124862619Y-92333333D02*
X124910238Y-92238095D01*
X124910238Y-92238095D02*
X124957857Y-92190476D01*
X124957857Y-92190476D02*
X125053095Y-92142857D01*
X125053095Y-92142857D02*
X125195952Y-92142857D01*
X125195952Y-92142857D02*
X125291190Y-92190476D01*
X125291190Y-92190476D02*
X125338809Y-92238095D01*
X125338809Y-92238095D02*
X125386428Y-92333333D01*
X125386428Y-92333333D02*
X125386428Y-92714285D01*
X124957857Y-91761904D02*
X124910238Y-91714285D01*
X124910238Y-91714285D02*
X124862619Y-91619047D01*
X124862619Y-91619047D02*
X124862619Y-91380952D01*
X124862619Y-91380952D02*
X124910238Y-91285714D01*
X124910238Y-91285714D02*
X124957857Y-91238095D01*
X124957857Y-91238095D02*
X125053095Y-91190476D01*
X125053095Y-91190476D02*
X125148333Y-91190476D01*
X125148333Y-91190476D02*
X125291190Y-91238095D01*
X125291190Y-91238095D02*
X125862619Y-91809523D01*
X125862619Y-91809523D02*
X125862619Y-91190476D01*
X125862619Y-90714285D02*
X125862619Y-90523809D01*
X125862619Y-90523809D02*
X125815000Y-90428571D01*
X125815000Y-90428571D02*
X125767380Y-90380952D01*
X125767380Y-90380952D02*
X125624523Y-90285714D01*
X125624523Y-90285714D02*
X125434047Y-90238095D01*
X125434047Y-90238095D02*
X125053095Y-90238095D01*
X125053095Y-90238095D02*
X124957857Y-90285714D01*
X124957857Y-90285714D02*
X124910238Y-90333333D01*
X124910238Y-90333333D02*
X124862619Y-90428571D01*
X124862619Y-90428571D02*
X124862619Y-90619047D01*
X124862619Y-90619047D02*
X124910238Y-90714285D01*
X124910238Y-90714285D02*
X124957857Y-90761904D01*
X124957857Y-90761904D02*
X125053095Y-90809523D01*
X125053095Y-90809523D02*
X125291190Y-90809523D01*
X125291190Y-90809523D02*
X125386428Y-90761904D01*
X125386428Y-90761904D02*
X125434047Y-90714285D01*
X125434047Y-90714285D02*
X125481666Y-90619047D01*
X125481666Y-90619047D02*
X125481666Y-90428571D01*
X125481666Y-90428571D02*
X125434047Y-90333333D01*
X125434047Y-90333333D02*
X125386428Y-90285714D01*
X125386428Y-90285714D02*
X125291190Y-90238095D01*
%TO.C,R16*%
X121462619Y-115042857D02*
X120986428Y-115376190D01*
X121462619Y-115614285D02*
X120462619Y-115614285D01*
X120462619Y-115614285D02*
X120462619Y-115233333D01*
X120462619Y-115233333D02*
X120510238Y-115138095D01*
X120510238Y-115138095D02*
X120557857Y-115090476D01*
X120557857Y-115090476D02*
X120653095Y-115042857D01*
X120653095Y-115042857D02*
X120795952Y-115042857D01*
X120795952Y-115042857D02*
X120891190Y-115090476D01*
X120891190Y-115090476D02*
X120938809Y-115138095D01*
X120938809Y-115138095D02*
X120986428Y-115233333D01*
X120986428Y-115233333D02*
X120986428Y-115614285D01*
X121462619Y-114090476D02*
X121462619Y-114661904D01*
X121462619Y-114376190D02*
X120462619Y-114376190D01*
X120462619Y-114376190D02*
X120605476Y-114471428D01*
X120605476Y-114471428D02*
X120700714Y-114566666D01*
X120700714Y-114566666D02*
X120748333Y-114661904D01*
X120462619Y-113233333D02*
X120462619Y-113423809D01*
X120462619Y-113423809D02*
X120510238Y-113519047D01*
X120510238Y-113519047D02*
X120557857Y-113566666D01*
X120557857Y-113566666D02*
X120700714Y-113661904D01*
X120700714Y-113661904D02*
X120891190Y-113709523D01*
X120891190Y-113709523D02*
X121272142Y-113709523D01*
X121272142Y-113709523D02*
X121367380Y-113661904D01*
X121367380Y-113661904D02*
X121415000Y-113614285D01*
X121415000Y-113614285D02*
X121462619Y-113519047D01*
X121462619Y-113519047D02*
X121462619Y-113328571D01*
X121462619Y-113328571D02*
X121415000Y-113233333D01*
X121415000Y-113233333D02*
X121367380Y-113185714D01*
X121367380Y-113185714D02*
X121272142Y-113138095D01*
X121272142Y-113138095D02*
X121034047Y-113138095D01*
X121034047Y-113138095D02*
X120938809Y-113185714D01*
X120938809Y-113185714D02*
X120891190Y-113233333D01*
X120891190Y-113233333D02*
X120843571Y-113328571D01*
X120843571Y-113328571D02*
X120843571Y-113519047D01*
X120843571Y-113519047D02*
X120891190Y-113614285D01*
X120891190Y-113614285D02*
X120938809Y-113661904D01*
X120938809Y-113661904D02*
X121034047Y-113709523D01*
%TO.C,R3*%
X79562619Y-92666666D02*
X79086428Y-92999999D01*
X79562619Y-93238094D02*
X78562619Y-93238094D01*
X78562619Y-93238094D02*
X78562619Y-92857142D01*
X78562619Y-92857142D02*
X78610238Y-92761904D01*
X78610238Y-92761904D02*
X78657857Y-92714285D01*
X78657857Y-92714285D02*
X78753095Y-92666666D01*
X78753095Y-92666666D02*
X78895952Y-92666666D01*
X78895952Y-92666666D02*
X78991190Y-92714285D01*
X78991190Y-92714285D02*
X79038809Y-92761904D01*
X79038809Y-92761904D02*
X79086428Y-92857142D01*
X79086428Y-92857142D02*
X79086428Y-93238094D01*
X78562619Y-92333332D02*
X78562619Y-91714285D01*
X78562619Y-91714285D02*
X78943571Y-92047618D01*
X78943571Y-92047618D02*
X78943571Y-91904761D01*
X78943571Y-91904761D02*
X78991190Y-91809523D01*
X78991190Y-91809523D02*
X79038809Y-91761904D01*
X79038809Y-91761904D02*
X79134047Y-91714285D01*
X79134047Y-91714285D02*
X79372142Y-91714285D01*
X79372142Y-91714285D02*
X79467380Y-91761904D01*
X79467380Y-91761904D02*
X79515000Y-91809523D01*
X79515000Y-91809523D02*
X79562619Y-91904761D01*
X79562619Y-91904761D02*
X79562619Y-92190475D01*
X79562619Y-92190475D02*
X79515000Y-92285713D01*
X79515000Y-92285713D02*
X79467380Y-92333332D01*
%TO.C,R2*%
X79562619Y-96066666D02*
X79086428Y-96399999D01*
X79562619Y-96638094D02*
X78562619Y-96638094D01*
X78562619Y-96638094D02*
X78562619Y-96257142D01*
X78562619Y-96257142D02*
X78610238Y-96161904D01*
X78610238Y-96161904D02*
X78657857Y-96114285D01*
X78657857Y-96114285D02*
X78753095Y-96066666D01*
X78753095Y-96066666D02*
X78895952Y-96066666D01*
X78895952Y-96066666D02*
X78991190Y-96114285D01*
X78991190Y-96114285D02*
X79038809Y-96161904D01*
X79038809Y-96161904D02*
X79086428Y-96257142D01*
X79086428Y-96257142D02*
X79086428Y-96638094D01*
X78657857Y-95685713D02*
X78610238Y-95638094D01*
X78610238Y-95638094D02*
X78562619Y-95542856D01*
X78562619Y-95542856D02*
X78562619Y-95304761D01*
X78562619Y-95304761D02*
X78610238Y-95209523D01*
X78610238Y-95209523D02*
X78657857Y-95161904D01*
X78657857Y-95161904D02*
X78753095Y-95114285D01*
X78753095Y-95114285D02*
X78848333Y-95114285D01*
X78848333Y-95114285D02*
X78991190Y-95161904D01*
X78991190Y-95161904D02*
X79562619Y-95733332D01*
X79562619Y-95733332D02*
X79562619Y-95114285D01*
%TO.C,J2*%
X76462619Y-87533333D02*
X77176904Y-87533333D01*
X77176904Y-87533333D02*
X77319761Y-87580952D01*
X77319761Y-87580952D02*
X77415000Y-87676190D01*
X77415000Y-87676190D02*
X77462619Y-87819047D01*
X77462619Y-87819047D02*
X77462619Y-87914285D01*
X76557857Y-87104761D02*
X76510238Y-87057142D01*
X76510238Y-87057142D02*
X76462619Y-86961904D01*
X76462619Y-86961904D02*
X76462619Y-86723809D01*
X76462619Y-86723809D02*
X76510238Y-86628571D01*
X76510238Y-86628571D02*
X76557857Y-86580952D01*
X76557857Y-86580952D02*
X76653095Y-86533333D01*
X76653095Y-86533333D02*
X76748333Y-86533333D01*
X76748333Y-86533333D02*
X76891190Y-86580952D01*
X76891190Y-86580952D02*
X77462619Y-87152380D01*
X77462619Y-87152380D02*
X77462619Y-86533333D01*
%TO.C,U7*%
X119138095Y-97562619D02*
X119138095Y-98372142D01*
X119138095Y-98372142D02*
X119185714Y-98467380D01*
X119185714Y-98467380D02*
X119233333Y-98515000D01*
X119233333Y-98515000D02*
X119328571Y-98562619D01*
X119328571Y-98562619D02*
X119519047Y-98562619D01*
X119519047Y-98562619D02*
X119614285Y-98515000D01*
X119614285Y-98515000D02*
X119661904Y-98467380D01*
X119661904Y-98467380D02*
X119709523Y-98372142D01*
X119709523Y-98372142D02*
X119709523Y-97562619D01*
X120090476Y-97562619D02*
X120757142Y-97562619D01*
X120757142Y-97562619D02*
X120328571Y-98562619D01*
%TO.C,D7*%
X127962619Y-92138094D02*
X126962619Y-92138094D01*
X126962619Y-92138094D02*
X126962619Y-91899999D01*
X126962619Y-91899999D02*
X127010238Y-91757142D01*
X127010238Y-91757142D02*
X127105476Y-91661904D01*
X127105476Y-91661904D02*
X127200714Y-91614285D01*
X127200714Y-91614285D02*
X127391190Y-91566666D01*
X127391190Y-91566666D02*
X127534047Y-91566666D01*
X127534047Y-91566666D02*
X127724523Y-91614285D01*
X127724523Y-91614285D02*
X127819761Y-91661904D01*
X127819761Y-91661904D02*
X127915000Y-91757142D01*
X127915000Y-91757142D02*
X127962619Y-91899999D01*
X127962619Y-91899999D02*
X127962619Y-92138094D01*
X126962619Y-91233332D02*
X126962619Y-90566666D01*
X126962619Y-90566666D02*
X127962619Y-90995237D01*
%TO.C,H3*%
X137838095Y-135262619D02*
X137838095Y-134262619D01*
X137838095Y-134738809D02*
X138409523Y-134738809D01*
X138409523Y-135262619D02*
X138409523Y-134262619D01*
X138790476Y-134262619D02*
X139409523Y-134262619D01*
X139409523Y-134262619D02*
X139076190Y-134643571D01*
X139076190Y-134643571D02*
X139219047Y-134643571D01*
X139219047Y-134643571D02*
X139314285Y-134691190D01*
X139314285Y-134691190D02*
X139361904Y-134738809D01*
X139361904Y-134738809D02*
X139409523Y-134834047D01*
X139409523Y-134834047D02*
X139409523Y-135072142D01*
X139409523Y-135072142D02*
X139361904Y-135167380D01*
X139361904Y-135167380D02*
X139314285Y-135215000D01*
X139314285Y-135215000D02*
X139219047Y-135262619D01*
X139219047Y-135262619D02*
X138933333Y-135262619D01*
X138933333Y-135262619D02*
X138838095Y-135215000D01*
X138838095Y-135215000D02*
X138790476Y-135167380D01*
%TO.C,C15*%
X134467380Y-105542857D02*
X134515000Y-105590476D01*
X134515000Y-105590476D02*
X134562619Y-105733333D01*
X134562619Y-105733333D02*
X134562619Y-105828571D01*
X134562619Y-105828571D02*
X134515000Y-105971428D01*
X134515000Y-105971428D02*
X134419761Y-106066666D01*
X134419761Y-106066666D02*
X134324523Y-106114285D01*
X134324523Y-106114285D02*
X134134047Y-106161904D01*
X134134047Y-106161904D02*
X133991190Y-106161904D01*
X133991190Y-106161904D02*
X133800714Y-106114285D01*
X133800714Y-106114285D02*
X133705476Y-106066666D01*
X133705476Y-106066666D02*
X133610238Y-105971428D01*
X133610238Y-105971428D02*
X133562619Y-105828571D01*
X133562619Y-105828571D02*
X133562619Y-105733333D01*
X133562619Y-105733333D02*
X133610238Y-105590476D01*
X133610238Y-105590476D02*
X133657857Y-105542857D01*
X134562619Y-104590476D02*
X134562619Y-105161904D01*
X134562619Y-104876190D02*
X133562619Y-104876190D01*
X133562619Y-104876190D02*
X133705476Y-104971428D01*
X133705476Y-104971428D02*
X133800714Y-105066666D01*
X133800714Y-105066666D02*
X133848333Y-105161904D01*
X133562619Y-103685714D02*
X133562619Y-104161904D01*
X133562619Y-104161904D02*
X134038809Y-104209523D01*
X134038809Y-104209523D02*
X133991190Y-104161904D01*
X133991190Y-104161904D02*
X133943571Y-104066666D01*
X133943571Y-104066666D02*
X133943571Y-103828571D01*
X133943571Y-103828571D02*
X133991190Y-103733333D01*
X133991190Y-103733333D02*
X134038809Y-103685714D01*
X134038809Y-103685714D02*
X134134047Y-103638095D01*
X134134047Y-103638095D02*
X134372142Y-103638095D01*
X134372142Y-103638095D02*
X134467380Y-103685714D01*
X134467380Y-103685714D02*
X134515000Y-103733333D01*
X134515000Y-103733333D02*
X134562619Y-103828571D01*
X134562619Y-103828571D02*
X134562619Y-104066666D01*
X134562619Y-104066666D02*
X134515000Y-104161904D01*
X134515000Y-104161904D02*
X134467380Y-104209523D01*
%TO.C,R26*%
X134632619Y-113130357D02*
X134156428Y-113463690D01*
X134632619Y-113701785D02*
X133632619Y-113701785D01*
X133632619Y-113701785D02*
X133632619Y-113320833D01*
X133632619Y-113320833D02*
X133680238Y-113225595D01*
X133680238Y-113225595D02*
X133727857Y-113177976D01*
X133727857Y-113177976D02*
X133823095Y-113130357D01*
X133823095Y-113130357D02*
X133965952Y-113130357D01*
X133965952Y-113130357D02*
X134061190Y-113177976D01*
X134061190Y-113177976D02*
X134108809Y-113225595D01*
X134108809Y-113225595D02*
X134156428Y-113320833D01*
X134156428Y-113320833D02*
X134156428Y-113701785D01*
X133727857Y-112749404D02*
X133680238Y-112701785D01*
X133680238Y-112701785D02*
X133632619Y-112606547D01*
X133632619Y-112606547D02*
X133632619Y-112368452D01*
X133632619Y-112368452D02*
X133680238Y-112273214D01*
X133680238Y-112273214D02*
X133727857Y-112225595D01*
X133727857Y-112225595D02*
X133823095Y-112177976D01*
X133823095Y-112177976D02*
X133918333Y-112177976D01*
X133918333Y-112177976D02*
X134061190Y-112225595D01*
X134061190Y-112225595D02*
X134632619Y-112797023D01*
X134632619Y-112797023D02*
X134632619Y-112177976D01*
X133632619Y-111320833D02*
X133632619Y-111511309D01*
X133632619Y-111511309D02*
X133680238Y-111606547D01*
X133680238Y-111606547D02*
X133727857Y-111654166D01*
X133727857Y-111654166D02*
X133870714Y-111749404D01*
X133870714Y-111749404D02*
X134061190Y-111797023D01*
X134061190Y-111797023D02*
X134442142Y-111797023D01*
X134442142Y-111797023D02*
X134537380Y-111749404D01*
X134537380Y-111749404D02*
X134585000Y-111701785D01*
X134585000Y-111701785D02*
X134632619Y-111606547D01*
X134632619Y-111606547D02*
X134632619Y-111416071D01*
X134632619Y-111416071D02*
X134585000Y-111320833D01*
X134585000Y-111320833D02*
X134537380Y-111273214D01*
X134537380Y-111273214D02*
X134442142Y-111225595D01*
X134442142Y-111225595D02*
X134204047Y-111225595D01*
X134204047Y-111225595D02*
X134108809Y-111273214D01*
X134108809Y-111273214D02*
X134061190Y-111320833D01*
X134061190Y-111320833D02*
X134013571Y-111416071D01*
X134013571Y-111416071D02*
X134013571Y-111606547D01*
X134013571Y-111606547D02*
X134061190Y-111701785D01*
X134061190Y-111701785D02*
X134108809Y-111749404D01*
X134108809Y-111749404D02*
X134204047Y-111797023D01*
%TO.C,R1*%
X106362619Y-125166666D02*
X105886428Y-125499999D01*
X106362619Y-125738094D02*
X105362619Y-125738094D01*
X105362619Y-125738094D02*
X105362619Y-125357142D01*
X105362619Y-125357142D02*
X105410238Y-125261904D01*
X105410238Y-125261904D02*
X105457857Y-125214285D01*
X105457857Y-125214285D02*
X105553095Y-125166666D01*
X105553095Y-125166666D02*
X105695952Y-125166666D01*
X105695952Y-125166666D02*
X105791190Y-125214285D01*
X105791190Y-125214285D02*
X105838809Y-125261904D01*
X105838809Y-125261904D02*
X105886428Y-125357142D01*
X105886428Y-125357142D02*
X105886428Y-125738094D01*
X106362619Y-124214285D02*
X106362619Y-124785713D01*
X106362619Y-124499999D02*
X105362619Y-124499999D01*
X105362619Y-124499999D02*
X105505476Y-124595237D01*
X105505476Y-124595237D02*
X105600714Y-124690475D01*
X105600714Y-124690475D02*
X105648333Y-124785713D01*
%TO.C,R23*%
X141162619Y-109505357D02*
X140686428Y-109838690D01*
X141162619Y-110076785D02*
X140162619Y-110076785D01*
X140162619Y-110076785D02*
X140162619Y-109695833D01*
X140162619Y-109695833D02*
X140210238Y-109600595D01*
X140210238Y-109600595D02*
X140257857Y-109552976D01*
X140257857Y-109552976D02*
X140353095Y-109505357D01*
X140353095Y-109505357D02*
X140495952Y-109505357D01*
X140495952Y-109505357D02*
X140591190Y-109552976D01*
X140591190Y-109552976D02*
X140638809Y-109600595D01*
X140638809Y-109600595D02*
X140686428Y-109695833D01*
X140686428Y-109695833D02*
X140686428Y-110076785D01*
X140257857Y-109124404D02*
X140210238Y-109076785D01*
X140210238Y-109076785D02*
X140162619Y-108981547D01*
X140162619Y-108981547D02*
X140162619Y-108743452D01*
X140162619Y-108743452D02*
X140210238Y-108648214D01*
X140210238Y-108648214D02*
X140257857Y-108600595D01*
X140257857Y-108600595D02*
X140353095Y-108552976D01*
X140353095Y-108552976D02*
X140448333Y-108552976D01*
X140448333Y-108552976D02*
X140591190Y-108600595D01*
X140591190Y-108600595D02*
X141162619Y-109172023D01*
X141162619Y-109172023D02*
X141162619Y-108552976D01*
X140162619Y-108219642D02*
X140162619Y-107600595D01*
X140162619Y-107600595D02*
X140543571Y-107933928D01*
X140543571Y-107933928D02*
X140543571Y-107791071D01*
X140543571Y-107791071D02*
X140591190Y-107695833D01*
X140591190Y-107695833D02*
X140638809Y-107648214D01*
X140638809Y-107648214D02*
X140734047Y-107600595D01*
X140734047Y-107600595D02*
X140972142Y-107600595D01*
X140972142Y-107600595D02*
X141067380Y-107648214D01*
X141067380Y-107648214D02*
X141115000Y-107695833D01*
X141115000Y-107695833D02*
X141162619Y-107791071D01*
X141162619Y-107791071D02*
X141162619Y-108076785D01*
X141162619Y-108076785D02*
X141115000Y-108172023D01*
X141115000Y-108172023D02*
X141067380Y-108219642D01*
%TO.C,R27*%
X129162619Y-98342857D02*
X128686428Y-98676190D01*
X129162619Y-98914285D02*
X128162619Y-98914285D01*
X128162619Y-98914285D02*
X128162619Y-98533333D01*
X128162619Y-98533333D02*
X128210238Y-98438095D01*
X128210238Y-98438095D02*
X128257857Y-98390476D01*
X128257857Y-98390476D02*
X128353095Y-98342857D01*
X128353095Y-98342857D02*
X128495952Y-98342857D01*
X128495952Y-98342857D02*
X128591190Y-98390476D01*
X128591190Y-98390476D02*
X128638809Y-98438095D01*
X128638809Y-98438095D02*
X128686428Y-98533333D01*
X128686428Y-98533333D02*
X128686428Y-98914285D01*
X128257857Y-97961904D02*
X128210238Y-97914285D01*
X128210238Y-97914285D02*
X128162619Y-97819047D01*
X128162619Y-97819047D02*
X128162619Y-97580952D01*
X128162619Y-97580952D02*
X128210238Y-97485714D01*
X128210238Y-97485714D02*
X128257857Y-97438095D01*
X128257857Y-97438095D02*
X128353095Y-97390476D01*
X128353095Y-97390476D02*
X128448333Y-97390476D01*
X128448333Y-97390476D02*
X128591190Y-97438095D01*
X128591190Y-97438095D02*
X129162619Y-98009523D01*
X129162619Y-98009523D02*
X129162619Y-97390476D01*
X128162619Y-97057142D02*
X128162619Y-96390476D01*
X128162619Y-96390476D02*
X129162619Y-96819047D01*
%TO.C,Q3*%
X128857857Y-125895238D02*
X128810238Y-125990476D01*
X128810238Y-125990476D02*
X128715000Y-126085714D01*
X128715000Y-126085714D02*
X128572142Y-126228571D01*
X128572142Y-126228571D02*
X128524523Y-126323809D01*
X128524523Y-126323809D02*
X128524523Y-126419047D01*
X128762619Y-126371428D02*
X128715000Y-126466666D01*
X128715000Y-126466666D02*
X128619761Y-126561904D01*
X128619761Y-126561904D02*
X128429285Y-126609523D01*
X128429285Y-126609523D02*
X128095952Y-126609523D01*
X128095952Y-126609523D02*
X127905476Y-126561904D01*
X127905476Y-126561904D02*
X127810238Y-126466666D01*
X127810238Y-126466666D02*
X127762619Y-126371428D01*
X127762619Y-126371428D02*
X127762619Y-126180952D01*
X127762619Y-126180952D02*
X127810238Y-126085714D01*
X127810238Y-126085714D02*
X127905476Y-125990476D01*
X127905476Y-125990476D02*
X128095952Y-125942857D01*
X128095952Y-125942857D02*
X128429285Y-125942857D01*
X128429285Y-125942857D02*
X128619761Y-125990476D01*
X128619761Y-125990476D02*
X128715000Y-126085714D01*
X128715000Y-126085714D02*
X128762619Y-126180952D01*
X128762619Y-126180952D02*
X128762619Y-126371428D01*
X127762619Y-125609523D02*
X127762619Y-124990476D01*
X127762619Y-124990476D02*
X128143571Y-125323809D01*
X128143571Y-125323809D02*
X128143571Y-125180952D01*
X128143571Y-125180952D02*
X128191190Y-125085714D01*
X128191190Y-125085714D02*
X128238809Y-125038095D01*
X128238809Y-125038095D02*
X128334047Y-124990476D01*
X128334047Y-124990476D02*
X128572142Y-124990476D01*
X128572142Y-124990476D02*
X128667380Y-125038095D01*
X128667380Y-125038095D02*
X128715000Y-125085714D01*
X128715000Y-125085714D02*
X128762619Y-125180952D01*
X128762619Y-125180952D02*
X128762619Y-125466666D01*
X128762619Y-125466666D02*
X128715000Y-125561904D01*
X128715000Y-125561904D02*
X128667380Y-125609523D01*
%TO.C,D9*%
X116862619Y-91138094D02*
X115862619Y-91138094D01*
X115862619Y-91138094D02*
X115862619Y-90899999D01*
X115862619Y-90899999D02*
X115910238Y-90757142D01*
X115910238Y-90757142D02*
X116005476Y-90661904D01*
X116005476Y-90661904D02*
X116100714Y-90614285D01*
X116100714Y-90614285D02*
X116291190Y-90566666D01*
X116291190Y-90566666D02*
X116434047Y-90566666D01*
X116434047Y-90566666D02*
X116624523Y-90614285D01*
X116624523Y-90614285D02*
X116719761Y-90661904D01*
X116719761Y-90661904D02*
X116815000Y-90757142D01*
X116815000Y-90757142D02*
X116862619Y-90899999D01*
X116862619Y-90899999D02*
X116862619Y-91138094D01*
X116862619Y-90090475D02*
X116862619Y-89899999D01*
X116862619Y-89899999D02*
X116815000Y-89804761D01*
X116815000Y-89804761D02*
X116767380Y-89757142D01*
X116767380Y-89757142D02*
X116624523Y-89661904D01*
X116624523Y-89661904D02*
X116434047Y-89614285D01*
X116434047Y-89614285D02*
X116053095Y-89614285D01*
X116053095Y-89614285D02*
X115957857Y-89661904D01*
X115957857Y-89661904D02*
X115910238Y-89709523D01*
X115910238Y-89709523D02*
X115862619Y-89804761D01*
X115862619Y-89804761D02*
X115862619Y-89995237D01*
X115862619Y-89995237D02*
X115910238Y-90090475D01*
X115910238Y-90090475D02*
X115957857Y-90138094D01*
X115957857Y-90138094D02*
X116053095Y-90185713D01*
X116053095Y-90185713D02*
X116291190Y-90185713D01*
X116291190Y-90185713D02*
X116386428Y-90138094D01*
X116386428Y-90138094D02*
X116434047Y-90090475D01*
X116434047Y-90090475D02*
X116481666Y-89995237D01*
X116481666Y-89995237D02*
X116481666Y-89804761D01*
X116481666Y-89804761D02*
X116434047Y-89709523D01*
X116434047Y-89709523D02*
X116386428Y-89661904D01*
X116386428Y-89661904D02*
X116291190Y-89614285D01*
%TO.C,R8*%
X75733333Y-107262619D02*
X75400000Y-106786428D01*
X75161905Y-107262619D02*
X75161905Y-106262619D01*
X75161905Y-106262619D02*
X75542857Y-106262619D01*
X75542857Y-106262619D02*
X75638095Y-106310238D01*
X75638095Y-106310238D02*
X75685714Y-106357857D01*
X75685714Y-106357857D02*
X75733333Y-106453095D01*
X75733333Y-106453095D02*
X75733333Y-106595952D01*
X75733333Y-106595952D02*
X75685714Y-106691190D01*
X75685714Y-106691190D02*
X75638095Y-106738809D01*
X75638095Y-106738809D02*
X75542857Y-106786428D01*
X75542857Y-106786428D02*
X75161905Y-106786428D01*
X76304762Y-106691190D02*
X76209524Y-106643571D01*
X76209524Y-106643571D02*
X76161905Y-106595952D01*
X76161905Y-106595952D02*
X76114286Y-106500714D01*
X76114286Y-106500714D02*
X76114286Y-106453095D01*
X76114286Y-106453095D02*
X76161905Y-106357857D01*
X76161905Y-106357857D02*
X76209524Y-106310238D01*
X76209524Y-106310238D02*
X76304762Y-106262619D01*
X76304762Y-106262619D02*
X76495238Y-106262619D01*
X76495238Y-106262619D02*
X76590476Y-106310238D01*
X76590476Y-106310238D02*
X76638095Y-106357857D01*
X76638095Y-106357857D02*
X76685714Y-106453095D01*
X76685714Y-106453095D02*
X76685714Y-106500714D01*
X76685714Y-106500714D02*
X76638095Y-106595952D01*
X76638095Y-106595952D02*
X76590476Y-106643571D01*
X76590476Y-106643571D02*
X76495238Y-106691190D01*
X76495238Y-106691190D02*
X76304762Y-106691190D01*
X76304762Y-106691190D02*
X76209524Y-106738809D01*
X76209524Y-106738809D02*
X76161905Y-106786428D01*
X76161905Y-106786428D02*
X76114286Y-106881666D01*
X76114286Y-106881666D02*
X76114286Y-107072142D01*
X76114286Y-107072142D02*
X76161905Y-107167380D01*
X76161905Y-107167380D02*
X76209524Y-107215000D01*
X76209524Y-107215000D02*
X76304762Y-107262619D01*
X76304762Y-107262619D02*
X76495238Y-107262619D01*
X76495238Y-107262619D02*
X76590476Y-107215000D01*
X76590476Y-107215000D02*
X76638095Y-107167380D01*
X76638095Y-107167380D02*
X76685714Y-107072142D01*
X76685714Y-107072142D02*
X76685714Y-106881666D01*
X76685714Y-106881666D02*
X76638095Y-106786428D01*
X76638095Y-106786428D02*
X76590476Y-106738809D01*
X76590476Y-106738809D02*
X76495238Y-106691190D01*
%TO.C,C18*%
X117957142Y-87167380D02*
X117909523Y-87215000D01*
X117909523Y-87215000D02*
X117766666Y-87262619D01*
X117766666Y-87262619D02*
X117671428Y-87262619D01*
X117671428Y-87262619D02*
X117528571Y-87215000D01*
X117528571Y-87215000D02*
X117433333Y-87119761D01*
X117433333Y-87119761D02*
X117385714Y-87024523D01*
X117385714Y-87024523D02*
X117338095Y-86834047D01*
X117338095Y-86834047D02*
X117338095Y-86691190D01*
X117338095Y-86691190D02*
X117385714Y-86500714D01*
X117385714Y-86500714D02*
X117433333Y-86405476D01*
X117433333Y-86405476D02*
X117528571Y-86310238D01*
X117528571Y-86310238D02*
X117671428Y-86262619D01*
X117671428Y-86262619D02*
X117766666Y-86262619D01*
X117766666Y-86262619D02*
X117909523Y-86310238D01*
X117909523Y-86310238D02*
X117957142Y-86357857D01*
X118909523Y-87262619D02*
X118338095Y-87262619D01*
X118623809Y-87262619D02*
X118623809Y-86262619D01*
X118623809Y-86262619D02*
X118528571Y-86405476D01*
X118528571Y-86405476D02*
X118433333Y-86500714D01*
X118433333Y-86500714D02*
X118338095Y-86548333D01*
X119480952Y-86691190D02*
X119385714Y-86643571D01*
X119385714Y-86643571D02*
X119338095Y-86595952D01*
X119338095Y-86595952D02*
X119290476Y-86500714D01*
X119290476Y-86500714D02*
X119290476Y-86453095D01*
X119290476Y-86453095D02*
X119338095Y-86357857D01*
X119338095Y-86357857D02*
X119385714Y-86310238D01*
X119385714Y-86310238D02*
X119480952Y-86262619D01*
X119480952Y-86262619D02*
X119671428Y-86262619D01*
X119671428Y-86262619D02*
X119766666Y-86310238D01*
X119766666Y-86310238D02*
X119814285Y-86357857D01*
X119814285Y-86357857D02*
X119861904Y-86453095D01*
X119861904Y-86453095D02*
X119861904Y-86500714D01*
X119861904Y-86500714D02*
X119814285Y-86595952D01*
X119814285Y-86595952D02*
X119766666Y-86643571D01*
X119766666Y-86643571D02*
X119671428Y-86691190D01*
X119671428Y-86691190D02*
X119480952Y-86691190D01*
X119480952Y-86691190D02*
X119385714Y-86738809D01*
X119385714Y-86738809D02*
X119338095Y-86786428D01*
X119338095Y-86786428D02*
X119290476Y-86881666D01*
X119290476Y-86881666D02*
X119290476Y-87072142D01*
X119290476Y-87072142D02*
X119338095Y-87167380D01*
X119338095Y-87167380D02*
X119385714Y-87215000D01*
X119385714Y-87215000D02*
X119480952Y-87262619D01*
X119480952Y-87262619D02*
X119671428Y-87262619D01*
X119671428Y-87262619D02*
X119766666Y-87215000D01*
X119766666Y-87215000D02*
X119814285Y-87167380D01*
X119814285Y-87167380D02*
X119861904Y-87072142D01*
X119861904Y-87072142D02*
X119861904Y-86881666D01*
X119861904Y-86881666D02*
X119814285Y-86786428D01*
X119814285Y-86786428D02*
X119766666Y-86738809D01*
X119766666Y-86738809D02*
X119671428Y-86691190D01*
%TO.C,C3*%
X76537380Y-102666666D02*
X76585000Y-102714285D01*
X76585000Y-102714285D02*
X76632619Y-102857142D01*
X76632619Y-102857142D02*
X76632619Y-102952380D01*
X76632619Y-102952380D02*
X76585000Y-103095237D01*
X76585000Y-103095237D02*
X76489761Y-103190475D01*
X76489761Y-103190475D02*
X76394523Y-103238094D01*
X76394523Y-103238094D02*
X76204047Y-103285713D01*
X76204047Y-103285713D02*
X76061190Y-103285713D01*
X76061190Y-103285713D02*
X75870714Y-103238094D01*
X75870714Y-103238094D02*
X75775476Y-103190475D01*
X75775476Y-103190475D02*
X75680238Y-103095237D01*
X75680238Y-103095237D02*
X75632619Y-102952380D01*
X75632619Y-102952380D02*
X75632619Y-102857142D01*
X75632619Y-102857142D02*
X75680238Y-102714285D01*
X75680238Y-102714285D02*
X75727857Y-102666666D01*
X75632619Y-102333332D02*
X75632619Y-101714285D01*
X75632619Y-101714285D02*
X76013571Y-102047618D01*
X76013571Y-102047618D02*
X76013571Y-101904761D01*
X76013571Y-101904761D02*
X76061190Y-101809523D01*
X76061190Y-101809523D02*
X76108809Y-101761904D01*
X76108809Y-101761904D02*
X76204047Y-101714285D01*
X76204047Y-101714285D02*
X76442142Y-101714285D01*
X76442142Y-101714285D02*
X76537380Y-101761904D01*
X76537380Y-101761904D02*
X76585000Y-101809523D01*
X76585000Y-101809523D02*
X76632619Y-101904761D01*
X76632619Y-101904761D02*
X76632619Y-102190475D01*
X76632619Y-102190475D02*
X76585000Y-102285713D01*
X76585000Y-102285713D02*
X76537380Y-102333332D01*
%TO.C,D6*%
X140362619Y-94838094D02*
X139362619Y-94838094D01*
X139362619Y-94838094D02*
X139362619Y-94599999D01*
X139362619Y-94599999D02*
X139410238Y-94457142D01*
X139410238Y-94457142D02*
X139505476Y-94361904D01*
X139505476Y-94361904D02*
X139600714Y-94314285D01*
X139600714Y-94314285D02*
X139791190Y-94266666D01*
X139791190Y-94266666D02*
X139934047Y-94266666D01*
X139934047Y-94266666D02*
X140124523Y-94314285D01*
X140124523Y-94314285D02*
X140219761Y-94361904D01*
X140219761Y-94361904D02*
X140315000Y-94457142D01*
X140315000Y-94457142D02*
X140362619Y-94599999D01*
X140362619Y-94599999D02*
X140362619Y-94838094D01*
X139362619Y-93409523D02*
X139362619Y-93599999D01*
X139362619Y-93599999D02*
X139410238Y-93695237D01*
X139410238Y-93695237D02*
X139457857Y-93742856D01*
X139457857Y-93742856D02*
X139600714Y-93838094D01*
X139600714Y-93838094D02*
X139791190Y-93885713D01*
X139791190Y-93885713D02*
X140172142Y-93885713D01*
X140172142Y-93885713D02*
X140267380Y-93838094D01*
X140267380Y-93838094D02*
X140315000Y-93790475D01*
X140315000Y-93790475D02*
X140362619Y-93695237D01*
X140362619Y-93695237D02*
X140362619Y-93504761D01*
X140362619Y-93504761D02*
X140315000Y-93409523D01*
X140315000Y-93409523D02*
X140267380Y-93361904D01*
X140267380Y-93361904D02*
X140172142Y-93314285D01*
X140172142Y-93314285D02*
X139934047Y-93314285D01*
X139934047Y-93314285D02*
X139838809Y-93361904D01*
X139838809Y-93361904D02*
X139791190Y-93409523D01*
X139791190Y-93409523D02*
X139743571Y-93504761D01*
X139743571Y-93504761D02*
X139743571Y-93695237D01*
X139743571Y-93695237D02*
X139791190Y-93790475D01*
X139791190Y-93790475D02*
X139838809Y-93838094D01*
X139838809Y-93838094D02*
X139934047Y-93885713D01*
%TO.C,C10*%
X110557142Y-109767380D02*
X110509523Y-109815000D01*
X110509523Y-109815000D02*
X110366666Y-109862619D01*
X110366666Y-109862619D02*
X110271428Y-109862619D01*
X110271428Y-109862619D02*
X110128571Y-109815000D01*
X110128571Y-109815000D02*
X110033333Y-109719761D01*
X110033333Y-109719761D02*
X109985714Y-109624523D01*
X109985714Y-109624523D02*
X109938095Y-109434047D01*
X109938095Y-109434047D02*
X109938095Y-109291190D01*
X109938095Y-109291190D02*
X109985714Y-109100714D01*
X109985714Y-109100714D02*
X110033333Y-109005476D01*
X110033333Y-109005476D02*
X110128571Y-108910238D01*
X110128571Y-108910238D02*
X110271428Y-108862619D01*
X110271428Y-108862619D02*
X110366666Y-108862619D01*
X110366666Y-108862619D02*
X110509523Y-108910238D01*
X110509523Y-108910238D02*
X110557142Y-108957857D01*
X111509523Y-109862619D02*
X110938095Y-109862619D01*
X111223809Y-109862619D02*
X111223809Y-108862619D01*
X111223809Y-108862619D02*
X111128571Y-109005476D01*
X111128571Y-109005476D02*
X111033333Y-109100714D01*
X111033333Y-109100714D02*
X110938095Y-109148333D01*
X112128571Y-108862619D02*
X112223809Y-108862619D01*
X112223809Y-108862619D02*
X112319047Y-108910238D01*
X112319047Y-108910238D02*
X112366666Y-108957857D01*
X112366666Y-108957857D02*
X112414285Y-109053095D01*
X112414285Y-109053095D02*
X112461904Y-109243571D01*
X112461904Y-109243571D02*
X112461904Y-109481666D01*
X112461904Y-109481666D02*
X112414285Y-109672142D01*
X112414285Y-109672142D02*
X112366666Y-109767380D01*
X112366666Y-109767380D02*
X112319047Y-109815000D01*
X112319047Y-109815000D02*
X112223809Y-109862619D01*
X112223809Y-109862619D02*
X112128571Y-109862619D01*
X112128571Y-109862619D02*
X112033333Y-109815000D01*
X112033333Y-109815000D02*
X111985714Y-109767380D01*
X111985714Y-109767380D02*
X111938095Y-109672142D01*
X111938095Y-109672142D02*
X111890476Y-109481666D01*
X111890476Y-109481666D02*
X111890476Y-109243571D01*
X111890476Y-109243571D02*
X111938095Y-109053095D01*
X111938095Y-109053095D02*
X111985714Y-108957857D01*
X111985714Y-108957857D02*
X112033333Y-108910238D01*
X112033333Y-108910238D02*
X112128571Y-108862619D01*
%TO.C,R18*%
X123457142Y-121862619D02*
X123123809Y-121386428D01*
X122885714Y-121862619D02*
X122885714Y-120862619D01*
X122885714Y-120862619D02*
X123266666Y-120862619D01*
X123266666Y-120862619D02*
X123361904Y-120910238D01*
X123361904Y-120910238D02*
X123409523Y-120957857D01*
X123409523Y-120957857D02*
X123457142Y-121053095D01*
X123457142Y-121053095D02*
X123457142Y-121195952D01*
X123457142Y-121195952D02*
X123409523Y-121291190D01*
X123409523Y-121291190D02*
X123361904Y-121338809D01*
X123361904Y-121338809D02*
X123266666Y-121386428D01*
X123266666Y-121386428D02*
X122885714Y-121386428D01*
X124409523Y-121862619D02*
X123838095Y-121862619D01*
X124123809Y-121862619D02*
X124123809Y-120862619D01*
X124123809Y-120862619D02*
X124028571Y-121005476D01*
X124028571Y-121005476D02*
X123933333Y-121100714D01*
X123933333Y-121100714D02*
X123838095Y-121148333D01*
X124980952Y-121291190D02*
X124885714Y-121243571D01*
X124885714Y-121243571D02*
X124838095Y-121195952D01*
X124838095Y-121195952D02*
X124790476Y-121100714D01*
X124790476Y-121100714D02*
X124790476Y-121053095D01*
X124790476Y-121053095D02*
X124838095Y-120957857D01*
X124838095Y-120957857D02*
X124885714Y-120910238D01*
X124885714Y-120910238D02*
X124980952Y-120862619D01*
X124980952Y-120862619D02*
X125171428Y-120862619D01*
X125171428Y-120862619D02*
X125266666Y-120910238D01*
X125266666Y-120910238D02*
X125314285Y-120957857D01*
X125314285Y-120957857D02*
X125361904Y-121053095D01*
X125361904Y-121053095D02*
X125361904Y-121100714D01*
X125361904Y-121100714D02*
X125314285Y-121195952D01*
X125314285Y-121195952D02*
X125266666Y-121243571D01*
X125266666Y-121243571D02*
X125171428Y-121291190D01*
X125171428Y-121291190D02*
X124980952Y-121291190D01*
X124980952Y-121291190D02*
X124885714Y-121338809D01*
X124885714Y-121338809D02*
X124838095Y-121386428D01*
X124838095Y-121386428D02*
X124790476Y-121481666D01*
X124790476Y-121481666D02*
X124790476Y-121672142D01*
X124790476Y-121672142D02*
X124838095Y-121767380D01*
X124838095Y-121767380D02*
X124885714Y-121815000D01*
X124885714Y-121815000D02*
X124980952Y-121862619D01*
X124980952Y-121862619D02*
X125171428Y-121862619D01*
X125171428Y-121862619D02*
X125266666Y-121815000D01*
X125266666Y-121815000D02*
X125314285Y-121767380D01*
X125314285Y-121767380D02*
X125361904Y-121672142D01*
X125361904Y-121672142D02*
X125361904Y-121481666D01*
X125361904Y-121481666D02*
X125314285Y-121386428D01*
X125314285Y-121386428D02*
X125266666Y-121338809D01*
X125266666Y-121338809D02*
X125171428Y-121291190D01*
%TO.C,C12*%
X113607142Y-95987380D02*
X113559523Y-96035000D01*
X113559523Y-96035000D02*
X113416666Y-96082619D01*
X113416666Y-96082619D02*
X113321428Y-96082619D01*
X113321428Y-96082619D02*
X113178571Y-96035000D01*
X113178571Y-96035000D02*
X113083333Y-95939761D01*
X113083333Y-95939761D02*
X113035714Y-95844523D01*
X113035714Y-95844523D02*
X112988095Y-95654047D01*
X112988095Y-95654047D02*
X112988095Y-95511190D01*
X112988095Y-95511190D02*
X113035714Y-95320714D01*
X113035714Y-95320714D02*
X113083333Y-95225476D01*
X113083333Y-95225476D02*
X113178571Y-95130238D01*
X113178571Y-95130238D02*
X113321428Y-95082619D01*
X113321428Y-95082619D02*
X113416666Y-95082619D01*
X113416666Y-95082619D02*
X113559523Y-95130238D01*
X113559523Y-95130238D02*
X113607142Y-95177857D01*
X114559523Y-96082619D02*
X113988095Y-96082619D01*
X114273809Y-96082619D02*
X114273809Y-95082619D01*
X114273809Y-95082619D02*
X114178571Y-95225476D01*
X114178571Y-95225476D02*
X114083333Y-95320714D01*
X114083333Y-95320714D02*
X113988095Y-95368333D01*
X114940476Y-95177857D02*
X114988095Y-95130238D01*
X114988095Y-95130238D02*
X115083333Y-95082619D01*
X115083333Y-95082619D02*
X115321428Y-95082619D01*
X115321428Y-95082619D02*
X115416666Y-95130238D01*
X115416666Y-95130238D02*
X115464285Y-95177857D01*
X115464285Y-95177857D02*
X115511904Y-95273095D01*
X115511904Y-95273095D02*
X115511904Y-95368333D01*
X115511904Y-95368333D02*
X115464285Y-95511190D01*
X115464285Y-95511190D02*
X114892857Y-96082619D01*
X114892857Y-96082619D02*
X115511904Y-96082619D01*
%TO.C,svg2mod*%
X111500000Y-87528454D02*
G75*
G03*
X111500000Y-87528454I-2500000J0D01*
G01*
D11*
%TO.C,R17*%
X122947500Y-113262742D02*
X122947500Y-113737258D01*
X121902500Y-113262742D02*
X121902500Y-113737258D01*
%TO.C,C2*%
X78990000Y-101790580D02*
X78990000Y-101509420D01*
X80010000Y-101790580D02*
X80010000Y-101509420D01*
%TO.C,C16*%
X138640580Y-116972500D02*
X138359420Y-116972500D01*
X138640580Y-115952500D02*
X138359420Y-115952500D01*
%TO.C,R11*%
X77077500Y-119087258D02*
X77077500Y-118612742D01*
X78122500Y-119087258D02*
X78122500Y-118612742D01*
%TO.C,C6*%
X77090000Y-115540580D02*
X77090000Y-115259420D01*
X78110000Y-115540580D02*
X78110000Y-115259420D01*
%TO.C,Q4*%
X115840000Y-122200000D02*
X115840000Y-125650000D01*
X115840000Y-122200000D02*
X115840000Y-120250000D01*
X120960000Y-122200000D02*
X120960000Y-124150000D01*
X120960000Y-122200000D02*
X120960000Y-120250000D01*
%TO.C,R9*%
X80022500Y-108262742D02*
X80022500Y-108737258D01*
X78977500Y-108262742D02*
X78977500Y-108737258D01*
%TO.C,R6*%
X80022500Y-104862742D02*
X80022500Y-105337258D01*
X78977500Y-104862742D02*
X78977500Y-105337258D01*
%TO.C,J3*%
X76110000Y-107565000D02*
X74860000Y-107565000D01*
X75810000Y-107865000D02*
X71090000Y-107865000D01*
X74500000Y-107865000D02*
X74500000Y-108475000D01*
X73200000Y-107865000D02*
X73200000Y-108475000D01*
X71090000Y-107865000D02*
X71090000Y-119985000D01*
X75200000Y-108475000D02*
X71700000Y-108475000D01*
X71700000Y-108475000D02*
X71700000Y-119375000D01*
X76110000Y-108815000D02*
X76110000Y-107565000D01*
X76010000Y-109325000D02*
X75810000Y-109325000D01*
X76010000Y-109625000D02*
X76010000Y-109325000D01*
X75910000Y-109625000D02*
X75910000Y-109325000D01*
X75810000Y-109625000D02*
X76010000Y-109625000D01*
X75810000Y-110425000D02*
X75200000Y-110425000D01*
X75200000Y-110425000D02*
X75200000Y-108475000D01*
X72200000Y-110825000D02*
X72200000Y-111025000D01*
X71700000Y-110825000D02*
X72200000Y-110825000D01*
X71700000Y-110925000D02*
X72200000Y-110925000D01*
X72200000Y-111025000D02*
X71700000Y-111025000D01*
X72200000Y-112825000D02*
X72200000Y-113025000D01*
X71700000Y-112825000D02*
X72200000Y-112825000D01*
X71700000Y-112925000D02*
X72200000Y-112925000D01*
X72200000Y-113025000D02*
X71700000Y-113025000D01*
X72200000Y-114825000D02*
X72200000Y-115025000D01*
X71700000Y-114825000D02*
X72200000Y-114825000D01*
X71700000Y-114925000D02*
X72200000Y-114925000D01*
X72200000Y-115025000D02*
X71700000Y-115025000D01*
X72200000Y-116825000D02*
X72200000Y-117025000D01*
X71700000Y-116825000D02*
X72200000Y-116825000D01*
X71700000Y-116925000D02*
X72200000Y-116925000D01*
X72200000Y-117025000D02*
X71700000Y-117025000D01*
X75200000Y-117425000D02*
X75810000Y-117425000D01*
X75200000Y-119375000D02*
X75200000Y-117425000D01*
X71700000Y-119375000D02*
X75200000Y-119375000D01*
X75810000Y-119985000D02*
X75810000Y-107865000D01*
X74500000Y-119985000D02*
X74500000Y-119375000D01*
X73200000Y-119985000D02*
X73200000Y-119375000D01*
X71090000Y-119985000D02*
X75810000Y-119985000D01*
%TO.C,C13*%
X118115580Y-109685000D02*
X117834420Y-109685000D01*
X118115580Y-108665000D02*
X117834420Y-108665000D01*
%TO.C,R19*%
X124722500Y-113262742D02*
X124722500Y-113737258D01*
X123677500Y-113262742D02*
X123677500Y-113737258D01*
%TO.C,C8*%
X132861252Y-119835000D02*
X132338748Y-119835000D01*
X132861252Y-118365000D02*
X132338748Y-118365000D01*
%TO.C,R28*%
X118300242Y-92277500D02*
X118774758Y-92277500D01*
X118300242Y-93322500D02*
X118774758Y-93322500D01*
%TO.C,R5*%
X112237742Y-117277500D02*
X112712258Y-117277500D01*
X112237742Y-118322500D02*
X112712258Y-118322500D01*
%TO.C,C7*%
X78990000Y-115540580D02*
X78990000Y-115259420D01*
X80010000Y-115540580D02*
X80010000Y-115259420D01*
%TO.C,R12*%
X119387742Y-126477500D02*
X119862258Y-126477500D01*
X119387742Y-127522500D02*
X119862258Y-127522500D01*
%TO.C,R24*%
X129090000Y-109839564D02*
X129090000Y-105485436D01*
X132510000Y-109839564D02*
X132510000Y-105485436D01*
%TO.C,C9*%
X114786252Y-112260000D02*
X114263748Y-112260000D01*
X114786252Y-110790000D02*
X114263748Y-110790000D01*
%TO.C,C4*%
X78110000Y-111784420D02*
X78110000Y-112065580D01*
X77090000Y-111784420D02*
X77090000Y-112065580D01*
%TO.C,C17*%
X117327500Y-95940580D02*
X117327500Y-95659420D01*
X118347500Y-95940580D02*
X118347500Y-95659420D01*
%TO.C,D4*%
X133740000Y-90290000D02*
X133740000Y-92510000D01*
X133740000Y-92510000D02*
X138150000Y-92510000D01*
X138150000Y-90290000D02*
X133740000Y-90290000D01*
%TO.C,U3*%
X129000000Y-112540000D02*
X125550000Y-112540000D01*
X129000000Y-112540000D02*
X130950000Y-112540000D01*
X129000000Y-117660000D02*
X127050000Y-117660000D01*
X129000000Y-117660000D02*
X130950000Y-117660000D01*
%TO.C,C1*%
X108165580Y-131472500D02*
X107884420Y-131472500D01*
X108165580Y-130452500D02*
X107884420Y-130452500D01*
%TO.C,U6*%
X139860000Y-113062500D02*
X139860000Y-111262500D01*
X139860000Y-113062500D02*
X139860000Y-113862500D01*
X136740000Y-113062500D02*
X136740000Y-112262500D01*
X136740000Y-113062500D02*
X136740000Y-113862500D01*
%TO.C,R4*%
X112222500Y-115137742D02*
X112222500Y-115612258D01*
X111177500Y-115137742D02*
X111177500Y-115612258D01*
%TO.C,J4*%
X138960000Y-101210000D02*
X138960000Y-99960000D01*
X138660000Y-100910000D02*
X138660000Y-96190000D01*
X138660000Y-99600000D02*
X138050000Y-99600000D01*
X138660000Y-98300000D02*
X138050000Y-98300000D01*
X138660000Y-96190000D02*
X130540000Y-96190000D01*
X138050000Y-100300000D02*
X138050000Y-96800000D01*
X138050000Y-96800000D02*
X131150000Y-96800000D01*
X137710000Y-101210000D02*
X138960000Y-101210000D01*
X137200000Y-101110000D02*
X137200000Y-100910000D01*
X136900000Y-101110000D02*
X137200000Y-101110000D01*
X136900000Y-101010000D02*
X137200000Y-101010000D01*
X136900000Y-100910000D02*
X136900000Y-101110000D01*
X136100000Y-100910000D02*
X136100000Y-100300000D01*
X136100000Y-100300000D02*
X138050000Y-100300000D01*
X135700000Y-97300000D02*
X135500000Y-97300000D01*
X135700000Y-96800000D02*
X135700000Y-97300000D01*
X135600000Y-96800000D02*
X135600000Y-97300000D01*
X135500000Y-97300000D02*
X135500000Y-96800000D01*
X133700000Y-97300000D02*
X133500000Y-97300000D01*
X133700000Y-96800000D02*
X133700000Y-97300000D01*
X133600000Y-96800000D02*
X133600000Y-97300000D01*
X133500000Y-97300000D02*
X133500000Y-96800000D01*
X133100000Y-100300000D02*
X133100000Y-100910000D01*
X131150000Y-100300000D02*
X133100000Y-100300000D01*
X131150000Y-96800000D02*
X131150000Y-100300000D01*
X130540000Y-100910000D02*
X138660000Y-100910000D01*
X130540000Y-99600000D02*
X131150000Y-99600000D01*
X130540000Y-98300000D02*
X131150000Y-98300000D01*
X130540000Y-96190000D02*
X130540000Y-100910000D01*
%TO.C,C5*%
X80010000Y-111784420D02*
X80010000Y-112065580D01*
X78990000Y-111784420D02*
X78990000Y-112065580D01*
%TO.C,U4*%
X116585000Y-108110000D02*
X116585000Y-107835000D01*
X116585000Y-107835000D02*
X117875000Y-107835000D01*
X116585000Y-98190000D02*
X116585000Y-98465000D01*
X114275000Y-108110000D02*
X116585000Y-108110000D01*
X114275000Y-108110000D02*
X111965000Y-108110000D01*
X114275000Y-98190000D02*
X116585000Y-98190000D01*
X114275000Y-98190000D02*
X111965000Y-98190000D01*
X111965000Y-108110000D02*
X111965000Y-107835000D01*
X111965000Y-98190000D02*
X111965000Y-98465000D01*
%TO.C,R25*%
X135077500Y-115999758D02*
X135077500Y-115525242D01*
X136122500Y-115999758D02*
X136122500Y-115525242D01*
%TO.C,R21*%
X124290000Y-109839564D02*
X124290000Y-105485436D01*
X127710000Y-109839564D02*
X127710000Y-105485436D01*
%TO.C,Q2*%
X109810000Y-127962500D02*
X109810000Y-126287500D01*
X109810000Y-127962500D02*
X109810000Y-128612500D01*
X106690000Y-127962500D02*
X106690000Y-127312500D01*
X106690000Y-127962500D02*
X106690000Y-128612500D01*
%TO.C,D1*%
X118140000Y-128090000D02*
X118140000Y-130310000D01*
X118140000Y-130310000D02*
X122550000Y-130310000D01*
X122550000Y-128090000D02*
X118140000Y-128090000D01*
%TO.C,R15*%
X112377500Y-120637258D02*
X112377500Y-120162742D01*
X113422500Y-120637258D02*
X113422500Y-120162742D01*
%TO.C,R13*%
X121690000Y-126164564D02*
X121690000Y-124710436D01*
X123510000Y-126164564D02*
X123510000Y-124710436D01*
%TO.C,R14*%
X115122500Y-120162742D02*
X115122500Y-120637258D01*
X114077500Y-120162742D02*
X114077500Y-120637258D01*
%TO.C,U2*%
X112940000Y-114800000D02*
X112940000Y-116600000D01*
X112940000Y-114800000D02*
X112940000Y-114000000D01*
X116060000Y-114800000D02*
X116060000Y-115600000D01*
X116060000Y-114800000D02*
X116060000Y-114000000D01*
%TO.C,R30*%
X122087258Y-88822500D02*
X121612742Y-88822500D01*
X122087258Y-87777500D02*
X121612742Y-87777500D01*
%TO.C,R22*%
X139772500Y-105325242D02*
X139772500Y-105799758D01*
X138727500Y-105325242D02*
X138727500Y-105799758D01*
%TO.C,C14*%
X118990000Y-106915580D02*
X118990000Y-106634420D01*
X120010000Y-106915580D02*
X120010000Y-106634420D01*
%TO.C,R20*%
X121902500Y-116937258D02*
X121902500Y-116462742D01*
X122947500Y-116937258D02*
X122947500Y-116462742D01*
D12*
%TO.C,U1*%
X90214000Y-135210000D02*
X90722000Y-134702000D01*
X90722000Y-134702000D02*
X94278000Y-134702000D01*
X94278000Y-134702000D02*
X94786000Y-135210000D01*
X81070000Y-132670000D02*
G75*
G03*
X83610000Y-135210000I2540000J0D01*
G01*
X101390000Y-135210000D02*
G75*
G03*
X103930000Y-132670000I0J2540000D01*
G01*
X83610000Y-84410000D02*
G75*
G03*
X81070000Y-86950000I0J-2540000D01*
G01*
X103930000Y-86950000D02*
G75*
G03*
X101390000Y-84410000I-2540000J0D01*
G01*
D11*
%TO.C,D8*%
X128290000Y-87590000D02*
X128290000Y-89810000D01*
X128290000Y-89810000D02*
X132700000Y-89810000D01*
X132700000Y-87590000D02*
X128290000Y-87590000D01*
%TO.C,R7*%
X77077500Y-105337258D02*
X77077500Y-104862742D01*
X78122500Y-105337258D02*
X78122500Y-104862742D01*
%TO.C,R10*%
X80022500Y-118612742D02*
X80022500Y-119087258D01*
X78977500Y-118612742D02*
X78977500Y-119087258D01*
%TO.C,D2*%
X130610000Y-120310000D02*
X130610000Y-118090000D01*
X130610000Y-118090000D02*
X126200000Y-118090000D01*
X126200000Y-120310000D02*
X130610000Y-120310000D01*
%TO.C,C11*%
X121265000Y-99761252D02*
X121265000Y-99238748D01*
X122735000Y-99761252D02*
X122735000Y-99238748D01*
%TO.C,D5*%
X133740000Y-87590000D02*
X133740000Y-89810000D01*
X133740000Y-89810000D02*
X138150000Y-89810000D01*
X138150000Y-87590000D02*
X133740000Y-87590000D01*
%TO.C,Q1*%
X109810000Y-121962500D02*
X109810000Y-120287500D01*
X109810000Y-121962500D02*
X109810000Y-122612500D01*
X106690000Y-121962500D02*
X106690000Y-121312500D01*
X106690000Y-121962500D02*
X106690000Y-122612500D01*
%TO.C,J1*%
X110940000Y-126390000D02*
X110940000Y-127640000D01*
X111240000Y-126690000D02*
X111240000Y-131410000D01*
X111240000Y-128000000D02*
X111850000Y-128000000D01*
X111240000Y-129300000D02*
X111850000Y-129300000D01*
X111240000Y-131410000D02*
X117360000Y-131410000D01*
X111850000Y-127300000D02*
X111850000Y-130800000D01*
X111850000Y-130800000D02*
X116750000Y-130800000D01*
X112190000Y-126390000D02*
X110940000Y-126390000D01*
X112700000Y-126490000D02*
X112700000Y-126690000D01*
X113000000Y-126490000D02*
X112700000Y-126490000D01*
X113000000Y-126590000D02*
X112700000Y-126590000D01*
X113000000Y-126690000D02*
X113000000Y-126490000D01*
X113800000Y-126690000D02*
X113800000Y-127300000D01*
X113800000Y-127300000D02*
X111850000Y-127300000D01*
X114200000Y-130300000D02*
X114400000Y-130300000D01*
X114200000Y-130800000D02*
X114200000Y-130300000D01*
X114300000Y-130800000D02*
X114300000Y-130300000D01*
X114400000Y-130300000D02*
X114400000Y-130800000D01*
X114800000Y-127300000D02*
X114800000Y-126690000D01*
X116750000Y-127300000D02*
X114800000Y-127300000D01*
X116750000Y-130800000D02*
X116750000Y-127300000D01*
X117360000Y-126690000D02*
X111240000Y-126690000D01*
X117360000Y-128000000D02*
X116750000Y-128000000D01*
X117360000Y-129300000D02*
X116750000Y-129300000D01*
X117360000Y-131410000D02*
X117360000Y-126690000D01*
%TO.C,D3*%
X133740000Y-92990000D02*
X133740000Y-95210000D01*
X133740000Y-95210000D02*
X138150000Y-95210000D01*
X138150000Y-92990000D02*
X133740000Y-92990000D01*
%TO.C,SW1*%
X72280000Y-129390000D02*
X72280000Y-127310000D01*
X73550000Y-125630000D02*
X73060000Y-126120000D01*
X73550000Y-125630000D02*
X76450000Y-125630000D01*
X73550000Y-131070000D02*
X73060000Y-130580000D01*
X73550000Y-131070000D02*
X76450000Y-131070000D01*
X76450000Y-125630000D02*
X76940000Y-126120000D01*
X76450000Y-131070000D02*
X76940000Y-130580000D01*
X77720000Y-129390000D02*
X77720000Y-127310000D01*
%TO.C,U5*%
X134990000Y-108337500D02*
X134990000Y-110137500D01*
X134990000Y-108337500D02*
X134990000Y-107537500D01*
X138110000Y-108337500D02*
X138110000Y-109137500D01*
X138110000Y-108337500D02*
X138110000Y-107537500D01*
%TO.C,R29*%
X121575242Y-92277500D02*
X122049758Y-92277500D01*
X121575242Y-93322500D02*
X122049758Y-93322500D01*
%TO.C,R16*%
X116690000Y-116539564D02*
X116690000Y-112185436D01*
X120110000Y-116539564D02*
X120110000Y-112185436D01*
%TO.C,R3*%
X78122500Y-92262742D02*
X78122500Y-92737258D01*
X77077500Y-92262742D02*
X77077500Y-92737258D01*
%TO.C,R2*%
X77077500Y-96112258D02*
X77077500Y-95637742D01*
X78122500Y-96112258D02*
X78122500Y-95637742D01*
%TO.C,J2*%
X76110000Y-86540000D02*
X74860000Y-86540000D01*
X75810000Y-86840000D02*
X71090000Y-86840000D01*
X74500000Y-86840000D02*
X74500000Y-87450000D01*
X73200000Y-86840000D02*
X73200000Y-87450000D01*
X71090000Y-86840000D02*
X71090000Y-96960000D01*
X75200000Y-87450000D02*
X71700000Y-87450000D01*
X71700000Y-87450000D02*
X71700000Y-96350000D01*
X76110000Y-87790000D02*
X76110000Y-86540000D01*
X76010000Y-88300000D02*
X75810000Y-88300000D01*
X76010000Y-88600000D02*
X76010000Y-88300000D01*
X75910000Y-88600000D02*
X75910000Y-88300000D01*
X75810000Y-88600000D02*
X76010000Y-88600000D01*
X75810000Y-89400000D02*
X75200000Y-89400000D01*
X75200000Y-89400000D02*
X75200000Y-87450000D01*
X72200000Y-89800000D02*
X72200000Y-90000000D01*
X71700000Y-89800000D02*
X72200000Y-89800000D01*
X71700000Y-89900000D02*
X72200000Y-89900000D01*
X72200000Y-90000000D02*
X71700000Y-90000000D01*
X72200000Y-91800000D02*
X72200000Y-92000000D01*
X71700000Y-91800000D02*
X72200000Y-91800000D01*
X71700000Y-91900000D02*
X72200000Y-91900000D01*
X72200000Y-92000000D02*
X71700000Y-92000000D01*
X72200000Y-93800000D02*
X72200000Y-94000000D01*
X71700000Y-93800000D02*
X72200000Y-93800000D01*
X71700000Y-93900000D02*
X72200000Y-93900000D01*
X72200000Y-94000000D02*
X71700000Y-94000000D01*
X75200000Y-94400000D02*
X75810000Y-94400000D01*
X75200000Y-96350000D02*
X75200000Y-94400000D01*
X71700000Y-96350000D02*
X75200000Y-96350000D01*
X75810000Y-96960000D02*
X75810000Y-86840000D01*
X74500000Y-96960000D02*
X74500000Y-96350000D01*
X73200000Y-96960000D02*
X73200000Y-96350000D01*
X71090000Y-96960000D02*
X75810000Y-96960000D01*
%TO.C,U7*%
X121237500Y-97110000D02*
X123037500Y-97110000D01*
X121237500Y-97110000D02*
X120437500Y-97110000D01*
X121237500Y-93990000D02*
X122037500Y-93990000D01*
X121237500Y-93990000D02*
X120437500Y-93990000D01*
%TO.C,D7*%
X128290000Y-90290000D02*
X128290000Y-92510000D01*
X128290000Y-92510000D02*
X132700000Y-92510000D01*
X132700000Y-90290000D02*
X128290000Y-90290000D01*
%TO.C,C15*%
X136184420Y-104327500D02*
X136465580Y-104327500D01*
X136184420Y-105347500D02*
X136465580Y-105347500D01*
%TO.C,R26*%
X135077500Y-112724758D02*
X135077500Y-112250242D01*
X136122500Y-112724758D02*
X136122500Y-112250242D01*
%TO.C,R1*%
X107787742Y-124440000D02*
X108262258Y-124440000D01*
X107787742Y-125485000D02*
X108262258Y-125485000D01*
%TO.C,R23*%
X139772500Y-108625242D02*
X139772500Y-109099758D01*
X138727500Y-108625242D02*
X138727500Y-109099758D01*
%TO.C,R27*%
X127707119Y-95947936D02*
X127707119Y-100302064D01*
X124287119Y-95947936D02*
X124287119Y-100302064D01*
%TO.C,Q3*%
X124240000Y-125800000D02*
X124240000Y-127475000D01*
X124240000Y-125800000D02*
X124240000Y-125150000D01*
X127360000Y-125800000D02*
X127360000Y-126450000D01*
X127360000Y-125800000D02*
X127360000Y-125150000D01*
%TO.C,D9*%
X122410000Y-91510000D02*
X122410000Y-89290000D01*
X122410000Y-89290000D02*
X118000000Y-89290000D01*
X118000000Y-91510000D02*
X122410000Y-91510000D01*
%TO.C,R8*%
X77077500Y-108737258D02*
X77077500Y-108262742D01*
X78122500Y-108737258D02*
X78122500Y-108262742D01*
%TO.C,C18*%
X118715580Y-88810000D02*
X118434420Y-88810000D01*
X118715580Y-87790000D02*
X118434420Y-87790000D01*
%TO.C,C3*%
X77090000Y-101790580D02*
X77090000Y-101509420D01*
X78110000Y-101790580D02*
X78110000Y-101509420D01*
%TO.C,D6*%
X128290000Y-92990000D02*
X128290000Y-95210000D01*
X128290000Y-95210000D02*
X132700000Y-95210000D01*
X132700000Y-92990000D02*
X128290000Y-92990000D01*
%TO.C,C10*%
X114786252Y-110160000D02*
X114263748Y-110160000D01*
X114786252Y-108690000D02*
X114263748Y-108690000D01*
%TO.C,R18*%
X123677500Y-116937258D02*
X123677500Y-116462742D01*
X124722500Y-116937258D02*
X124722500Y-116462742D01*
%TO.C,C12*%
X114109420Y-96540000D02*
X114390580Y-96540000D01*
X114109420Y-97560000D02*
X114390580Y-97560000D01*
%TD*%
M02*
