%TF.GenerationSoftware,KiCad,Pcbnew,7.0.2-0*%
%TF.CreationDate,2023-11-25T15:14:41-08:00*%
%TF.ProjectId,Controller v1.1,436f6e74-726f-46c6-9c65-722076312e31,rev?*%
%TF.SameCoordinates,Original*%
%TF.FileFunction,Paste,Top*%
%TF.FilePolarity,Positive*%
%FSLAX46Y46*%
G04 Gerber Fmt 4.6, Leading zero omitted, Abs format (unit mm)*
G04 Created by KiCad (PCBNEW 7.0.2-0) date 2023-11-25 15:14:41*
%MOMM*%
%LPD*%
G01*
G04 APERTURE LIST*
G04 Aperture macros list*
%AMRoundRect*
0 Rectangle with rounded corners*
0 $1 Rounding radius*
0 $2 $3 $4 $5 $6 $7 $8 $9 X,Y pos of 4 corners*
0 Add a 4 corners polygon primitive as box body*
4,1,4,$2,$3,$4,$5,$6,$7,$8,$9,$2,$3,0*
0 Add four circle primitives for the rounded corners*
1,1,$1+$1,$2,$3*
1,1,$1+$1,$4,$5*
1,1,$1+$1,$6,$7*
1,1,$1+$1,$8,$9*
0 Add four rect primitives between the rounded corners*
20,1,$1+$1,$2,$3,$4,$5,0*
20,1,$1+$1,$4,$5,$6,$7,0*
20,1,$1+$1,$6,$7,$8,$9,0*
20,1,$1+$1,$8,$9,$2,$3,0*%
G04 Aperture macros list end*
%ADD10RoundRect,0.200000X-0.275000X0.200000X-0.275000X-0.200000X0.275000X-0.200000X0.275000X0.200000X0*%
%ADD11RoundRect,0.225000X0.250000X-0.225000X0.250000X0.225000X-0.250000X0.225000X-0.250000X-0.225000X0*%
%ADD12RoundRect,0.225000X0.225000X0.250000X-0.225000X0.250000X-0.225000X-0.250000X0.225000X-0.250000X0*%
%ADD13RoundRect,0.200000X0.275000X-0.200000X0.275000X0.200000X-0.275000X0.200000X-0.275000X-0.200000X0*%
%ADD14RoundRect,0.250000X1.175000X0.450000X-1.175000X0.450000X-1.175000X-0.450000X1.175000X-0.450000X0*%
%ADD15RoundRect,0.150000X0.150000X-0.825000X0.150000X0.825000X-0.150000X0.825000X-0.150000X-0.825000X0*%
%ADD16RoundRect,0.250000X0.450000X-1.175000X0.450000X1.175000X-0.450000X1.175000X-0.450000X-1.175000X0*%
%ADD17RoundRect,0.250000X0.250000X0.475000X-0.250000X0.475000X-0.250000X-0.475000X0.250000X-0.475000X0*%
%ADD18RoundRect,0.200000X-0.200000X-0.275000X0.200000X-0.275000X0.200000X0.275000X-0.200000X0.275000X0*%
%ADD19RoundRect,0.250000X1.425000X-0.362500X1.425000X0.362500X-1.425000X0.362500X-1.425000X-0.362500X0*%
%ADD20RoundRect,0.225000X-0.250000X0.225000X-0.250000X-0.225000X0.250000X-0.225000X0.250000X0.225000X0*%
%ADD21RoundRect,0.250000X-0.400000X-0.600000X0.400000X-0.600000X0.400000X0.600000X-0.400000X0.600000X0*%
%ADD22RoundRect,0.150000X-0.825000X-0.150000X0.825000X-0.150000X0.825000X0.150000X-0.825000X0.150000X0*%
%ADD23RoundRect,0.150000X-0.150000X0.512500X-0.150000X-0.512500X0.150000X-0.512500X0.150000X0.512500X0*%
%ADD24RoundRect,0.250000X-1.175000X-0.450000X1.175000X-0.450000X1.175000X0.450000X-1.175000X0.450000X0*%
%ADD25RoundRect,0.250000X0.900000X0.475000X-0.900000X0.475000X-0.900000X-0.475000X0.900000X-0.475000X0*%
%ADD26RoundRect,0.100000X0.637500X0.100000X-0.637500X0.100000X-0.637500X-0.100000X0.637500X-0.100000X0*%
%ADD27RoundRect,0.150000X-0.150000X0.587500X-0.150000X-0.587500X0.150000X-0.587500X0.150000X0.587500X0*%
%ADD28RoundRect,0.250000X0.625000X-0.312500X0.625000X0.312500X-0.625000X0.312500X-0.625000X-0.312500X0*%
%ADD29RoundRect,0.150000X0.150000X-0.512500X0.150000X0.512500X-0.150000X0.512500X-0.150000X-0.512500X0*%
%ADD30RoundRect,0.200000X0.200000X0.275000X-0.200000X0.275000X-0.200000X-0.275000X0.200000X-0.275000X0*%
%ADD31RoundRect,0.250000X0.400000X0.600000X-0.400000X0.600000X-0.400000X-0.600000X0.400000X-0.600000X0*%
%ADD32RoundRect,0.250000X0.475000X-0.250000X0.475000X0.250000X-0.475000X0.250000X-0.475000X-0.250000X0*%
%ADD33R,1.800000X1.100000*%
%ADD34RoundRect,0.150000X0.512500X0.150000X-0.512500X0.150000X-0.512500X-0.150000X0.512500X-0.150000X0*%
%ADD35RoundRect,0.225000X-0.225000X-0.250000X0.225000X-0.250000X0.225000X0.250000X-0.225000X0.250000X0*%
%ADD36RoundRect,0.250000X-1.425000X0.362500X-1.425000X-0.362500X1.425000X-0.362500X1.425000X0.362500X0*%
%ADD37RoundRect,0.150000X0.150000X-0.587500X0.150000X0.587500X-0.150000X0.587500X-0.150000X-0.587500X0*%
G04 APERTURE END LIST*
D10*
%TO.C,R17*%
X122425000Y-112675000D03*
X122425000Y-114325000D03*
%TD*%
D11*
%TO.C,C2*%
X79500000Y-102425000D03*
X79500000Y-100875000D03*
%TD*%
D12*
%TO.C,C16*%
X139275000Y-116462500D03*
X137725000Y-116462500D03*
%TD*%
D13*
%TO.C,R11*%
X77600000Y-119675000D03*
X77600000Y-118025000D03*
%TD*%
D14*
%TO.C,TP5*%
X72400000Y-101100000D03*
%TD*%
D11*
%TO.C,C6*%
X77600000Y-116175000D03*
X77600000Y-114625000D03*
%TD*%
D15*
%TO.C,Q4*%
X116495000Y-124675000D03*
X117765000Y-124675000D03*
X119035000Y-124675000D03*
X120305000Y-124675000D03*
X120305000Y-119725000D03*
X119035000Y-119725000D03*
X117765000Y-119725000D03*
X116495000Y-119725000D03*
%TD*%
D10*
%TO.C,R9*%
X79500000Y-107675000D03*
X79500000Y-109325000D03*
%TD*%
%TO.C,R6*%
X79500000Y-104275000D03*
X79500000Y-105925000D03*
%TD*%
D12*
%TO.C,C13*%
X118750000Y-109175000D03*
X117200000Y-109175000D03*
%TD*%
D10*
%TO.C,R19*%
X124200000Y-112675000D03*
X124200000Y-114325000D03*
%TD*%
D16*
%TO.C,TP16*%
X86000000Y-87100000D03*
%TD*%
D17*
%TO.C,C8*%
X133550000Y-119100000D03*
X131650000Y-119100000D03*
%TD*%
D18*
%TO.C,R28*%
X117712500Y-92800000D03*
X119362500Y-92800000D03*
%TD*%
D14*
%TO.C,TP9*%
X72400000Y-106100000D03*
%TD*%
D18*
%TO.C,R5*%
X111650000Y-117800000D03*
X113300000Y-117800000D03*
%TD*%
D11*
%TO.C,C7*%
X79500000Y-116175000D03*
X79500000Y-114625000D03*
%TD*%
D18*
%TO.C,R12*%
X118800000Y-127000000D03*
X120450000Y-127000000D03*
%TD*%
D16*
%TO.C,TP15*%
X99000000Y-87100000D03*
%TD*%
D19*
%TO.C,R24*%
X130800000Y-110625000D03*
X130800000Y-104700000D03*
%TD*%
D17*
%TO.C,C9*%
X115475000Y-111525000D03*
X113575000Y-111525000D03*
%TD*%
D20*
%TO.C,C4*%
X77600000Y-111150000D03*
X77600000Y-112700000D03*
%TD*%
D14*
%TO.C,TP11*%
X108250000Y-118700000D03*
%TD*%
D11*
%TO.C,C17*%
X117837500Y-96575000D03*
X117837500Y-95025000D03*
%TD*%
D21*
%TO.C,D4*%
X134650000Y-91400000D03*
X138150000Y-91400000D03*
%TD*%
D22*
%TO.C,U3*%
X126525000Y-113195000D03*
X126525000Y-114465000D03*
X126525000Y-115735000D03*
X126525000Y-117005000D03*
X131475000Y-117005000D03*
X131475000Y-115735000D03*
X131475000Y-114465000D03*
X131475000Y-113195000D03*
%TD*%
D12*
%TO.C,C1*%
X108800000Y-130962500D03*
X107250000Y-130962500D03*
%TD*%
D23*
%TO.C,U6*%
X139250000Y-111925000D03*
X138300000Y-111925000D03*
X137350000Y-111925000D03*
X137350000Y-114200000D03*
X139250000Y-114200000D03*
%TD*%
D16*
%TO.C,TP1*%
X82900000Y-87100000D03*
%TD*%
D10*
%TO.C,R4*%
X111700000Y-114550000D03*
X111700000Y-116200000D03*
%TD*%
D24*
%TO.C,TP10*%
X108250000Y-116400000D03*
%TD*%
D14*
%TO.C,TP7*%
X72400000Y-103600000D03*
%TD*%
D16*
%TO.C,TP8*%
X77400000Y-122600000D03*
%TD*%
D20*
%TO.C,C5*%
X79500000Y-111150000D03*
X79500000Y-112700000D03*
%TD*%
D16*
%TO.C,TP13*%
X88600000Y-87100000D03*
%TD*%
D25*
%TO.C,U4*%
X114275000Y-104950000D03*
X114275000Y-103150000D03*
X114275000Y-101350000D03*
D26*
X117137500Y-107375000D03*
X117137500Y-106725000D03*
X117137500Y-106075000D03*
X117137500Y-105425000D03*
X117137500Y-104775000D03*
X117137500Y-104125000D03*
X117137500Y-103475000D03*
X117137500Y-102825000D03*
X117137500Y-102175000D03*
X117137500Y-101525000D03*
X117137500Y-100875000D03*
X117137500Y-100225000D03*
X117137500Y-99575000D03*
X117137500Y-98925000D03*
X111412500Y-98925000D03*
X111412500Y-99575000D03*
X111412500Y-100225000D03*
X111412500Y-100875000D03*
X111412500Y-101525000D03*
X111412500Y-102175000D03*
X111412500Y-102825000D03*
X111412500Y-103475000D03*
X111412500Y-104125000D03*
X111412500Y-104775000D03*
X111412500Y-105425000D03*
X111412500Y-106075000D03*
X111412500Y-106725000D03*
X111412500Y-107375000D03*
%TD*%
D13*
%TO.C,R25*%
X135600000Y-116587500D03*
X135600000Y-114937500D03*
%TD*%
D16*
%TO.C,TP4*%
X71700000Y-122600000D03*
%TD*%
%TO.C,TP18*%
X96400000Y-87100000D03*
%TD*%
D19*
%TO.C,R21*%
X126000000Y-110625000D03*
X126000000Y-104700000D03*
%TD*%
D16*
%TO.C,TP14*%
X93800000Y-87100000D03*
%TD*%
D27*
%TO.C,Q2*%
X109200000Y-127025000D03*
X107300000Y-127025000D03*
X108250000Y-128900000D03*
%TD*%
D24*
%TO.C,TP19*%
X138350000Y-121000000D03*
%TD*%
D21*
%TO.C,D1*%
X119050000Y-129200000D03*
X122550000Y-129200000D03*
%TD*%
D13*
%TO.C,R15*%
X112900000Y-121225000D03*
X112900000Y-119575000D03*
%TD*%
D16*
%TO.C,TP2*%
X79800000Y-87100000D03*
%TD*%
%TO.C,TP12*%
X102100000Y-87100000D03*
%TD*%
D24*
%TO.C,TP21*%
X113600000Y-92800000D03*
%TD*%
D28*
%TO.C,R13*%
X122600000Y-126900000D03*
X122600000Y-123975000D03*
%TD*%
D10*
%TO.C,R14*%
X114600000Y-119575000D03*
X114600000Y-121225000D03*
%TD*%
D29*
%TO.C,U2*%
X113550000Y-115937500D03*
X114500000Y-115937500D03*
X115450000Y-115937500D03*
X115450000Y-113662500D03*
X113550000Y-113662500D03*
%TD*%
D30*
%TO.C,R30*%
X122675000Y-88300000D03*
X121025000Y-88300000D03*
%TD*%
D10*
%TO.C,R22*%
X139250000Y-104737500D03*
X139250000Y-106387500D03*
%TD*%
D11*
%TO.C,C14*%
X119500000Y-107550000D03*
X119500000Y-106000000D03*
%TD*%
D13*
%TO.C,R20*%
X122425000Y-117525000D03*
X122425000Y-115875000D03*
%TD*%
D16*
%TO.C,TP17*%
X91200000Y-87100000D03*
%TD*%
%TO.C,TP6*%
X74500000Y-122600000D03*
%TD*%
D21*
%TO.C,D8*%
X129200000Y-88700000D03*
X132700000Y-88700000D03*
%TD*%
D13*
%TO.C,R7*%
X77600000Y-105925000D03*
X77600000Y-104275000D03*
%TD*%
D10*
%TO.C,R10*%
X79500000Y-118025000D03*
X79500000Y-119675000D03*
%TD*%
D31*
%TO.C,D2*%
X129700000Y-119200000D03*
X126200000Y-119200000D03*
%TD*%
D32*
%TO.C,C11*%
X122000000Y-100450000D03*
X122000000Y-98550000D03*
%TD*%
D21*
%TO.C,D5*%
X134650000Y-88700000D03*
X138150000Y-88700000D03*
%TD*%
D27*
%TO.C,Q1*%
X109200000Y-121025000D03*
X107300000Y-121025000D03*
X108250000Y-122900000D03*
%TD*%
D21*
%TO.C,D3*%
X134650000Y-94100000D03*
X138150000Y-94100000D03*
%TD*%
D33*
%TO.C,SW1*%
X71900000Y-126500000D03*
X78100000Y-126500000D03*
X71900000Y-130200000D03*
X78100000Y-130200000D03*
%TD*%
D29*
%TO.C,U5*%
X135600000Y-109475000D03*
X136550000Y-109475000D03*
X137500000Y-109475000D03*
X137500000Y-107200000D03*
X135600000Y-107200000D03*
%TD*%
D18*
%TO.C,R29*%
X120987500Y-92800000D03*
X122637500Y-92800000D03*
%TD*%
D19*
%TO.C,R16*%
X118400000Y-117325000D03*
X118400000Y-111400000D03*
%TD*%
D10*
%TO.C,R3*%
X77600000Y-91675000D03*
X77600000Y-93325000D03*
%TD*%
D13*
%TO.C,R2*%
X77600000Y-96700000D03*
X77600000Y-95050000D03*
%TD*%
D34*
%TO.C,U7*%
X122375000Y-96500000D03*
X122375000Y-95550000D03*
X122375000Y-94600000D03*
X120100000Y-94600000D03*
X120100000Y-96500000D03*
%TD*%
D21*
%TO.C,D7*%
X129200000Y-91400000D03*
X132700000Y-91400000D03*
%TD*%
D35*
%TO.C,C15*%
X135550000Y-104837500D03*
X137100000Y-104837500D03*
%TD*%
D13*
%TO.C,R26*%
X135600000Y-113312500D03*
X135600000Y-111662500D03*
%TD*%
D18*
%TO.C,R1*%
X107200000Y-124962500D03*
X108850000Y-124962500D03*
%TD*%
D10*
%TO.C,R23*%
X139250000Y-108037500D03*
X139250000Y-109687500D03*
%TD*%
D36*
%TO.C,R27*%
X125997119Y-95162500D03*
X125997119Y-101087500D03*
%TD*%
D14*
%TO.C,TP20*%
X138350000Y-118700000D03*
%TD*%
D37*
%TO.C,Q3*%
X124850000Y-126737500D03*
X126750000Y-126737500D03*
X125800000Y-124862500D03*
%TD*%
D31*
%TO.C,D9*%
X121500000Y-90400000D03*
X118000000Y-90400000D03*
%TD*%
D24*
%TO.C,TP3*%
X108250000Y-114100000D03*
%TD*%
D13*
%TO.C,R8*%
X77600000Y-109325000D03*
X77600000Y-107675000D03*
%TD*%
D12*
%TO.C,C18*%
X119350000Y-88300000D03*
X117800000Y-88300000D03*
%TD*%
D11*
%TO.C,C3*%
X77600000Y-102425000D03*
X77600000Y-100875000D03*
%TD*%
D21*
%TO.C,D6*%
X129200000Y-94100000D03*
X132700000Y-94100000D03*
%TD*%
D17*
%TO.C,C10*%
X115475000Y-109425000D03*
X113575000Y-109425000D03*
%TD*%
D13*
%TO.C,R18*%
X124200000Y-117525000D03*
X124200000Y-115875000D03*
%TD*%
D35*
%TO.C,C12*%
X113475000Y-97050000D03*
X115025000Y-97050000D03*
%TD*%
M02*
