%TF.GenerationSoftware,KiCad,Pcbnew,7.0.2-0*%
%TF.CreationDate,2023-11-25T15:14:41-08:00*%
%TF.ProjectId,Controller v1.1,436f6e74-726f-46c6-9c65-722076312e31,rev?*%
%TF.SameCoordinates,Original*%
%TF.FileFunction,Soldermask,Top*%
%TF.FilePolarity,Negative*%
%FSLAX46Y46*%
G04 Gerber Fmt 4.6, Leading zero omitted, Abs format (unit mm)*
G04 Created by KiCad (PCBNEW 7.0.2-0) date 2023-11-25 15:14:41*
%MOMM*%
%LPD*%
G01*
G04 APERTURE LIST*
G04 Aperture macros list*
%AMRoundRect*
0 Rectangle with rounded corners*
0 $1 Rounding radius*
0 $2 $3 $4 $5 $6 $7 $8 $9 X,Y pos of 4 corners*
0 Add a 4 corners polygon primitive as box body*
4,1,4,$2,$3,$4,$5,$6,$7,$8,$9,$2,$3,0*
0 Add four circle primitives for the rounded corners*
1,1,$1+$1,$2,$3*
1,1,$1+$1,$4,$5*
1,1,$1+$1,$6,$7*
1,1,$1+$1,$8,$9*
0 Add four rect primitives between the rounded corners*
20,1,$1+$1,$2,$3,$4,$5,0*
20,1,$1+$1,$4,$5,$6,$7,0*
20,1,$1+$1,$6,$7,$8,$9,0*
20,1,$1+$1,$8,$9,$2,$3,0*%
%AMFreePoly0*
4,1,596,0.029440,-0.000717,0.058811,-0.002883,0.088039,-0.006486,0.117055,-0.011519,0.145788,-0.017968,0.174172,-0.025819,0.202135,-0.035052,0.229611,-0.045645,0.256536,-0.057576,0.282841,-0.070810,0.308463,-0.085317,0.333343,-0.101065,0.357421,-0.118014,0.380637,-0.136123,0.402936,-0.155349,0.424266,-0.175647,0.444572,-0.196965,0.463808,-0.219253,0.481926,-0.242458,0.498883,-0.266524,
0.514639,-0.291393,0.529154,-0.317004,0.542396,-0.343296,0.554330,-0.370206,0.564929,-0.397668,0.574167,-0.425619,0.582021,-0.453987,0.588474,-0.482707,0.593509,-0.511708,0.597114,-0.540923,0.599280,-0.570278,0.600003,-0.599704,0.598396,-0.643017,0.593668,-0.686061,0.593795,-0.685749,0.593802,-0.685754,0.607867,-0.710266,0.622961,-0.734161,0.639055,-0.757396,0.656120,-0.779927,
0.674125,-0.801715,0.693039,-0.822719,0.712825,-0.842904,0.733452,-0.862232,0.754879,-0.880669,0.777069,-0.898181,0.799983,-0.914737,0.823577,-0.930307,0.847811,-0.944863,0.872644,-0.958379,0.898021,-0.970829,0.923911,-0.982196,0.923907,-0.982203,0.896618,-0.989595,0.869040,-0.995825,0.841222,-1.000879,0.813215,-1.004751,0.785069,-1.007431,0.756835,-1.008917,0.728563,-1.009205,
0.700304,-1.008294,0.672109,-1.006187,0.644029,-1.002887,0.616114,-0.998399,0.588415,-0.992733,0.560980,-0.985898,0.533861,-0.977906,0.507105,-0.968772,0.480758,-0.958510,0.481363,-0.957024,0.462548,-0.981125,0.442502,-1.004262,0.421301,-1.026348,0.399000,-1.047323,0.375658,-1.067134,0.351335,-1.085728,0.326090,-1.103060,0.299998,-1.119080,0.299515,-1.119048,0.324998,-1.142825,
0.349704,-1.167410,0.373603,-1.192774,0.396677,-1.218896,0.418907,-1.245757,0.440275,-1.273334,0.460764,-1.301605,0.480358,-1.330547,0.499040,-1.360138,0.516797,-1.390355,0.533613,-1.421172,0.549476,-1.452564,0.564372,-1.484506,0.578289,-1.516974,0.591217,-1.549941,0.603145,-1.583380,0.614063,-1.617267,0.623963,-1.651571,0.632837,-1.686266,0.640677,-1.721324,0.647478,-1.756718,
0.653234,-1.792418,0.657941,-1.828397,0.661594,-1.864627,0.664190,-1.901076,0.665728,-1.937716,0.666207,-1.974517,0.665625,-2.011453,0.663984,-2.048489,0.661285,-2.085600,0.657529,-2.122752,0.652721,-2.159921,0.646863,-2.197071,0.639961,-2.234176,0.632019,-2.271206,0.623045,-2.308129,0.613046,-2.344919,0.602029,-2.381543,0.590003,-2.417974,0.576979,-2.454182,0.562964,-2.490139,
0.547976,-2.525812,0.532018,-2.561179,0.515112,-2.596205,0.497264,-2.630867,0.478492,-2.665135,0.458809,-2.698984,0.438233,-2.732386,0.416783,-2.765307,0.394470,-2.797729,0.371315,-2.829625,0.347337,-2.860968,0.322554,-2.891732,0.296986,-2.921894,0.270653,-2.951430,0.243579,-2.980314,0.215779,-3.008527,0.187287,-3.036039,0.158115,-3.062837,0.128289,-3.088893,0.097835,-3.114190,
0.066777,-3.138705,0.035139,-3.162419,0.003065,-3.185229,0.006784,-3.191718,0.009651,-3.199064,0.114415,-3.544087,0.139714,-3.533658,0.165294,-3.523923,0.191131,-3.514891,0.217207,-3.506569,0.243500,-3.498963,0.269991,-3.492080,0.296661,-3.485923,0.323489,-3.480499,0.350456,-3.475811,0.377541,-3.471862,0.404726,-3.468656,0.431986,-3.466194,0.459304,-3.464479,0.486659,-3.463512,
0.514030,-3.463294,0.541402,-3.463827,0.541403,-3.463831,0.494284,-3.483372,0.474774,-3.530476,0.494284,-3.577580,0.541402,-3.597121,0.541398,-3.597128,0.493785,-3.616381,0.473999,-3.663753,0.493785,-3.711125,0.541402,-3.730381,0.541397,-3.730388,0.513052,-3.730933,0.484703,-3.730675,0.456372,-3.729614,0.428085,-3.727750,0.399859,-3.725085,0.371721,-3.721621,0.343693,-3.717362,
0.315798,-3.712312,0.288056,-3.706472,0.260491,-3.699849,0.233126,-3.692447,0.205981,-3.684273,0.179076,-3.675332,0.152441,-3.665635,0.126089,-3.655185,0.100045,-3.643993,0.095258,-3.646286,0.090259,-3.648090,0.049610,-3.644109,0.023696,-3.612548,0.021217,-3.604392,0.014625,-3.600785,0.008057,-3.597121,0.012742,-3.594505,0.017425,-3.591922,-0.088345,-3.243604,-0.135148,-3.270352,
-0.182738,-3.295394,-0.231042,-3.318693,-0.279988,-3.340214,-0.329502,-3.359924,-0.379511,-3.377793,-0.429936,-3.393795,-0.480708,-3.407906,-0.480963,-3.407547,-0.480207,-3.415243,-0.446066,-3.761711,-0.421205,-3.751719,-0.396077,-3.742395,-0.370708,-3.733747,-0.345117,-3.725782,-0.319321,-3.718505,-0.293340,-3.711922,-0.267191,-3.706037,-0.240894,-3.700855,-0.214467,-3.696379,-0.187930,-3.692612,
-0.161301,-3.689558,-0.134600,-3.687218,-0.107846,-3.685594,-0.081058,-3.684688,-0.054255,-3.684499,-0.027452,-3.685032,-0.027455,-3.685039,-0.075068,-3.704291,-0.094854,-3.751664,-0.075068,-3.799036,-0.027452,-3.818296,-0.074117,-3.838071,-0.093382,-3.884923,-0.074116,-3.931775,-0.027452,-3.951552,-0.027457,-3.951559,-0.055804,-3.952105,-0.084155,-3.951847,-0.112489,-3.950786,-0.140779,-3.948923,
-0.169006,-3.946259,-0.197146,-3.942795,-0.225176,-3.938536,-0.253074,-3.933486,-0.280819,-3.927646,-0.308385,-3.921023,-0.335753,-3.913621,-0.362900,-3.905446,-0.389804,-3.896506,-0.416444,-3.886806,-0.442798,-3.876356,-0.468843,-3.865164,-0.478580,-3.869226,-0.488931,-3.871292,-0.526879,-3.860219,-0.546775,-3.826078,-0.553799,-3.822217,-0.560798,-3.818296,-0.560793,-3.818289,-0.554640,-3.814842,
-0.548464,-3.811438,-0.585976,-3.430657,-0.615532,-3.435636,-0.645370,-3.439999,-0.675217,-3.443700,-0.705053,-3.446737,-0.734864,-3.449108,-0.764637,-3.450813,-0.794355,-3.451850,-0.824003,-3.452219,-0.853567,-3.451919,-0.883030,-3.450951,-0.912379,-3.449316,-0.941598,-3.447014,-0.970672,-3.444046,-0.999586,-3.440413,-1.028326,-3.436119,-1.056877,-3.431164,-1.085225,-3.425551,-1.113355,-3.419284,
-1.141254,-3.412365,-1.168905,-3.404799,-1.196297,-3.396587,-1.223414,-3.387735,-1.250242,-3.378250,-1.276768,-3.368132,-1.302980,-3.357389,-1.328862,-3.346026,-1.354403,-3.334049,-1.379589,-3.321462,-1.404408,-3.308275,-1.428846,-3.294493,-1.452891,-3.280122,-1.476529,-3.265172,-1.477022,-3.265077,-1.446543,-3.224474,-1.417636,-3.182746,-1.390340,-3.139949,-1.364694,-3.096144,-1.340734,-3.051392,
-1.318499,-3.005764,-1.298017,-2.959321,-1.279319,-2.912132,-1.262431,-2.864265,-1.247380,-2.815791,-1.246537,-2.812658,-1.035179,-2.812658,-1.033529,-2.862646,-1.030089,-2.912768,-1.024842,-2.962983,-1.015737,-2.991432,-0.996824,-3.014556,-0.970743,-3.029130,-0.941130,-3.033121,-0.890667,-3.029564,-0.840655,-3.024246,-0.791131,-3.017197,-0.742127,-3.008447,-0.693679,-2.998023,-0.645821,-2.985953,
-0.598587,-2.972267,-0.552011,-2.956992,-0.506126,-2.940157,-0.460968,-2.921791,-0.416568,-2.901922,-0.372967,-2.880580,-0.330193,-2.857790,-0.288281,-2.833583,-0.247267,-2.807986,-0.207183,-2.781029,-0.168065,-2.752739,-0.129947,-2.723145,-0.092862,-2.692276,-0.056844,-2.660160,-0.021929,-2.626825,0.011849,-2.592302,0.044458,-2.556614,0.075863,-2.519795,0.106028,-2.481872,0.134921,-2.442871,
0.162507,-2.402822,0.188752,-2.361755,0.213623,-2.319694,0.237085,-2.276672,0.259099,-2.232720,0.279638,-2.187859,0.298665,-2.142121,0.316147,-2.095534,0.332048,-2.048126,0.346335,-1.999927,0.358974,-1.950965,0.360185,-1.919774,0.349355,-1.890493,0.328135,-1.867593,0.299755,-1.854556,0.268577,-1.853380,0.239320,-1.864214,0.216435,-1.885410,0.203403,-1.913745,0.190602,-1.962852,
0.175932,-2.011059,0.159440,-2.058331,0.141167,-2.104634,0.121157,-2.149933,0.099458,-2.194194,0.076110,-2.237380,0.051158,-2.279460,0.024646,-2.320397,-0.003382,-2.360157,-0.032882,-2.398706,-0.063811,-2.436010,-0.096124,-2.472031,-0.129779,-2.506738,-0.164729,-2.540095,-0.200932,-2.572068,-0.238344,-2.602621,-0.276920,-2.631721,-0.316618,-2.659332,-0.357394,-2.685422,-0.399202,-2.709952,
-0.441999,-2.732892,-0.485741,-2.754204,-0.530386,-2.773856,-0.575886,-2.791811,-0.622201,-2.808036,-0.669286,-2.822497,-0.717096,-2.835157,-0.765588,-2.845983,-0.814718,-2.854941,-0.864447,-2.861994,-0.866313,-2.810556,-0.866142,-2.759330,-0.863956,-2.708369,-0.859776,-2.657727,-0.853620,-2.607465,-0.845511,-2.557638,-0.835467,-2.508304,-0.823508,-2.459517,-0.809658,-2.411339,-0.793932,-2.363823,
-0.776354,-2.317028,-0.756943,-2.271009,-0.735716,-2.225822,-0.712699,-2.181529,-0.687911,-2.138186,-0.661369,-2.095845,-0.633097,-2.054569,-0.603110,-2.014409,-0.571432,-1.975424,-0.538086,-1.937676,-0.503087,-1.901216,-0.466457,-1.866103,-0.428216,-1.832395,-0.388385,-1.800146,-0.346984,-1.769416,-0.304033,-1.740261,-0.281666,-1.718500,-0.269334,-1.689839,-0.268914,-1.658646,-0.280470,-1.629664,
-0.302272,-1.607322,-0.330972,-1.595026,-0.337858,-1.593864,-0.344820,-1.593305,-0.348300,-1.593264,-0.351779,-1.593374,-0.372286,-1.597143,-0.391121,-1.606080,-0.433000,-1.634308,-0.473649,-1.663862,-0.513046,-1.694699,-0.551172,-1.726779,-0.588009,-1.760062,-0.623536,-1.794505,-0.657733,-1.830066,-0.690584,-1.866708,-0.722069,-1.904387,-0.752167,-1.943062,-0.780860,-1.982694,-0.808129,-2.023239,
-0.833954,-2.064658,-0.858315,-2.106909,-0.881196,-2.149952,-0.902575,-2.193745,-0.922434,-2.238247,-0.940754,-2.283417,-0.957515,-2.329215,-0.972698,-2.375600,-0.986285,-2.422528,-0.998254,-2.469961,-1.008589,-2.517857,-1.017269,-2.566176,-1.024275,-2.614875,-1.029589,-2.663914,-1.033190,-2.713250,-1.035060,-2.762846,-1.035179,-2.812658,-1.246537,-2.812658,-1.234187,-2.766780,-1.222871,-2.717303,
-1.213448,-2.667430,-1.205931,-2.617234,-1.200331,-2.566788,-1.196659,-2.516168,-1.194194,-2.479536,-1.190722,-2.442989,-1.186243,-2.406550,-1.180762,-2.370248,-1.174282,-2.334111,-1.166809,-2.298166,-1.158348,-2.262438,-1.148906,-2.226959,-1.138490,-2.191754,-1.127108,-2.156849,-1.114767,-2.122270,-1.101479,-2.088044,-1.087252,-2.054196,-1.072096,-2.020752,-1.056025,-1.987737,-1.039051,-1.955180,
-1.021189,-1.923104,-1.002447,-1.891530,-0.982841,-1.860483,-0.962388,-1.829988,-0.941103,-1.800069,-0.919000,-1.770746,-0.896096,-1.742041,-0.872414,-1.713982,-0.847965,-1.686582,-0.822772,-1.659868,-0.796850,-1.633856,-0.770222,-1.608568,-0.742907,-1.584023,-0.714926,-1.560239,-0.686300,-1.537235,-0.657052,-1.515027,-0.630307,-1.494769,-0.604080,-1.473844,-0.578389,-1.452266,-0.553250,-1.430049,
-0.528677,-1.407207,-0.504689,-1.383754,-0.481296,-1.359704,-0.458518,-1.335074,-0.436367,-1.309878,-0.414858,-1.284135,-0.394004,-1.257857,-0.373816,-1.231063,-0.354312,-1.203771,-0.335500,-1.175996,-0.317393,-1.147757,-0.300005,-1.119075,-0.333345,-1.098353,-0.365260,-1.075495,-0.395613,-1.050596,-0.424268,-1.023772,-0.451108,-0.995128,-0.476018,-0.964788,-0.498887,-0.932887,-0.519621,-0.899560,
-0.538129,-0.864954,-0.554333,-0.829207,-0.568163,-0.792476,-0.579560,-0.754921,-0.588475,-0.716702,-0.594871,-0.677980,-0.598719,-0.638927,-0.600003,-0.599704,-0.599280,-0.570278,-0.597113,-0.540922,-0.593508,-0.511708,-0.588474,-0.482707,-0.582020,-0.453985,-0.578804,-0.442370,-0.008102,-0.442370,0.001954,-0.471895,0.022546,-0.495328,0.050540,-0.509103,0.081659,-0.511123,0.111189,-0.501098,
0.134638,-0.480549,0.148446,-0.452598,0.168442,-0.420921,0.200025,-0.413066,0.231581,-0.420918,0.251565,-0.452600,0.265374,-0.480559,0.288833,-0.501113,0.318374,-0.511135,0.349504,-0.509103,0.377499,-0.495327,0.398089,-0.471896,0.408146,-0.442370,0.406137,-0.411248,0.387621,-0.364843,0.360167,-0.325866,0.325727,-0.294766,0.286255,-0.271993,0.243699,-0.257998,0.200021,-0.253233,
0.156344,-0.257999,0.113790,-0.271993,0.074317,-0.294766,0.039877,-0.325866,0.012423,-0.364844,-0.006093,-0.411248,-0.008102,-0.442370,-0.578804,-0.442370,-0.574167,-0.425618,-0.564929,-0.397668,-0.554330,-0.370206,-0.542393,-0.343292,-0.529152,-0.317001,-0.514639,-0.291392,-0.498883,-0.266524,-0.481925,-0.242457,-0.463808,-0.219253,-0.444571,-0.196964,-0.424265,-0.175646,-0.402936,-0.155349,
-0.380634,-0.136121,-0.357421,-0.118014,-0.333343,-0.101065,-0.308461,-0.085316,-0.282838,-0.070808,-0.256534,-0.057574,-0.229611,-0.045645,-0.202135,-0.035052,-0.174171,-0.025819,-0.145788,-0.017968,-0.117055,-0.011519,-0.088039,-0.006486,-0.058810,-0.002883,-0.029440,-0.000717,0.000000,0.000005,0.029440,-0.000717,0.029440,-0.000717,$1*%
G04 Aperture macros list end*
%ADD10C,0.500000*%
%ADD11C,0.650000*%
%ADD12FreePoly0,0.000000*%
%ADD13RoundRect,0.200000X-0.275000X0.200000X-0.275000X-0.200000X0.275000X-0.200000X0.275000X0.200000X0*%
%ADD14RoundRect,0.225000X0.250000X-0.225000X0.250000X0.225000X-0.250000X0.225000X-0.250000X-0.225000X0*%
%ADD15RoundRect,0.225000X0.225000X0.250000X-0.225000X0.250000X-0.225000X-0.250000X0.225000X-0.250000X0*%
%ADD16RoundRect,0.200000X0.275000X-0.200000X0.275000X0.200000X-0.275000X0.200000X-0.275000X-0.200000X0*%
%ADD17RoundRect,0.250000X1.175000X0.450000X-1.175000X0.450000X-1.175000X-0.450000X1.175000X-0.450000X0*%
%ADD18RoundRect,0.150000X0.150000X-0.825000X0.150000X0.825000X-0.150000X0.825000X-0.150000X-0.825000X0*%
%ADD19RoundRect,0.250000X-0.625000X0.350000X-0.625000X-0.350000X0.625000X-0.350000X0.625000X0.350000X0*%
%ADD20O,1.750000X1.200000*%
%ADD21RoundRect,0.250000X0.450000X-1.175000X0.450000X1.175000X-0.450000X1.175000X-0.450000X-1.175000X0*%
%ADD22RoundRect,0.250000X0.250000X0.475000X-0.250000X0.475000X-0.250000X-0.475000X0.250000X-0.475000X0*%
%ADD23RoundRect,0.200000X-0.200000X-0.275000X0.200000X-0.275000X0.200000X0.275000X-0.200000X0.275000X0*%
%ADD24RoundRect,0.250000X1.425000X-0.362500X1.425000X0.362500X-1.425000X0.362500X-1.425000X-0.362500X0*%
%ADD25RoundRect,0.225000X-0.250000X0.225000X-0.250000X-0.225000X0.250000X-0.225000X0.250000X0.225000X0*%
%ADD26RoundRect,0.250000X-0.400000X-0.600000X0.400000X-0.600000X0.400000X0.600000X-0.400000X0.600000X0*%
%ADD27RoundRect,0.150000X-0.825000X-0.150000X0.825000X-0.150000X0.825000X0.150000X-0.825000X0.150000X0*%
%ADD28RoundRect,0.150000X-0.150000X0.512500X-0.150000X-0.512500X0.150000X-0.512500X0.150000X0.512500X0*%
%ADD29RoundRect,0.250000X-1.175000X-0.450000X1.175000X-0.450000X1.175000X0.450000X-1.175000X0.450000X0*%
%ADD30RoundRect,0.250000X0.350000X0.625000X-0.350000X0.625000X-0.350000X-0.625000X0.350000X-0.625000X0*%
%ADD31O,1.200000X1.750000*%
%ADD32RoundRect,0.100000X0.637500X0.100000X-0.637500X0.100000X-0.637500X-0.100000X0.637500X-0.100000X0*%
%ADD33R,2.850000X5.400000*%
%ADD34RoundRect,0.150000X-0.150000X0.587500X-0.150000X-0.587500X0.150000X-0.587500X0.150000X0.587500X0*%
%ADD35RoundRect,0.250000X0.625000X-0.312500X0.625000X0.312500X-0.625000X0.312500X-0.625000X-0.312500X0*%
%ADD36RoundRect,0.150000X0.150000X-0.512500X0.150000X0.512500X-0.150000X0.512500X-0.150000X-0.512500X0*%
%ADD37RoundRect,0.200000X0.200000X0.275000X-0.200000X0.275000X-0.200000X-0.275000X0.200000X-0.275000X0*%
%ADD38C,1.879600*%
%ADD39RoundRect,0.250000X0.400000X0.600000X-0.400000X0.600000X-0.400000X-0.600000X0.400000X-0.600000X0*%
%ADD40RoundRect,0.250000X0.475000X-0.250000X0.475000X0.250000X-0.475000X0.250000X-0.475000X-0.250000X0*%
%ADD41C,1.152000*%
%ADD42RoundRect,0.250000X-0.350000X-0.625000X0.350000X-0.625000X0.350000X0.625000X-0.350000X0.625000X0*%
%ADD43R,1.800000X1.100000*%
%ADD44RoundRect,0.150000X0.512500X0.150000X-0.512500X0.150000X-0.512500X-0.150000X0.512500X-0.150000X0*%
%ADD45RoundRect,0.225000X-0.225000X-0.250000X0.225000X-0.250000X0.225000X0.250000X-0.225000X0.250000X0*%
%ADD46RoundRect,0.250000X-1.425000X0.362500X-1.425000X-0.362500X1.425000X-0.362500X1.425000X0.362500X0*%
%ADD47RoundRect,0.150000X0.150000X-0.587500X0.150000X0.587500X-0.150000X0.587500X-0.150000X-0.587500X0*%
G04 APERTURE END LIST*
D10*
X134800000Y-131900000D02*
X130800000Y-127100000D01*
X134800000Y-131900000D02*
X137500000Y-129600000D01*
X134000000Y-129450000D02*
X134800000Y-131900000D01*
X130800000Y-127100000D02*
X133600000Y-128050000D01*
X138800005Y-126000004D02*
G75*
G03*
X137000000Y-128700000I10760495J-9123696D01*
G01*
X138800000Y-126000000D02*
X135200000Y-128950000D01*
X135700000Y-129550000D02*
X135000000Y-131250000D01*
X133500000Y-129550000D02*
X134200000Y-130950000D01*
X132800000Y-129350000D02*
X135700000Y-124750000D01*
X133000000Y-129650000D02*
X134000000Y-129450000D01*
X133100000Y-128350000D02*
X132400000Y-127850000D01*
X135000000Y-131250000D02*
X135300000Y-128750000D01*
X135499965Y-129849952D02*
G75*
G03*
X135300000Y-128950000I-297665J406052D01*
G01*
X134800000Y-131900000D02*
X135700000Y-124750000D01*
X131800000Y-127550000D02*
X132900000Y-128850000D01*
X137000059Y-128700033D02*
G75*
G03*
X137500000Y-129599999I529741J-294567D01*
G01*
D11*
%TO.C,H2*%
X140675001Y-85825001D02*
G75*
G03*
X140675001Y-85825001I-325000J0D01*
G01*
%TO.C,H1*%
X70975000Y-133200000D02*
G75*
G03*
X70975000Y-133200000I-325000J0D01*
G01*
%TO.C,H3*%
X140775000Y-133575000D02*
G75*
G03*
X140775000Y-133575000I-325000J0D01*
G01*
%TD*%
D12*
%TO.C,svg2mod*%
X109333322Y-85600000D03*
%TD*%
D13*
%TO.C,R17*%
X122425000Y-112675000D03*
X122425000Y-114325000D03*
%TD*%
D14*
%TO.C,C2*%
X79500000Y-102425000D03*
X79500000Y-100875000D03*
%TD*%
D15*
%TO.C,C16*%
X139275000Y-116462500D03*
X137725000Y-116462500D03*
%TD*%
D16*
%TO.C,R11*%
X77600000Y-119675000D03*
X77600000Y-118025000D03*
%TD*%
D17*
%TO.C,TP5*%
X72400000Y-101100000D03*
%TD*%
D14*
%TO.C,C6*%
X77600000Y-116175000D03*
X77600000Y-114625000D03*
%TD*%
D18*
%TO.C,Q4*%
X116495000Y-124675000D03*
X117765000Y-124675000D03*
X119035000Y-124675000D03*
X120305000Y-124675000D03*
X120305000Y-119725000D03*
X119035000Y-119725000D03*
X117765000Y-119725000D03*
X116495000Y-119725000D03*
%TD*%
D13*
%TO.C,R9*%
X79500000Y-107675000D03*
X79500000Y-109325000D03*
%TD*%
%TO.C,R6*%
X79500000Y-104275000D03*
X79500000Y-105925000D03*
%TD*%
D19*
%TO.C,J3*%
X74000000Y-109925000D03*
D20*
X74000000Y-111925000D03*
X74000000Y-113925000D03*
X74000000Y-115925000D03*
X74000000Y-117925000D03*
%TD*%
D15*
%TO.C,C13*%
X118750000Y-109175000D03*
X117200000Y-109175000D03*
%TD*%
D13*
%TO.C,R19*%
X124200000Y-112675000D03*
X124200000Y-114325000D03*
%TD*%
D21*
%TO.C,TP16*%
X86000000Y-87100000D03*
%TD*%
D22*
%TO.C,C8*%
X133550000Y-119100000D03*
X131650000Y-119100000D03*
%TD*%
D23*
%TO.C,R28*%
X117712500Y-92800000D03*
X119362500Y-92800000D03*
%TD*%
D17*
%TO.C,TP9*%
X72400000Y-106100000D03*
%TD*%
D23*
%TO.C,R5*%
X111650000Y-117800000D03*
X113300000Y-117800000D03*
%TD*%
D14*
%TO.C,C7*%
X79500000Y-116175000D03*
X79500000Y-114625000D03*
%TD*%
D23*
%TO.C,R12*%
X118800000Y-127000000D03*
X120450000Y-127000000D03*
%TD*%
D21*
%TO.C,TP15*%
X99000000Y-87100000D03*
%TD*%
D24*
%TO.C,R24*%
X130800000Y-110625000D03*
X130800000Y-104700000D03*
%TD*%
D22*
%TO.C,C9*%
X115475000Y-111525000D03*
X113575000Y-111525000D03*
%TD*%
D25*
%TO.C,C4*%
X77600000Y-111150000D03*
X77600000Y-112700000D03*
%TD*%
D17*
%TO.C,TP11*%
X108250000Y-118700000D03*
%TD*%
D14*
%TO.C,C17*%
X117837500Y-96575000D03*
X117837500Y-95025000D03*
%TD*%
D26*
%TO.C,D4*%
X134650000Y-91400000D03*
X138150000Y-91400000D03*
%TD*%
D27*
%TO.C,U3*%
X126525000Y-113195000D03*
X126525000Y-114465000D03*
X126525000Y-115735000D03*
X126525000Y-117005000D03*
X131475000Y-117005000D03*
X131475000Y-115735000D03*
X131475000Y-114465000D03*
X131475000Y-113195000D03*
%TD*%
D15*
%TO.C,C1*%
X108800000Y-130962500D03*
X107250000Y-130962500D03*
%TD*%
D28*
%TO.C,U6*%
X139250000Y-111925000D03*
X138300000Y-111925000D03*
X137350000Y-111925000D03*
X137350000Y-114200000D03*
X139250000Y-114200000D03*
%TD*%
D21*
%TO.C,TP1*%
X82900000Y-87100000D03*
%TD*%
D13*
%TO.C,R4*%
X111700000Y-114550000D03*
X111700000Y-116200000D03*
%TD*%
D29*
%TO.C,TP10*%
X108250000Y-116400000D03*
%TD*%
D17*
%TO.C,TP7*%
X72400000Y-103600000D03*
%TD*%
D30*
%TO.C,J4*%
X136600000Y-99100000D03*
D31*
X134600000Y-99100000D03*
X132600000Y-99100000D03*
%TD*%
D21*
%TO.C,TP8*%
X77400000Y-122600000D03*
%TD*%
D25*
%TO.C,C5*%
X79500000Y-111150000D03*
X79500000Y-112700000D03*
%TD*%
D21*
%TO.C,TP13*%
X88600000Y-87100000D03*
%TD*%
D32*
%TO.C,U4*%
X117137500Y-107375000D03*
X117137500Y-106725000D03*
X117137500Y-106075000D03*
X117137500Y-105425000D03*
X117137500Y-104775000D03*
X117137500Y-104125000D03*
X117137500Y-103475000D03*
X117137500Y-102825000D03*
X117137500Y-102175000D03*
X117137500Y-101525000D03*
X117137500Y-100875000D03*
X117137500Y-100225000D03*
X117137500Y-99575000D03*
X117137500Y-98925000D03*
X111412500Y-98925000D03*
X111412500Y-99575000D03*
X111412500Y-100225000D03*
X111412500Y-100875000D03*
X111412500Y-101525000D03*
X111412500Y-102175000D03*
X111412500Y-102825000D03*
X111412500Y-103475000D03*
X111412500Y-104125000D03*
X111412500Y-104775000D03*
X111412500Y-105425000D03*
X111412500Y-106075000D03*
X111412500Y-106725000D03*
X111412500Y-107375000D03*
D33*
X114275000Y-103150000D03*
%TD*%
D16*
%TO.C,R25*%
X135600000Y-116587500D03*
X135600000Y-114937500D03*
%TD*%
D21*
%TO.C,TP4*%
X71700000Y-122600000D03*
%TD*%
%TO.C,TP18*%
X96400000Y-87100000D03*
%TD*%
D24*
%TO.C,R21*%
X126000000Y-110625000D03*
X126000000Y-104700000D03*
%TD*%
D21*
%TO.C,TP14*%
X93800000Y-87100000D03*
%TD*%
D34*
%TO.C,Q2*%
X109200000Y-127025000D03*
X107300000Y-127025000D03*
X108250000Y-128900000D03*
%TD*%
D29*
%TO.C,TP19*%
X138350000Y-121000000D03*
%TD*%
D26*
%TO.C,D1*%
X119050000Y-129200000D03*
X122550000Y-129200000D03*
%TD*%
D16*
%TO.C,R15*%
X112900000Y-121225000D03*
X112900000Y-119575000D03*
%TD*%
D21*
%TO.C,TP2*%
X79800000Y-87100000D03*
%TD*%
%TO.C,TP12*%
X102100000Y-87100000D03*
%TD*%
D29*
%TO.C,TP21*%
X113600000Y-92800000D03*
%TD*%
D35*
%TO.C,R13*%
X122600000Y-126900000D03*
X122600000Y-123975000D03*
%TD*%
D13*
%TO.C,R14*%
X114600000Y-119575000D03*
X114600000Y-121225000D03*
%TD*%
D36*
%TO.C,U2*%
X113550000Y-115937500D03*
X114500000Y-115937500D03*
X115450000Y-115937500D03*
X115450000Y-113662500D03*
X113550000Y-113662500D03*
%TD*%
D37*
%TO.C,R30*%
X122675000Y-88300000D03*
X121025000Y-88300000D03*
%TD*%
D13*
%TO.C,R22*%
X139250000Y-104737500D03*
X139250000Y-106387500D03*
%TD*%
D14*
%TO.C,C14*%
X119500000Y-107550000D03*
X119500000Y-106000000D03*
%TD*%
D16*
%TO.C,R20*%
X122425000Y-117525000D03*
X122425000Y-115875000D03*
%TD*%
D21*
%TO.C,TP17*%
X91200000Y-87100000D03*
%TD*%
%TO.C,TP6*%
X74500000Y-122600000D03*
%TD*%
D38*
%TO.C,U1*%
X102660000Y-128860000D03*
X102660000Y-126320000D03*
X102660000Y-123780000D03*
X102660000Y-121240000D03*
X102660000Y-118700000D03*
X102660000Y-116160000D03*
X102660000Y-113620000D03*
X102660000Y-111080000D03*
X102660000Y-108540000D03*
X102660000Y-106000000D03*
X102660000Y-103460000D03*
X102660000Y-100920000D03*
X102660000Y-98380000D03*
X102660000Y-95840000D03*
X102660000Y-93300000D03*
X102660000Y-90760000D03*
X82340000Y-90760000D03*
X82340000Y-93300000D03*
X82340000Y-95840000D03*
X82340000Y-98380000D03*
X82340000Y-100920000D03*
X82340000Y-103460000D03*
X82340000Y-106000000D03*
X82340000Y-108540000D03*
X82340000Y-111080000D03*
X82340000Y-113620000D03*
X82340000Y-116160000D03*
X82340000Y-118700000D03*
%TD*%
D26*
%TO.C,D8*%
X129200000Y-88700000D03*
X132700000Y-88700000D03*
%TD*%
D16*
%TO.C,R7*%
X77600000Y-105925000D03*
X77600000Y-104275000D03*
%TD*%
D13*
%TO.C,R10*%
X79500000Y-118025000D03*
X79500000Y-119675000D03*
%TD*%
D39*
%TO.C,D2*%
X129700000Y-119200000D03*
X126200000Y-119200000D03*
%TD*%
D40*
%TO.C,C11*%
X122000000Y-100450000D03*
X122000000Y-98550000D03*
%TD*%
D26*
%TO.C,D5*%
X134650000Y-88700000D03*
X138150000Y-88700000D03*
%TD*%
D41*
%TO.C,H2*%
X140350001Y-85825001D03*
%TD*%
D34*
%TO.C,Q1*%
X109200000Y-121025000D03*
X107300000Y-121025000D03*
X108250000Y-122900000D03*
%TD*%
D42*
%TO.C,J1*%
X113300000Y-128500000D03*
D31*
X115300000Y-128500000D03*
%TD*%
D26*
%TO.C,D3*%
X134650000Y-94100000D03*
X138150000Y-94100000D03*
%TD*%
D41*
%TO.C,H1*%
X70650000Y-133200000D03*
%TD*%
D43*
%TO.C,SW1*%
X71900000Y-126500000D03*
X78100000Y-126500000D03*
X71900000Y-130200000D03*
X78100000Y-130200000D03*
%TD*%
D36*
%TO.C,U5*%
X135600000Y-109475000D03*
X136550000Y-109475000D03*
X137500000Y-109475000D03*
X137500000Y-107200000D03*
X135600000Y-107200000D03*
%TD*%
D23*
%TO.C,R29*%
X120987500Y-92800000D03*
X122637500Y-92800000D03*
%TD*%
D24*
%TO.C,R16*%
X118400000Y-117325000D03*
X118400000Y-111400000D03*
%TD*%
D13*
%TO.C,R3*%
X77600000Y-91675000D03*
X77600000Y-93325000D03*
%TD*%
D16*
%TO.C,R2*%
X77600000Y-96700000D03*
X77600000Y-95050000D03*
%TD*%
D19*
%TO.C,J2*%
X74000000Y-88900000D03*
D20*
X74000000Y-90900000D03*
X74000000Y-92900000D03*
X74000000Y-94900000D03*
%TD*%
D44*
%TO.C,U7*%
X122375000Y-96500000D03*
X122375000Y-95550000D03*
X122375000Y-94600000D03*
X120100000Y-94600000D03*
X120100000Y-96500000D03*
%TD*%
D26*
%TO.C,D7*%
X129200000Y-91400000D03*
X132700000Y-91400000D03*
%TD*%
D41*
%TO.C,H3*%
X140450000Y-133575000D03*
%TD*%
D45*
%TO.C,C15*%
X135550000Y-104837500D03*
X137100000Y-104837500D03*
%TD*%
D16*
%TO.C,R26*%
X135600000Y-113312500D03*
X135600000Y-111662500D03*
%TD*%
D23*
%TO.C,R1*%
X107200000Y-124962500D03*
X108850000Y-124962500D03*
%TD*%
D13*
%TO.C,R23*%
X139250000Y-108037500D03*
X139250000Y-109687500D03*
%TD*%
D46*
%TO.C,R27*%
X125997119Y-95162500D03*
X125997119Y-101087500D03*
%TD*%
D17*
%TO.C,TP20*%
X138350000Y-118700000D03*
%TD*%
D47*
%TO.C,Q3*%
X124850000Y-126737500D03*
X126750000Y-126737500D03*
X125800000Y-124862500D03*
%TD*%
D39*
%TO.C,D9*%
X121500000Y-90400000D03*
X118000000Y-90400000D03*
%TD*%
D29*
%TO.C,TP3*%
X108250000Y-114100000D03*
%TD*%
D16*
%TO.C,R8*%
X77600000Y-109325000D03*
X77600000Y-107675000D03*
%TD*%
D15*
%TO.C,C18*%
X119350000Y-88300000D03*
X117800000Y-88300000D03*
%TD*%
D14*
%TO.C,C3*%
X77600000Y-102425000D03*
X77600000Y-100875000D03*
%TD*%
D26*
%TO.C,D6*%
X129200000Y-94100000D03*
X132700000Y-94100000D03*
%TD*%
D22*
%TO.C,C10*%
X115475000Y-109425000D03*
X113575000Y-109425000D03*
%TD*%
D16*
%TO.C,R18*%
X124200000Y-117525000D03*
X124200000Y-115875000D03*
%TD*%
D45*
%TO.C,C12*%
X113475000Y-97050000D03*
X115025000Y-97050000D03*
%TD*%
M02*
